<svg xmlns="http://www.w3.org/2000/svg" viewBox="0 0 289.48 214.62"><defs><style>.cls-1{isolation:isolate;}.cls-2{fill:#fffbf1;}.cls-3{fill:#d8a74f;}.cls-4{fill:#e30613;}.cls-5{fill:#683c11;}.cls-6{fill:#fbd2bb;}.cls-7{fill:#f7c0d8;}.cls-8{fill:#1d1d1b;}.cls-9{fill:#1d71b8;opacity:0.44;mix-blend-mode:color-burn;}.cls-10{fill:#312783;}.cls-11{fill:#fcea10;}.cls-12{fill:#e94e1b;}</style></defs><g class="cls-1"><g id="Layer_26" data-name="Layer 26"><g id="Layer_25" data-name="Layer 25"><path class="cls-2" d="M194,76.69c-.2-.29-.43-.57-.63-.86a.52.52,0,0,0-.05-.24A18.45,18.45,0,0,0,183,66.17a.63.63,0,0,0-.32-.3,24.85,24.85,0,0,0-17.25-.25,18.46,18.46,0,0,0-7.59,4.18,22.11,22.11,0,0,0-4.56,7.32,16.44,16.44,0,0,0-1.09,8.34,10.61,10.61,0,0,0-5.72,9.11c0,.2,0,.39-.05.59a19.55,19.55,0,0,0-11.91,3.47,31,31,0,0,0-3.58,2.82,8,8,0,0,0-.35-2.54,11.38,11.38,0,0,0-.55-1.46c0-.27.06-.55.06-.83a11.11,11.11,0,0,0-7.92-10.5c-.23-.07-.47-.1-.7-.16A2,2,0,0,0,123,83.38c-.1-.33-.21-.66-.31-1a2,2,0,0,0,1.12-2.45,20.93,20.93,0,0,0-4.58-7.65c-.09-.13-.17-.27-.26-.39s-.23-.42-.33-.63a1.87,1.87,0,0,0-.85-.82A21.88,21.88,0,0,0,87,69.54a1.22,1.22,0,0,0-.15.17.39.39,0,0,0-.26.15l-2,2.35a.53.53,0,0,0-.11.21c-.43.54-.84,1.09-1.25,1.65a.44.44,0,0,0-.08.31,21.54,21.54,0,0,0-1.49,1.93.54.54,0,0,0,.93.54c.39-.74,1.39-1,2.12-1.25a30.52,30.52,0,0,1,3-.89,1.71,1.71,0,0,0,1.23.38,15.69,15.69,0,0,1,13,4.65,23,23,0,0,1,3.69,5.45,20.55,20.55,0,0,1,2.17,5.51,4.34,4.34,0,0,0,0,.72,2,2,0,0,0-.23-.06,2.58,2.58,0,0,0-1,0l-.5-.21a1.68,1.68,0,0,0-.86,0,2.08,2.08,0,0,0-1.24.6,2.63,2.63,0,0,0-.56.95,1.72,1.72,0,0,0,0,.87,1.55,1.55,0,0,0,.26.8c.07.17.17.33.25.49v0a5.91,5.91,0,0,0,.48,1c0,.07.11.13.15.2a3.64,3.64,0,0,0-.65-.28,2.27,2.27,0,0,0-2.6,3.37,8.22,8.22,0,0,0,.49.67l1.1,1.45a1.46,1.46,0,0,0,.17.24,5.17,5.17,0,0,0,.58.73,2,2,0,0,0,.28.23c-2,3.42-2.29,7.28-4,10.85a13.35,13.35,0,0,0-.91,2.62l-.4,1.15a8.4,8.4,0,0,0-.49,2.6c-.83,1.86-1.62,3.72-2.33,5.63a9.14,9.14,0,0,0-.51,4.65A20.14,20.14,0,0,0,95,142.82a10.62,10.62,0,0,0,2.87,4.54,28.13,28.13,0,0,0,10.94,10.29,11.57,11.57,0,0,0,1.46.64c.66.5,1.31,1,2,1.52l0,0a26.49,26.49,0,0,0-5.9,10.95c-2.37,8.69,1.72,17.08,8.41,22.6a46.29,46.29,0,0,1,4.63,2.67c1,.61,1.93,1.22,2.93,1.74.44.15.87.31,1.29.47,1.27.21,2.54.4,3.81.63,1.42.26,2.83.61,4.27.74a1.83,1.83,0,0,1,.71.2,21.06,21.06,0,0,0,4-.44c.56,0,1.13,0,1.71,0a22.51,22.51,0,0,0,9.27-.5c.1,0,.2-.06.3-.09l.55-.14a9.25,9.25,0,0,0,3.06-.71l3.88-1.58a14.8,14.8,0,0,0,3.25-1.85l.92-.51a10.36,10.36,0,0,0,2.19-1.74,9.67,9.67,0,0,0,2.67-2.13l1.14-1.28a13.65,13.65,0,0,0,1.57-1.86c.21-.29.41-.59.62-.89a8.56,8.56,0,0,0,1.65-5.49v0a11.75,11.75,0,0,0,.31-3.88c.08-.89.14-1.79.15-2.69a10.87,10.87,0,0,0-.75-4.32,29.17,29.17,0,0,0-3-6.89,10.5,10.5,0,0,0-2.73-3c.25-.11.49-.23.73-.36a10.72,10.72,0,0,0,2.52-1.21l2.51-1.62.4-.28.78-.51a11.57,11.57,0,0,0,2.84-2.6,11.57,11.57,0,0,0,1.4-1.4l.16-.13c.21-.17.39-.35.58-.53a9.62,9.62,0,0,0,5-6.15,9.78,9.78,0,0,0,1.59-3.79,9.19,9.19,0,0,0,.59-3.34v-.76a16.58,16.58,0,0,0,0-2.44,13.22,13.22,0,0,0-.72-3.22l-.08-.51a.43.43,0,0,1,0-.11c-.15-.9-.29-1.81-.43-2.72a9.13,9.13,0,0,0-.77-2.45c-.22-1.1-.48-2.19-.75-3.27-.15-.66-.32-1.32-.53-2a11.74,11.74,0,0,0-.7-1.81,7.78,7.78,0,0,0-.38-1.53c-.36-1-.71-1.93-1.07-2.89-.06-.16-.12-.3-.19-.45a9,9,0,0,0-.63-3,84.86,84.86,0,0,0-3.57-8.11c-.06-.11-.13-.2-.19-.31l.06-.07a.6.6,0,0,0,.26-.44,12,12,0,0,0,1.62-2.48,4.54,4.54,0,0,0,.37-.73,1.83,1.83,0,0,0-.6-2.32,3,3,0,0,0-1.72-.29h-.05L171.9,96a5.91,5.91,0,0,0,.21-1.58,1.62,1.62,0,0,0,.17-.35,1.81,1.81,0,0,0-.37-1.73,2.61,2.61,0,0,0-2.92-.63c-.57.06-1.13.14-1.7.24,0-.14,0-.27,0-.41a3.81,3.81,0,0,0,.07-.59s0,0,0,0,0-.29,0-.44c.21-.67.45-1.33.71-2l.77-1.71a.53.53,0,0,0,0-.39,1.37,1.37,0,0,0,.17-.23,28.37,28.37,0,0,1,1.5-2.55,22.43,22.43,0,0,1,3.85-4.29,21.75,21.75,0,0,1,5-3.25,16.16,16.16,0,0,1,6.76-1.33,9.21,9.21,0,0,1,3.61.49,13.39,13.39,0,0,1,3.29,2.14C193.55,77.7,194.34,77.24,194,76.69Z"/><path class="cls-3" d="M112,94.47c3.63-2.18,7-5.5,10.75-8.11-.21-.08-.43-.17-.65-.24l-.71-.16A1.93,1.93,0,0,0,123,83.39c-.09-.34-.2-.67-.3-1A2,2,0,0,0,123.83,80a21.15,21.15,0,0,0-4.58-7.67L119,71.9l-.34-.63a1.74,1.74,0,0,0-.84-.81A21.87,21.87,0,0,0,87,69.54c-.06,0-.1.12-.15.17a.36.36,0,0,0-.26.15l-2,2.35a.56.56,0,0,0-.11.2c-.43.56-.84,1.1-1.25,1.66a.44.44,0,0,0-.08.3,23.22,23.22,0,0,0-1.49,1.94.54.54,0,0,0,.93.54c.39-.73,1.39-1,2.12-1.25,1-.35,2-.64,3-.89a1.8,1.8,0,0,0,1.25.39,15.61,15.61,0,0,1,13,4.64,22.46,22.46,0,0,1,3.69,5.45,20.75,20.75,0,0,1,2.17,5.51,4.51,4.51,0,0,0,0,.73,1.19,1.19,0,0,0-.23-.07,2.81,2.81,0,0,0-1,0l-.5-.21a1.93,1.93,0,0,0-.86,0,2.07,2.07,0,0,0-1.24.59,2.71,2.71,0,0,0-.56,1,1.64,1.64,0,0,0,0,.85,1.67,1.67,0,0,0,.25.81c.08.17.18.33.26.49h0a5.41,5.41,0,0,0,.49,1l.15.19a7.08,7.08,0,0,0-.65-.28A2.38,2.38,0,0,0,102,96a2.34,2.34,0,0,0-.79,3.16c.15.24.33.45.49.67l1.11,1.45a1,1,0,0,0,.16.24,4.23,4.23,0,0,0,.58.73l0,0a35,35,0,0,1,6.15-5.9A9.07,9.07,0,0,1,112,94.47Z"/><path class="cls-3" d="M169.62,174a11,11,0,0,0-.76-4.32,29.2,29.2,0,0,0-3-6.89,10.16,10.16,0,0,0-2.41-2.72c-.56.23-1.13.45-1.7.65l-.49.37a9.45,9.45,0,0,1-1.74,1.05,24.71,24.71,0,0,1-6.59,2,7,7,0,0,1-2.83,1.05,87.61,87.61,0,0,1-13.25.68,7.38,7.38,0,0,1-1.73-.22H135a7.69,7.69,0,0,1-4.11.54c-1.18-.15-2.36-.33-3.53-.54a25.21,25.21,0,0,1-3.86-.81l-.2-.05a7,7,0,0,1-1.54-.55,15.15,15.15,0,0,1-1.44-.61l-.1,0a14.25,14.25,0,0,1-2.22-.77l-.11-.07a18,18,0,0,1-3.86-1.26,8.73,8.73,0,0,1-1.28-.7c-.33-.12-.64-.25-1-.39a27,27,0,0,0-5.43,10.39c-2.36,8.69,1.73,17.09,8.42,22.6a43.76,43.76,0,0,1,4.63,2.68c1,.6,1.93,1.21,2.93,1.73l1.29.47c1.28.21,2.54.4,3.81.63s2.78.59,4.2.73l.06,0,.23,0a2.66,2.66,0,0,1,.5.16l.55,0a28.77,28.77,0,0,0,7.81-.13,24.6,24.6,0,0,0,5.15-.49A10.13,10.13,0,0,0,147,199a10.27,10.27,0,0,0,1.81-.4,9.43,9.43,0,0,0,2.44-.65l3.88-1.58a14.5,14.5,0,0,0,3.24-1.85l.94-.51a10.55,10.55,0,0,0,2.18-1.74,9.86,9.86,0,0,0,2.67-2.13l1.14-1.28a14.28,14.28,0,0,0,1.57-1.86l.63-.89a8.62,8.62,0,0,0,1.64-5.49.06.06,0,0,1,0,0,11.71,11.71,0,0,0,.3-3.88C169.54,175.8,169.61,174.91,169.62,174ZM138,198.44c-10.94,0-19.8-4.94-19.8-11s8.86-11,19.8-11,19.8,4.95,19.8,11S148.93,198.44,138,198.44Z"/><path class="cls-3" d="M194,76.69c-.19-.29-.42-.56-.61-.86,0-.07,0-.16-.06-.25A18.43,18.43,0,0,0,183,66.17a.55.55,0,0,0-.33-.3,24.76,24.76,0,0,0-17.24-.25,18.57,18.57,0,0,0-7.59,4.18,22.14,22.14,0,0,0-4.57,7.32A16.71,16.71,0,0,0,152.1,85a42.79,42.79,0,0,1,12.63,9.51,43.71,43.71,0,0,1,7.46,7.91.2.2,0,0,1,.06-.07.6.6,0,0,0,.26-.44,12,12,0,0,0,1.62-2.48,4.65,4.65,0,0,0,.37-.74,1.82,1.82,0,0,0-.6-2.31,3,3,0,0,0-1.72-.29h-.05a1,1,0,0,0-.23-.08,6.47,6.47,0,0,0,.22-1.58,2,2,0,0,0,.16-.36,1.83,1.83,0,0,0-.37-1.73,2.64,2.64,0,0,0-2.92-.63c-.56.07-1.14.16-1.7.25,0-.14,0-.27,0-.41a3.81,3.81,0,0,0,.07-.59s0,0,0,0,0-.29,0-.43c.21-.67.44-1.33.72-2s.5-1.14.75-1.7a.57.57,0,0,0,0-.4,1.92,1.92,0,0,0,.16-.21,27.2,27.2,0,0,1,1.5-2.56,22.3,22.3,0,0,1,8.86-7.54,16,16,0,0,1,6.75-1.33,9.24,9.24,0,0,1,3.62.49,13.39,13.39,0,0,1,3.29,2.14C193.55,77.69,194.34,77.24,194,76.69Z"/><path class="cls-4" d="M116.15,167.05a.09.09,0,0,0,0-.05v.05Z"/><path class="cls-4" d="M117.22,162.08a5.09,5.09,0,0,0-1.44-.76l-1.3-.57c-.42-.18-.85-.36-1.27-.56l-.28-.16-.39-.49a1.52,1.52,0,0,0-1.4-.44l-.06,0a1.46,1.46,0,0,0-.65-.35,1.65,1.65,0,0,0-2,1.13l0,.09a1.28,1.28,0,0,0-.08.35,7,7,0,0,0-.6,2.69,5.23,5.23,0,0,0,1.23,3.11,7,7,0,0,0,2.22,2.13,5.23,5.23,0,0,0,1.73.51c.22,0,.45.05.67.06a1.74,1.74,0,0,0,1.62.19,1.63,1.63,0,0,0,.94-1.9h0v0h0v0c0-.18,0-.1,0,0,0-.1.07-.27.07-.27s0-.11,0-.06a3.4,3.4,0,0,1,.31-.5c.1-.18.22-.35.33-.52C117.52,164.63,118.31,163.1,117.22,162.08Z"/><path class="cls-4" d="M116.16,167.15s0-.06,0-.08v0A.45.45,0,0,1,116.16,167.15Z"/><path class="cls-4" d="M116.16,167.15c0,.09,0,.14,0,0Z"/><path class="cls-4" d="M116.14,167.06h0Z"/><path class="cls-4" d="M143.67,169.12l-.13-.13-.12-.17,0,0v0c0-.11-.08-.22-.11-.33a7.39,7.39,0,0,0-.57-1.53A2.42,2.42,0,0,0,141,165.7a2.24,2.24,0,0,0-1.09.11l-.14.05-.1,0a1.1,1.1,0,0,0-.67-.05,2.74,2.74,0,0,0-1.17.14l-.55,0a1.83,1.83,0,0,0-1.43-.06l-1.31,0a1.65,1.65,0,0,0-1.62,1.63l0,.39v.05c0,.12,0,.26-.09.38l-.09.25a1.32,1.32,0,0,0-.08.14s0,0,0,0l0,.05-.08.07a3,3,0,0,1-.3.18,1.65,1.65,0,0,0-.58,2.23,1.68,1.68,0,0,0,2.22.58,3.49,3.49,0,0,0,.64-.41,12.44,12.44,0,0,0,1.5-1.12,9.45,9.45,0,0,0,.78-.77c.06-.06.1-.13.16-.19a3.16,3.16,0,0,0,1.16.24,2.71,2.71,0,0,0,1.08-.23h0a1.51,1.51,0,0,0,.75,1l.41.25.26.17.1.07.25.22c.14.12.27.25.4.38a1.66,1.66,0,0,0,2.3,0A1.64,1.64,0,0,0,143.67,169.12Z"/><path class="cls-4" d="M159,165.32l0,0h0S159,165.33,159,165.32Z"/><path class="cls-4" d="M167.61,160.66a1.53,1.53,0,0,0-.3-1.18,1.65,1.65,0,0,0-2.1-.42l-3.77,2c-.71.23-1.42.44-2.15.6a1.63,1.63,0,0,0-1,2.38,9.52,9.52,0,0,1,.52.87,4.15,4.15,0,0,0,.19.43c0-.07-.06-.19,0,0v0l.09.24a8.21,8.21,0,0,1,.27,1,3.73,3.73,0,0,1,.09.46h0a2.45,2.45,0,0,0,0,.27,1.63,1.63,0,0,0,2.51,1.35,6.25,6.25,0,0,0,2.34-.52,9.94,9.94,0,0,0,2.52-1.69,1.33,1.33,0,0,0,.39-.7,3,3,0,0,0,.64-1.41A7.9,7.9,0,0,0,167.61,160.66Z"/><path class="cls-4" d="M200.09,111.17a1.68,1.68,0,0,0-2-.25l-.24.14-.25,0,.05-.33a1.71,1.71,0,0,0-.22-.82l-.27-.32h0a.46.46,0,0,0-.07-.07c-.09-.11-.17-.23-.27-.33a5.89,5.89,0,0,0-.73-.59,1.15,1.15,0,0,0-.6-.19,1,1,0,0,0-.29,0A1.87,1.87,0,0,0,195,108a7.22,7.22,0,0,0-.11-2.54,8.44,8.44,0,0,0-.75-2.24,3.49,3.49,0,0,0-1.91-2,3.54,3.54,0,0,0-2.76.69,6.39,6.39,0,0,0-1.72,1.51,12.1,12.1,0,0,0-1.24,1.92c-.5,1-1,2-.39,3a2.81,2.81,0,0,0,1.72,1.09,8.92,8.92,0,0,0,1.13.29,12.15,12.15,0,0,0,2.88.24,1.85,1.85,0,0,0,.41-.07,7.15,7.15,0,0,0,.73.61,1.41,1.41,0,0,0,.7.22c0,.06.06.14.07.18s.06.15.1.22v0l.25.32h0a.49.49,0,0,0,.14.11l0,0,.33.25a3.22,3.22,0,0,1,.85.46,1.33,1.33,0,0,0,.63.14h0a1.88,1.88,0,0,0,.06,1,1.11,1.11,0,0,0,0,.44l.29,2.3a1.94,1.94,0,0,0,0,.24,4,4,0,0,0,.43,2,1.63,1.63,0,0,0,1.83.74,1.75,1.75,0,0,0,.72-.42,1.59,1.59,0,0,0,.47-1.14l-.19-1.48c0-.17,0-.34.07-.52a9.82,9.82,0,0,1,.48-2.08l.18-.37A1.65,1.65,0,0,0,200.09,111.17Z"/><path class="cls-4" d="M89.87,105.9a6.32,6.32,0,0,0-.66-1.79,1.56,1.56,0,0,0-.49-.5,8.65,8.65,0,0,0-2-1.86,5.43,5.43,0,0,0-1.47-.77,2.31,2.31,0,0,0-2.35.66,6,6,0,0,0-1.34,3,11.47,11.47,0,0,0-.16,2.33l-.26.14h0l-.05.26a1.68,1.68,0,0,1-.43.71,1,1,0,0,1-.3.27.5.5,0,0,1,0,.12,1.34,1.34,0,0,0-.26.09,1.52,1.52,0,0,1-.47.2,4.37,4.37,0,0,0-.4.25,1.14,1.14,0,0,0-.38.58c-.34.36-.66.72-1,1.1l-.21.27a1.31,1.31,0,0,0-.35-.27,1.66,1.66,0,0,0-2.5,1.65,1.54,1.54,0,0,0,.37.83,1.61,1.61,0,0,0,0,.31c0,.15,0,.29.07.43h0a16.76,16.76,0,0,0,.52,2.63,1.67,1.67,0,0,0,.08.2c0,.3,0,.6,0,.91a1.63,1.63,0,0,0,1.62,1.62,1.65,1.65,0,0,0,1.62-1.62c0-.06,0-.12,0-.18v-.06c0-.18.08-.36.13-.53s.19-.62.08-.24a3.12,3.12,0,0,1,.23-.49,4.28,4.28,0,0,0,.46-2.76.61.61,0,0,0-.05-.15l.12-.17,0-.06.13-.15a14.31,14.31,0,0,1,1-1.15,1.79,1.79,0,0,0,.71-.51,1.88,1.88,0,0,0,.47-1.19,1.88,1.88,0,0,0,.3-.12l.26-.15a1.41,1.41,0,0,0,.63.35,6.29,6.29,0,0,0,2.73-.1l.53-.12.29-.06h.06a3.56,3.56,0,0,0,1.44-.36,2.64,2.64,0,0,0,1.32-2.55A6.45,6.45,0,0,0,89.87,105.9Z"/><path class="cls-5" d="M185.17,125.17a11.08,11.08,0,0,0,.27-3.52,8.39,8.39,0,0,0-1-3.33,1.37,1.37,0,0,0-.56-.56,8.15,8.15,0,0,0-.61-.92c-.08-.14-.16-.27-.23-.42a1.66,1.66,0,0,0-.75-.64,8.92,8.92,0,0,0-1.17-.94,1.38,1.38,0,0,0-.82-.21c-.12-.06-.24-.14-.37-.19a1.88,1.88,0,0,0-1.43-.08,1.64,1.64,0,0,0-1.22,2.39l.27.62a1.27,1.27,0,0,0,.68.63,1.37,1.37,0,0,0,.2.13c.57,2.51,1.19,5,1.9,7.49a1.55,1.55,0,0,0,.47.74,7.37,7.37,0,0,1-.11.93,1.64,1.64,0,0,0,.94,1.92,1.61,1.61,0,0,0,2-.67,10.3,10.3,0,0,0,.57-1.32,5.32,5.32,0,0,0,.89-1.82A1.6,1.6,0,0,0,185.17,125.17Z"/><path class="cls-5" d="M193.64,116a2.21,2.21,0,0,0-.59-.73,3.05,3.05,0,0,0-1.31-1.35,3.22,3.22,0,0,0-.92-.31l-.2-.14a1.65,1.65,0,0,0-2,.3l-.31.22a2.29,2.29,0,0,0-.56.78,7.35,7.35,0,0,0-.32.77,1.61,1.61,0,0,0-.28.61,3.22,3.22,0,0,0,0,1,2.3,2.3,0,0,0,.26,1.35,2.61,2.61,0,0,0,3.2,2.54A2.3,2.3,0,0,0,191,121a2.9,2.9,0,0,0,.48-.14l.22,0a2.6,2.6,0,0,0,.81-.42,2.36,2.36,0,0,0,.65-.57l.11-.19.07-.09A3.53,3.53,0,0,0,193.64,116Z"/><path class="cls-5" d="M201.3,103.26c0-.29,0-.59.07-.88a2.65,2.65,0,0,1-.07-.48,17.57,17.57,0,0,1-.13-4,.29.29,0,0,0,0-.09c-.33-1.39-.67-2.77-1-4.16,0-.1-.06-.2-.08-.3a1.54,1.54,0,0,0-1.59.77,35.52,35.52,0,0,0-2.48,6,41.64,41.64,0,0,0-.66,6.78,1.62,1.62,0,0,0,1.51,1.61c0,.11,0,.22,0,.32a1.61,1.61,0,0,0,1.4,1.6,1.66,1.66,0,0,0,1.79-1.16l.3-.83a1.35,1.35,0,0,0,.58-.92c.21-1.19.34-2.39.44-3.6A1.67,1.67,0,0,1,201.3,103.26Z"/><path class="cls-5" d="M98,114.87a1.63,1.63,0,0,0-2.1-.42l-.51.38a1.19,1.19,0,0,0-.85.23,4.15,4.15,0,0,0-.32.27v0l-.08.1a9.85,9.85,0,0,0-1.34,1.32,1.85,1.85,0,0,0-.68.6,11.42,11.42,0,0,0-1.84,4.77,2.12,2.12,0,0,0,.12,1,4.54,4.54,0,0,0,.06,1,1.41,1.41,0,0,0,.06.54l.12.33h0a14.33,14.33,0,0,0,.9,2,1.22,1.22,0,0,0,.23.27l.18.65a1.63,1.63,0,0,0,3.19-.43,7.47,7.47,0,0,1,.52-2.72,1.23,1.23,0,0,0,.07-.42c.31-.92.59-1.86.82-2.81a1.86,1.86,0,0,0,0-.52,2.42,2.42,0,0,0,.24-.45,3.28,3.28,0,0,0,.18-.58c.14-.47.28-.95.43-1.42a1.57,1.57,0,0,0,0-.86,3.37,3.37,0,0,1,.44-.82A1.65,1.65,0,0,0,98,114.87Z"/><path class="cls-5" d="M88.61,117.67a5.75,5.75,0,0,0-.08-1.3v0c0-.14,0-.28,0-.42a2.87,2.87,0,0,0-.53-1.25,2.4,2.4,0,0,0-.53-.85,2.08,2.08,0,0,0-1.83-.56,2.71,2.71,0,0,0-1.86.39,2.25,2.25,0,0,0-.78.84,2.41,2.41,0,0,0-.21.66,6.85,6.85,0,0,0-.69,2.74,2.93,2.93,0,0,0,.66,2,2.21,2.21,0,0,0,.43.37,2.7,2.7,0,0,0,1.37.76,2.78,2.78,0,0,0,.64.06h.07a1.83,1.83,0,0,0,.33,0,2.93,2.93,0,0,0,1.06-.31,2.67,2.67,0,0,0,1.1-.75,3.64,3.64,0,0,0,.84-1.63c0-.14,0-.27,0-.4Z"/><path class="cls-5" d="M81,106.52,80.17,102a1.44,1.44,0,0,0-.21-.55c0-.16-.07-.31-.1-.47a6.76,6.76,0,0,0-.32-2.56,16.38,16.38,0,0,0-1.08-2.13,8.89,8.89,0,0,1-.82-2.3,1.64,1.64,0,0,0-2-1.14,1.67,1.67,0,0,0-1.14,2c.09.53.17,1.06.26,1.59a1.6,1.6,0,0,0,0,.43l.09.39a1.41,1.41,0,0,0,.26.52v.06h0a9.85,9.85,0,0,0-.57,6.44c0,.24,0,.47,0,.71a1.49,1.49,0,0,0-.17.36,2.2,2.2,0,0,0,.8,2.39c.37.64.75,1.27,1.08,1.92.59,1.17,2.77,1,3-.38,0-.22.13-.51.14-.74A1.65,1.65,0,0,0,81,106.52Z"/><path class="cls-6" d="M140.8,200.51a1.53,1.53,0,0,0-.66-.78,1.61,1.61,0,0,0-1.25-.16,5.64,5.64,0,0,1-.81.2,4.29,4.29,0,0,1-.8,0l-.29,0a1.67,1.67,0,0,0-.86,0,1.61,1.61,0,0,0-.85.58.72.72,0,0,0-.2.36.82.82,0,0,0-.12.41,1,1,0,0,0,0,.43,1.23,1.23,0,0,0,.2.6,1.87,1.87,0,0,0,.7.75,2.43,2.43,0,0,0,.59.27,1,1,0,0,0,.18,0,1.08,1.08,0,0,0,.24.32,1.65,1.65,0,0,0,1.15.47h.23a1.65,1.65,0,0,0,1.15-.47,1.69,1.69,0,0,0,.38-.71l.36-.21a1.58,1.58,0,0,0,.74-1l.06-.43A1.2,1.2,0,0,0,140.8,200.51Z"/><path class="cls-7" d="M107.66,89.44a29.93,29.93,0,0,0-3.23-6,1.12,1.12,0,0,0-.17-.2A20.12,20.12,0,0,0,102.41,81a2.49,2.49,0,0,0-.28-.41,24.53,24.53,0,0,0-6.28-5,1.59,1.59,0,0,0-1.67.09,14.31,14.31,0,0,0-2.93-.65c-2.48-.28-6.23,0-8.71,1.49a1.48,1.48,0,0,0-1.23.77l-.78,1.34a1.56,1.56,0,0,0,0,1.61,9.73,9.73,0,0,0-.23,4.86,5.41,5.41,0,0,0,.34,2.52,33.49,33.49,0,0,0,1.42,3.72,17.46,17.46,0,0,0,4,5.7,8.23,8.23,0,0,0,2.51,2,15.83,15.83,0,0,0,2.92,2,18.56,18.56,0,0,0,8,2.31l.08,0c.46.16.92.33,1.39.48a1.63,1.63,0,0,0,.87-3.13c-1.41-.37-1.51-2.14-1.59-3.38a5.76,5.76,0,0,0,.35-.51l.25-.29a1.89,1.89,0,0,0,.34-.7,1.84,1.84,0,0,1,.53,0,1.7,1.7,0,0,0,1.29-2.68l.31-.44.76-1.07.13-.23.21,0a1.35,1.35,0,0,0,.55-.21l.25.15C106.38,92.05,108.2,90.73,107.66,89.44Z"/><path class="cls-7" d="M195,83.14c0-.55,0-1.09,0-1.64a6.28,6.28,0,0,0-.41-2,1.78,1.78,0,0,0-.78-1.45h0a2.13,2.13,0,0,0-.41-.38,15.15,15.15,0,0,0-3.62-1.7,1.18,1.18,0,0,0-.3-.07,9.27,9.27,0,0,0-3.49-.72,6.3,6.3,0,0,0-1.63.24,8.56,8.56,0,0,0-4.44,1.06A11.63,11.63,0,0,0,176.36,78a2.28,2.28,0,0,0-.47.46,14.1,14.1,0,0,0-3,2.53,1.39,1.39,0,0,0-.19.15,9.37,9.37,0,0,0-2,3.07,8.26,8.26,0,0,0-1,2c-.27.53-.54,1.07-.8,1.61l-.14.22,0,0a1.82,1.82,0,0,0-.31.66c-.08.18-.17.35-.26.52a1.62,1.62,0,0,0,2.32,2.13,1.35,1.35,0,0,0,.19.16,4.27,4.27,0,0,0,1.13.48,6.28,6.28,0,0,1,.29,2.46,1.63,1.63,0,0,0,1.9,1.59,1.78,1.78,0,0,1,.43.23c0,.06,0,.12,0,.18.15,1,.4,2.43-.34,3.31a2,2,0,0,0-.43,1c-1.47.66-1.14,3.17.65,3.11a15.35,15.35,0,0,0,2.26-.29,2,2,0,0,0,.72,0,22.32,22.32,0,0,0,2.25-.67,1.22,1.22,0,0,0,.42-.06l.49-.2a1.26,1.26,0,0,0,.69-.06l.38-.17h0l.06,0a21.69,21.69,0,0,0,2.55-1.28,1.38,1.38,0,0,0,.58-.24c.78-.52,1.52-1.08,2.25-1.66a1.64,1.64,0,0,0,.92-.44,21.61,21.61,0,0,0,3.08-3.4c.3-.37.6-.73.87-1.12a1.55,1.55,0,0,0,.24-.33l.12-.24c.13-.21.27-.41.39-.62a1.88,1.88,0,0,0,.18-.48,1.59,1.59,0,0,0,.36-.41A14.55,14.55,0,0,0,195,83.14Z"/></g><g id="Layer_21" data-name="Layer 21"><path class="cls-8" d="M105.88,98.59a.55.55,0,0,1-.35-.12,9.21,9.21,0,0,1-2.12-2.42c-1-1.62-1.09-3.2-.3-4.22s2.29-1.28,4-.79a19.78,19.78,0,0,0-1.8-5.23c-4.4-8.68-14-12.67-21.42-8.91a12.79,12.79,0,0,0-2.53,1.68.57.57,0,0,1-.93-.38.55.55,0,0,1,.19-.42,14.58,14.58,0,0,1,2.78-1.84c7.94-4,18.2.17,22.88,9.38a21.09,21.09,0,0,1,2,6.45.53.53,0,0,1-.2.5.55.55,0,0,1-.54.08c-1.64-.67-3.08-.61-3.68.14s-.36,1.78.38,3a8.1,8.1,0,0,0,1.88,2.13.55.55,0,0,1,.08.76A.56.56,0,0,1,105.88,98.59Z"/><path class="cls-8" d="M102.06,104.51c-12.39,0-22.47-9.26-22.47-20.65a19.32,19.32,0,0,1,.9-5.78s0,0,0,0c2.79-8.72,11.65-14.8,21.55-14.8,10.36,0,19.32,6.45,21.79,15.69a.53.53,0,0,1-.38.66.56.56,0,0,1-.67-.38c-2.34-8.77-10.87-14.89-20.74-14.89-9.42,0-17.84,5.76-20.51,14a.43.43,0,0,0,0,.05,17.8,17.8,0,0,0-.87,5.49c0,10.79,9.6,19.57,21.39,19.57h.54a.51.51,0,0,1,.57.51.54.54,0,0,1-.51.57Z"/><path class="cls-8" d="M173.39,104.51a.54.54,0,0,1-.54-.54.53.53,0,0,1,.53-.54c11.8,0,21.38-8.78,21.38-19.57a17.74,17.74,0,0,0-.87-5.51c-2.64-8.27-11.07-14-20.5-14C161.6,64.31,152,73.08,152,83.86c0,.23,0,.46,0,.69a.54.54,0,0,1-.49.59.57.57,0,0,1-.59-.49c0-.27,0-.52,0-.79,0-11.38,10.08-20.63,22.46-20.63,9.9,0,18.75,6.08,21.53,14.79a18.93,18.93,0,0,1,.93,5.84C195.85,95.25,185.77,104.51,173.39,104.51Z"/><path class="cls-8" d="M169.91,98.31a.52.52,0,0,1-.4-.18.54.54,0,0,1,0-.77,8.29,8.29,0,0,0,1.55-1.86c.74-1.23.88-2.35.37-3s-2-.81-3.66-.14a.56.56,0,0,1-.54-.08.53.53,0,0,1-.2-.5,21.09,21.09,0,0,1,2.05-6.45,20.23,20.23,0,0,1,10.17-9.65,15,15,0,0,1,12.71.27,13.92,13.92,0,0,1,2.76,1.83.55.55,0,0,1,.06.76.53.53,0,0,1-.76.06,13.12,13.12,0,0,0-2.55-1.69,13.92,13.92,0,0,0-11.8-.23,19.1,19.1,0,0,0-9.62,9.14,19.78,19.78,0,0,0-1.8,5.23c1.75-.49,3.25-.22,4,.79s.68,2.6-.3,4.22a9.27,9.27,0,0,1-1.76,2.12A.54.54,0,0,1,169.91,98.31Z"/><path class="cls-8" d="M138,166.19c-.95,0-1.84,0-2.68,0s-1.51,0-2.18-.09a.54.54,0,0,1-.52-.56.51.51,0,0,1,.57-.52c.67,0,1.39.07,2.16.09,1.63,0,3.59,0,5.21,0l2.11-.08a.52.52,0,0,1,.57.52.54.54,0,0,1-.52.56c-.65,0-1.37.06-2.13.08S138.91,166.19,138,166.19Z"/><path class="cls-8" d="M118.62,163.1a.43.43,0,0,1-.19,0q-1.05-.39-2.1-.84a61.52,61.52,0,0,1-7.1-3.56c-6-3.53-13.71-9.6-15.94-18.48-1.23-4.89.4-10.26,3.66-21,1.39-4.57,2.45-8,3.49-11,.58-1.71,1.14-3.17,1.69-4.46.19-.44.37-.87.57-1.29-2.29-2.11-3.14-4.75-2-6.25a3.26,3.26,0,0,1,3.23-1,.55.55,0,0,1,.45.62.56.56,0,0,1-.62.45,2.36,2.36,0,0,0-2.2.55c-.84,1.07.12,3.33,2.13,5a.55.55,0,0,1,.13.65c-.26.51-.49,1-.72,1.6-.55,1.27-1.09,2.7-1.67,4.4-1,3-2.09,6.42-3.47,11-3.2,10.51-4.81,15.79-3.65,20.39,2.13,8.51,9.57,14.38,15.43,17.81a61.6,61.6,0,0,0,6.92,3.47c.75.31,1.43.59,2.12.85a.54.54,0,0,1-.19,1Z"/><path class="cls-8" d="M157.28,163.13a.53.53,0,0,1-.5-.35.54.54,0,0,1,.31-.7c.71-.26,1.42-.54,2.14-.85l.18-.08a63.57,63.57,0,0,0,6.73-3.37c5.89-3.43,13.36-9.31,15.51-17.86,1.17-4.59-.44-9.85-3.63-20.33l-.26-.84c-1.15-3.78-2.14-7-3.09-9.82-.62-1.78-1.2-3.33-1.79-4.76-.29-.68-.58-1.33-.89-2a.55.55,0,0,1,.11-.64c1.76-1.66,2.53-3.73,1.76-4.72a2.27,2.27,0,0,0-2.21-.55.54.54,0,1,1-.17-1.07,3.27,3.27,0,0,1,3.24,1c1.09,1.41.42,3.84-1.59,5.89.25.53.5,1.08.75,1.66.6,1.45,1.19,3,1.81,4.83,1,2.8,1.95,6.07,3.11,9.85l.24.79c3.27,10.73,4.9,16.09,3.66,21-2.24,8.92-9.94,15-16,18.54a63.22,63.22,0,0,1-6.85,3.42l-.18.08c-.73.32-1.46.6-2.19.88A.63.63,0,0,1,157.28,163.13Z"/><path class="cls-8" d="M115.83,170.39a.55.55,0,0,1-.3-.09.54.54,0,1,1,.76-.16h0A.52.52,0,0,1,115.83,170.39Z"/><ellipse class="cls-6" cx="119.73" cy="186.65" rx="4.01" ry="9.87" transform="translate(-81.57 93.65) rotate(-32.52)"/><path class="cls-8" d="M124.05,195.77c-2.27,0-5.56-2.6-8.16-6.68a19.64,19.64,0,0,1-2.83-6.7c-.41-2.21,0-3.82,1.07-4.52s2.72-.37,4.55.93a19.5,19.5,0,0,1,4.88,5.4h0c3.19,5,4,9.83,1.76,11.22A2.29,2.29,0,0,1,124.05,195.77Zm-8.6-17.18a1.39,1.39,0,0,0-.74.2c-.69.44-.91,1.68-.59,3.4a18.38,18.38,0,0,0,2.69,6.32c3,4.64,6.55,6.89,7.93,6s.87-5.09-2.09-9.73a18.66,18.66,0,0,0-4.6-5.1A4.9,4.9,0,0,0,115.45,178.59Z"/><path class="cls-8" d="M118.07,183.9a.54.54,0,0,1-.43-.21c-.13-.17-.26-.36-.38-.55a7.26,7.26,0,0,1-1.22-4.95.54.54,0,1,1,1.07.17,6.27,6.27,0,0,0,1.06,4.2l.33.47a.54.54,0,0,1-.1.76A.57.57,0,0,1,118.07,183.9Z"/><path class="cls-8" d="M116.24,185.07a.51.51,0,0,1-.42-.21,5.44,5.44,0,0,1-.39-.55c-1.46-2.29-1.71-4.92-.61-6.55a.53.53,0,0,1,.75-.15.54.54,0,0,1,.15.75c-.85,1.26-.59,3.47.62,5.37a3.83,3.83,0,0,0,.33.46.54.54,0,0,1-.1.76A.5.5,0,0,1,116.24,185.07Z"/><path class="cls-8" d="M137.94,170.38a3.13,3.13,0,0,1-1.54-.44,3.69,3.69,0,0,1-.41-.3,4,4,0,0,1-1.17-4.19.56.56,0,0,1,.68-.35.54.54,0,0,1,.35.68,3,3,0,0,0-.13.76,2.86,2.86,0,0,0,.95,2.26,2.49,2.49,0,0,0,.29.21,2,2,0,0,0,1.94,0,2.88,2.88,0,0,0,1.24-2.49,2.93,2.93,0,0,0-.09-.76.54.54,0,0,1,.39-.66.53.53,0,0,1,.66.38,4.18,4.18,0,0,1,.12,1,4,4,0,0,1-1.74,3.41A2.87,2.87,0,0,1,137.94,170.38Z"/><path class="cls-8" d="M131.15,172.41a.54.54,0,0,1-.54-.53.55.55,0,0,1,.53-.55,7.18,7.18,0,0,0,5.15-2.23.54.54,0,1,1,.78.75,8.26,8.26,0,0,1-3,2,8.12,8.12,0,0,1-2.9.55Z"/><path class="cls-8" d="M114.85,169.66a8.65,8.65,0,0,1-6.94-3.17,5,5,0,0,1-.73-1.34c-.8-2.19-.05-5.06,1.91-7.31a.54.54,0,0,1,.82.71c-1.68,1.93-2.37,4.43-1.71,6.24a4.23,4.23,0,0,0,.58,1.06,7.79,7.79,0,0,0,7.08,2.67.54.54,0,0,1,.13,1.08A10.88,10.88,0,0,1,114.85,169.66Z"/><path class="cls-8" d="M125.8,135.75c-5.33-8.31-18.24-9.27-23.82-5.07a12.37,12.37,0,0,1,5.44,0s-2.71.48-3.58,2.22c0,0,13.69-1.64,20.89,3.57Z"/><path class="cls-8" d="M124.73,137a.51.51,0,0,1-.32-.1c-6.94-5-20.37-3.49-20.5-3.47a.52.52,0,0,1-.51-.23.54.54,0,0,1,0-.55,4.24,4.24,0,0,1,1.85-1.76,15.62,15.62,0,0,0-3.11.31.54.54,0,0,1-.61-.3.53.53,0,0,1,.17-.66c3-2.24,7.84-3.08,12.72-2.2a17.37,17.37,0,0,1,11.87,7.41.54.54,0,0,1-.15.74l-1.07.72A.55.55,0,0,1,124.73,137Zm-15.85-4.91c4.6,0,11.31.62,15.85,3.71l.32-.21a16.5,16.5,0,0,0-10.86-6.49,18.19,18.19,0,0,0-9.5.71,8.85,8.85,0,0,1,2.89.35.54.54,0,0,1,.38.55.55.55,0,0,1-.45.5,6.33,6.33,0,0,0-2.4,1C106,132.17,107.32,132.1,108.88,132.1Z"/><polygon class="cls-6" points="135.72 140.47 132.16 138.11 138.58 137.24 135.72 140.47"/><path class="cls-8" d="M135.72,141a.52.52,0,0,1-.29-.09l-3.57-2.36a.55.55,0,0,1,.23-1l6.41-.86a.54.54,0,0,1,.48.89l-2.85,3.23A.55.55,0,0,1,135.72,141Zm-2.06-2.56,2,1.31,1.58-1.79Z"/><path class="cls-8" d="M140.68,148.83a6.27,6.27,0,0,1-5.11-3.39,4.14,4.14,0,0,1-4,2.89c-3.06,0-5.55-2-5.55-4.45a3.85,3.85,0,0,1,.52-1.89.54.54,0,0,1,.94.53,2.73,2.73,0,0,0-.37,1.36c0,1.86,2,3.37,4.46,3.37,1.45,0,3.07-.95,3.25-3.59a.54.54,0,0,1,.47-.5.53.53,0,0,1,.58.36c.85,2.49,2.83,4.22,4.8,4.22,2.7,0,4.89-1.76,4.89-3.92a3.54,3.54,0,0,0-1.48-2.81.55.55,0,0,1-.09-.76.53.53,0,0,1,.76-.09,4.62,4.62,0,0,1,1.9,3.66C146.66,146.58,144,148.83,140.68,148.83Z"/><path class="cls-8" d="M100.74,140.39a.53.53,0,0,1-.24-.06c-9.49-4.74-13.86-2.63-13.9-2.61a.54.54,0,0,1-.73-.23.56.56,0,0,1,.23-.73c.19-.1,4.82-2.43,14.88,2.6a.54.54,0,0,1,.24.73A.53.53,0,0,1,100.74,140.39Z"/><path class="cls-8" d="M100.74,145.72a.44.44,0,0,1-.22-.05,10.37,10.37,0,0,0-7.74,0,.54.54,0,1,1-.45-1,11.22,11.22,0,0,1,8.63,0,.53.53,0,0,1,.27.72A.54.54,0,0,1,100.74,145.72Z"/><path class="cls-8" d="M94.49,130.23l-.14,0h0c-3.4-.75-5.36-5-4.38-9.48s4.54-7.51,8-6.77a5.14,5.14,0,0,1,1.21.46.54.54,0,1,1-.52,1,3.44,3.44,0,0,0-.93-.35c-2.8-.61-5.8,2-6.65,5.94s.74,7.57,3.55,8.2h0a.54.54,0,0,1-.09,1.08Z"/><path class="cls-8" d="M85.27,122a3.46,3.46,0,0,1-.78-.09,4.46,4.46,0,0,1-3-5.48,5,5,0,0,1,1.87-3,3.88,3.88,0,0,1,3.19-.74,4.46,4.46,0,0,1,3,5.48h0A4.6,4.6,0,0,1,85.27,122Zm.44-8.29a2.9,2.9,0,0,0-1.74.61,4,4,0,0,0-1.46,2.34,3.1,3.1,0,1,0,6,1.31h0a3.39,3.39,0,0,0-2.21-4.2A2.6,2.6,0,0,0,85.71,113.71Zm3.3,4.38h0Z"/><path class="cls-8" d="M78.64,111.51h-.11a8.66,8.66,0,0,0-1.66-.17,15.64,15.64,0,0,0-2.07.14.53.53,0,0,1-.61-.46.54.54,0,0,1,.46-.61,16.27,16.27,0,0,1,2.23-.15,10.08,10.08,0,0,1,1.87.19.54.54,0,0,1-.11,1.07Z"/><path class="cls-8" d="M77,120.12a4,4,0,0,1-.68-.06.54.54,0,1,1,.19-1.07,2.3,2.3,0,0,0,1.24-.09A2.57,2.57,0,0,0,79,117.4a8.23,8.23,0,0,0,.24-5.31.53.53,0,0,1,.28-.71.54.54,0,0,1,.71.28,9.16,9.16,0,0,1-.23,6.15,3.57,3.57,0,0,1-1.83,2.1A3.09,3.09,0,0,1,77,120.12Z"/><path class="cls-8" d="M85.53,110.36a13.69,13.69,0,0,1-3-.3.54.54,0,0,1-.4-.65.53.53,0,0,1,.65-.4c2.34.55,6.39.31,7-1,.41-1-.27-2.75-1.65-4.29s-3.16-2.42-4.29-2.09c-1.59.47-2.66,4.37-2.14,6.47a.53.53,0,0,1-.39.65.54.54,0,0,1-.66-.39c-.61-2.42.49-7.06,2.89-7.77,1.87-.55,4,.88,5.39,2.41s2.55,3.71,1.85,5.42C90.12,109.91,87.7,110.36,85.53,110.36Z"/><path class="cls-8" d="M80.55,112.56h-.07A2.63,2.63,0,0,1,78,110.65h0a2.5,2.5,0,0,1,.92-2.2,2.88,2.88,0,0,1,2.59-.75,2.55,2.55,0,0,1,1.84,2.52A2.69,2.69,0,0,1,80.55,112.56Zm.31-3.86a2,2,0,0,0-1.26.55,1.46,1.46,0,0,0-.58,1.22h0a1.56,1.56,0,0,0,1.49,1,1.61,1.61,0,0,0,1.72-1.33,1.48,1.48,0,0,0-1-1.4A1.13,1.13,0,0,0,80.86,108.7Z"/><path class="cls-8" d="M76.88,111.33a.55.55,0,0,1-.47-.26A18,18,0,0,0,74,107.91a.54.54,0,0,1,0-.76.55.55,0,0,1,.77,0,18.82,18.82,0,0,1,2.56,3.35.56.56,0,0,1-.18.75A.58.58,0,0,1,76.88,111.33Z"/><path class="cls-8" d="M76.38,101a.48.48,0,0,1-.34-.15l-.21-.23a1.1,1.1,0,0,0-.11-.14A18.81,18.81,0,0,0,74,98.84a.54.54,0,1,1,.69-.83,18,18,0,0,1,1.76,1.66c.11.12.2.23.26.31l0,0a.58.58,0,0,1,0,.78A.59.59,0,0,1,76.38,101Z"/><path class="cls-8" d="M76.46,101a.55.55,0,0,1-.38-.15l0-.06-.16-.18a2.08,2.08,0,0,1-.21-.25A11,11,0,0,1,74,97.14a.54.54,0,0,1,1-.35,10,10,0,0,0,1.49,2.91,1.47,1.47,0,0,0,.17.2l.1.12.08.08a.55.55,0,0,1,0,.77A.54.54,0,0,1,76.46,101Z"/><path class="cls-8" d="M81.07,106.26a.54.54,0,0,1-.53-.46c-1.17-7.45-2.77-11.19-5.72-13.34a.54.54,0,0,1,.63-.88c3.21,2.35,4.94,6.29,6.16,14.06a.53.53,0,0,1-.45.61Z"/><path class="cls-8" d="M160,170.39a.52.52,0,0,1-.45-.24h0a.54.54,0,0,1,.15-.75.55.55,0,0,1,.75.15.54.54,0,0,1-.45.85Z"/><ellipse class="cls-6" cx="156.14" cy="186.65" rx="9.87" ry="4.01" transform="translate(-85.19 217.94) rotate(-57.48)"/><path class="cls-8" d="M151.81,195.77a2.29,2.29,0,0,1-1.27-.35c-2.19-1.39-1.43-6.22,1.76-11.22h0a19.66,19.66,0,0,1,4.88-5.4c1.84-1.3,3.45-1.63,4.55-.93s1.48,2.31,1.08,4.52a19.68,19.68,0,0,1-2.84,6.7C157.37,193.17,154.09,195.77,151.81,195.77Zm1.4-11c-3,4.64-3.47,8.85-2.09,9.73s5-1.36,7.94-6a18.54,18.54,0,0,0,2.68-6.32c.32-1.72.1-3-.59-3.4s-1.91-.12-3.34.89a18.82,18.82,0,0,0-4.6,5.1Z"/><path class="cls-8" d="M157.79,183.9a.59.59,0,0,1-.33-.11.54.54,0,0,1-.1-.76,5,5,0,0,0,.33-.47,6.27,6.27,0,0,0,1.06-4.2.54.54,0,1,1,1.07-.17,7.31,7.31,0,0,1-1.21,4.95c-.13.19-.26.38-.39.55A.54.54,0,0,1,157.79,183.9Z"/><path class="cls-8" d="M159.62,185.07a.54.54,0,0,1-.33-.12.53.53,0,0,1-.09-.76,5.33,5.33,0,0,0,.32-.46c1.22-1.9,1.47-4.11.63-5.37a.54.54,0,0,1,.9-.6c1.09,1.63.85,4.26-.61,6.55-.12.19-.26.38-.39.55A.54.54,0,0,1,159.62,185.07Z"/><path class="cls-8" d="M144.71,172.41a8.18,8.18,0,0,1-2.91-.55,8,8,0,0,1-3-2,.54.54,0,0,1,.78-.74,7.18,7.18,0,0,0,5.13,2.23.54.54,0,0,1,.53.55A.53.53,0,0,1,144.71,172.41Z"/><path class="cls-8" d="M136.28,200.56a32.3,32.3,0,0,1-14.55-2.91c-3.92-1.77-12.09-5.45-15.18-14.34-2.51-7.22-.26-14,1.3-17.37a.55.55,0,0,1,.72-.26.54.54,0,0,1,.26.72c-1.49,3.23-3.64,9.69-1.25,16.56,2.93,8.45,10.81,12,14.6,13.71,6.37,2.87,11,2.84,15.52,2.81l1.58,0c4.34-.12,8.83-.25,14.4-2.76,4.08-1.84,11.68-5.27,14.6-13.71,2.39-6.87.24-13.33-1.25-16.56a.54.54,0,0,1,.26-.72.55.55,0,0,1,.72.26c1.56,3.39,3.81,10.15,1.3,17.37-3.08,8.88-11.25,12.57-15.18,14.34-5.78,2.61-10.58,2.74-14.82,2.86l-1.58.05Z"/><path class="cls-8" d="M161,169.66a10.51,10.51,0,0,1-1.12-.06.54.54,0,0,1,.12-1.08,7.77,7.77,0,0,0,7.08-2.67,4.41,4.41,0,0,0,.58-1.06c.65-1.82,0-4.25-1.66-6.19a.54.54,0,0,1,.83-.7c1.91,2.23,2.63,5.08,1.85,7.25a5.31,5.31,0,0,1-.73,1.34A8.61,8.61,0,0,1,161,169.66Z"/><path class="cls-8" d="M181.51,130.23a.54.54,0,0,1-.09-1.08h0c2.81-.63,4.41-4.31,3.55-8.2s-3.83-6.55-6.66-5.94a3.51,3.51,0,0,0-.92.35.54.54,0,1,1-.52-1,4.72,4.72,0,0,1,1.21-.45c3.41-.75,7,2.29,7.95,6.76s-1,8.73-4.38,9.48h0Z"/><path class="cls-8" d="M190.73,122a4.6,4.6,0,0,1-4.27-3.8h0a4.46,4.46,0,0,1,3-5.48,3.88,3.88,0,0,1,3.19.74,5,5,0,0,1,1.87,3,4.46,4.46,0,0,1-3,5.48A3.46,3.46,0,0,1,190.73,122Zm-3.21-4a3.1,3.1,0,1,0,6-1.31,4,4,0,0,0-1.46-2.34,2.83,2.83,0,0,0-2.3-.55,3.39,3.39,0,0,0-2.21,4.2Z"/><path class="cls-8" d="M197.36,111.51a.54.54,0,0,1-.11-1.07,10.05,10.05,0,0,1,1.86-.19h0c.57,0,1.12,0,1.64.08a.54.54,0,0,1-.11,1.08,14.74,14.74,0,0,0-1.53-.08,8.64,8.64,0,0,0-1.65.17Z"/><path class="cls-8" d="M199,120.12a3.11,3.11,0,0,1-1.16-.21,3.59,3.59,0,0,1-1.82-2.1,9.16,9.16,0,0,1-.23-6.15.54.54,0,0,1,.71-.28.53.53,0,0,1,.28.71,8.23,8.23,0,0,0,.24,5.31,2.57,2.57,0,0,0,1.23,1.5,2,2,0,0,0,.75.14.54.54,0,1,1,0,1.08Z"/><path class="cls-8" d="M190.48,110.36c-2.18,0-4.6-.45-5.23-2-.7-1.71.56-4,1.85-5.42s3.51-3,5.39-2.41c2.4.71,3.5,5.35,2.89,7.77a.54.54,0,0,1-.66.39.53.53,0,0,1-.39-.65c.53-2.1-.55-6-2.14-6.47-1.14-.33-2.86.51-4.29,2.09s-2.05,3.3-1.65,4.29c.56,1.35,4.61,1.59,6.95,1a.53.53,0,0,1,.65.4.54.54,0,0,1-.4.65A13.59,13.59,0,0,1,190.48,110.36Z"/><path class="cls-8" d="M195.45,112.56a2.69,2.69,0,0,1-2.75-2.34,2.55,2.55,0,0,1,1.84-2.52,2.85,2.85,0,0,1,2.59.75,2.5,2.5,0,0,1,.92,2.2,2.63,2.63,0,0,1-2.53,1.91Zm-.31-3.86a1.13,1.13,0,0,0-.32,0,1.47,1.47,0,0,0-1,1.4,1.63,1.63,0,0,0,1.71,1.33,1.56,1.56,0,0,0,1.49-1h0a1.46,1.46,0,0,0-.58-1.22A2,2,0,0,0,195.14,108.7Z"/><path class="cls-8" d="M199.12,111.33a.58.58,0,0,1-.28-.07.56.56,0,0,1-.18-.75,19.58,19.58,0,0,1,1.91-2.63.54.54,0,1,1,.82.7,18.09,18.09,0,0,0-1.8,2.49A.55.55,0,0,1,199.12,111.33Z"/><path class="cls-8" d="M199.58,101a.54.54,0,0,1-.43-.21.55.55,0,0,1,.09-.76c.09-.11.18-.22.28-.32a13.83,13.83,0,0,1,1.21-1.19.54.54,0,0,1,.71.82,12.69,12.69,0,0,0-1.1,1.08,1,1,0,0,0-.17.19,1.33,1.33,0,0,1-.26.27A.54.54,0,0,1,199.58,101Z"/><path class="cls-8" d="M199.53,101a.57.57,0,0,1-.38-.15.55.55,0,0,1,0-.75l.11-.12a1.09,1.09,0,0,0,.1-.11.61.61,0,0,0,.12-.15l.09-.09a8.59,8.59,0,0,0,1-1.73.55.55,0,0,1,.72-.28.54.54,0,0,1,.27.71,9,9,0,0,1-1.17,2l-.07.08a1.42,1.42,0,0,1-.19.22,1,1,0,0,1-.13.15l-.05.06A.58.58,0,0,1,199.53,101Zm-.05-.59.05,0Z"/><path class="cls-8" d="M194.93,106.26h-.09a.53.53,0,0,1-.45-.61c1.14-7.3,2.77-11.25,5.62-13.62a.54.54,0,0,1,.69.83c-2.63,2.19-4.15,5.94-5.24,13A.54.54,0,0,1,194.93,106.26Z"/><path class="cls-8" d="M137.92,204.58c-1.39,0-2.95-2.2-3.77-4.38a.54.54,0,0,1,.32-.7.53.53,0,0,1,.69.32c.91,2.42,2.28,3.68,2.76,3.68.8,0,2.1-1.41,2.89-3.77a.53.53,0,0,1,.68-.34.54.54,0,0,1,.35.68C141.08,202.32,139.58,204.58,137.92,204.58Z"/><path class="cls-8" d="M151.75,135.75c5.34-8.31,18.24-9.27,23.82-5.07a12.33,12.33,0,0,0-5.43,0s2.7.48,3.57,2.22c0,0-13.69-1.64-20.88,3.57Z"/><path class="cls-8" d="M152.83,137a.53.53,0,0,1-.3-.09l-1.08-.72a.54.54,0,0,1-.15-.74A17.4,17.4,0,0,1,163.17,128c4.88-.87,9.76,0,12.73,2.21a.54.54,0,0,1-.45,1,14.76,14.76,0,0,0-3.1-.31,4.29,4.29,0,0,1,1.85,1.76.54.54,0,0,1,0,.55.51.51,0,0,1-.5.23c-.14,0-13.56-1.56-20.51,3.47A.5.5,0,0,1,152.83,137Zm-.32-1.41.31.21c6.07-4.14,16-3.84,19.63-3.57a6.41,6.41,0,0,0-2.41-1,.54.54,0,0,1-.44-.5.53.53,0,0,1,.37-.55,8.85,8.85,0,0,1,2.89-.35,18.29,18.29,0,0,0-9.5-.71A16.48,16.48,0,0,0,152.51,135.6Z"/><path class="cls-8" d="M133.89,111.4a.54.54,0,0,1,0-1.08c2.66-.24,4.81-1.69,4.69-3.16a2,2,0,0,0-1-1.5,6.21,6.21,0,0,1-4,1.36,6.4,6.4,0,0,1-2.81-.61.54.54,0,1,1,.47-1,5.47,5.47,0,0,0,2.34.49,4.91,4.91,0,0,0,3.54-1.32.53.53,0,0,1,.65-.1,3.29,3.29,0,0,1,1.93,2.57c.16,2.12-2.33,4-5.67,4.32Z"/><path class="cls-5" d="M156.65,90.51c-.35,1.6-2.09,2.7-4.49,3.08a4.53,4.53,0,0,1,2.6,3.78c0,2.85-3.62,5.16-8.09,5.16a12.44,12.44,0,0,1-2.85-.33,6.37,6.37,0,0,1,.85,3.17,6.78,6.78,0,0,1-6.9,6.65,7.11,7.11,0,0,1-3.88-1.16c3-.27,5.32-1.93,5.18-3.75a2.78,2.78,0,0,0-1.64-2.13,5.5,5.5,0,0,1-3.94,1.5,5.93,5.93,0,0,1-2.58-.56,4.2,4.2,0,0,1-1.12-.71,3.1,3.1,0,0,1-.89-1.27,4.75,4.75,0,0,1-.54,0c-3.26,0-5.91-2.2-5.91-4.91a4,4,0,0,1,.38-1.72,6.35,6.35,0,0,1-1.54-12.41,4.63,4.63,0,0,1-.39-1.81,4.81,4.81,0,0,1,2.43-4.06,6.23,6.23,0,0,1,7.34.65,8.41,8.41,0,0,1,2.89-2.24c2.23-1.11,5.45-.8,6.53.12a7.77,7.77,0,0,1,1.89-.22c4.07-.06,7.36,1.81,7.36,4a2.94,2.94,0,0,1-1.24,2.25l1,.18a15.82,15.82,0,0,1,2.44.75C154.93,86,157.12,88.35,156.65,90.51Z"/><path class="cls-8" d="M137.77,112.56a7.64,7.64,0,0,1-4.18-1.25.55.55,0,0,1-.23-.58.54.54,0,0,1,.48-.41c2.66-.24,4.81-1.69,4.69-3.16a2,2,0,0,0-1-1.5,6.21,6.21,0,0,1-4,1.36,6.4,6.4,0,0,1-2.81-.61,4.39,4.39,0,0,1-1.25-.8,3.82,3.82,0,0,1-.88-1.11h-.19c-3.56,0-6.45-2.44-6.45-5.45a4.71,4.71,0,0,1,.17-1.25,6.9,6.9,0,0,1-1.49-13.2,5.09,5.09,0,0,1-.23-1.49,5.33,5.33,0,0,1,2.69-4.52,7,7,0,0,1,7.56.35,9.34,9.34,0,0,1,2.71-2c2.28-1.12,5.48-.9,6.89,0a8.82,8.82,0,0,1,1.76-.17c2.76,0,5.38.8,6.8,2.19a3.38,3.38,0,0,1,1.11,2.4,3.13,3.13,0,0,1-.69,1.91,15.62,15.62,0,0,1,2.5.77c3.8,1.5,6,4.12,5.49,6.52h0c-.33,1.48-1.68,2.64-3.7,3.23a4.64,4.64,0,0,1,1.82,3.52c0,3.19-3.79,5.7-8.63,5.7a13.53,13.53,0,0,1-1.91-.14,7,7,0,0,1,.45,2.44A7.33,7.33,0,0,1,137.77,112.56Zm-2.17-1.46a6.39,6.39,0,0,0,2.17.37,6.23,6.23,0,0,0,6.35-6.1,5.77,5.77,0,0,0-.77-2.9.55.55,0,0,1,0-.59.53.53,0,0,1,.55-.2,12.56,12.56,0,0,0,2.73.31c4.16,0,7.55-2.08,7.55-4.62a4,4,0,0,0-2.33-3.31.55.55,0,0,1-.26-.57.53.53,0,0,1,.45-.43c2.24-.36,3.75-1.36,4-2.67.39-1.83-1.6-4-4.84-5.29a14.44,14.44,0,0,0-2.35-.72c-.3-.07-.59-.12-.86-.17a.57.57,0,0,1-.47-.4.53.53,0,0,1,.14-.56,2.49,2.49,0,0,0,1.05-1.83A2.35,2.35,0,0,0,148,79.8c-1.22-1.21-3.51-1.92-6-1.89a7.49,7.49,0,0,0-1.76.2.56.56,0,0,1-.49-.11c-.87-.74-3.82-1.1-5.94,0A7.9,7.9,0,0,0,131.11,80a.58.58,0,0,1-.39.22.53.53,0,0,1-.41-.15,5.87,5.87,0,0,0-6.7-.58,4.24,4.24,0,0,0-2.16,3.6,3.93,3.93,0,0,0,.34,1.6.56.56,0,0,1,0,.44.54.54,0,0,1-.34.29,5.81,5.81,0,0,0,1.41,11.35.52.52,0,0,1,.43.27.5.5,0,0,1,0,.5,3.48,3.48,0,0,0-.33,1.49c0,2.41,2.41,4.37,5.37,4.37.17,0,.34,0,.5,0a.55.55,0,0,1,.55.37,2.61,2.61,0,0,0,.74,1,3.65,3.65,0,0,0,1,.62,5.48,5.48,0,0,0,2.36.5,4.91,4.91,0,0,0,3.54-1.32.53.53,0,0,1,.65-.1,3.29,3.29,0,0,1,1.93,2.57C139.75,108.83,138.07,110.43,135.6,111.1Zm21.05-20.59h0Z"/><path class="cls-8" d="M136.77,79.8a.54.54,0,0,1-.25-.06.53.53,0,0,1-.23-.73c.39-.75,1.72-1.46,3.67-2a.54.54,0,0,1,.26,1c-1.89.48-2.82,1.1-3,1.4A.54.54,0,0,1,136.77,79.8Z"/><path class="cls-8" d="M133.89,111.4a.54.54,0,0,1,0-1.08c2.66-.24,4.81-1.69,4.69-3.16a2,2,0,0,0-1-1.5,6.21,6.21,0,0,1-4,1.36,6.4,6.4,0,0,1-2.81-.61,4.39,4.39,0,0,1-1.25-.8.54.54,0,1,1,.72-.8,3.65,3.65,0,0,0,1,.62,5.48,5.48,0,0,0,2.36.5,4.91,4.91,0,0,0,3.54-1.32.53.53,0,0,1,.65-.1,3.29,3.29,0,0,1,1.93,2.57c.16,2.12-2.33,4-5.67,4.32Z"/><path class="cls-8" d="M175.08,140.39a.54.54,0,0,1-.25-1c10.07-5,14.25-2.77,14.42-2.67a.54.54,0,0,1-.53.94s-3.94-2-13.4,2.7A.53.53,0,0,1,175.08,140.39Z"/><path class="cls-8" d="M175.08,145.72a.57.57,0,0,1-.5-.31.55.55,0,0,1,.27-.72,10.41,10.41,0,0,1,8.18-.18.54.54,0,0,1-.45,1,9.42,9.42,0,0,0-7.28.17A.44.44,0,0,1,175.08,145.72Z"/></g><g id="Layer_22" data-name="Layer 22"><path class="cls-9" d="M201.21,102.83a63.5,63.5,0,0,1-124.77,16.7,64.16,64.16,0,0,1-1.72-8.6q-.21-1.68-.33-3.39c-.12-1.55-.17-3.13-.17-4.71s0-3,.15-4.4c0-.49.07-1,.12-1.46.15-1.67.36-3.32.65-5a63.5,63.5,0,0,1,126.07,10.81Z"/><path class="cls-10" d="M137.71,166.86a64.11,64.11,0,0,1-61.79-47.19A63,63,0,0,1,74.19,111c-.14-1.08-.25-2.2-.34-3.42-.12-1.51-.18-3.11-.18-4.75,0-1.43.06-2.93.16-4.44q0-.73.12-1.47c.15-1.67.37-3.34.65-5a64,64,0,1,1,63.11,74.93Zm0-127a62.77,62.77,0,0,0-62,52.24c-.28,1.62-.5,3.27-.65,4.9,0,.49-.08,1-.11,1.45-.1,1.49-.15,3-.15,4.37,0,1.61,0,3.18.17,4.67.09,1.2.2,2.3.33,3.37a63,63,0,1,0,62.45-71Z"/></g><g id="Layer_24" data-name="Layer 24"><path class="cls-11" d="M229.1,100.43a90,90,0,0,1-5.27,31.46l-20-7a69.79,69.79,0,0,0,4.07-24.2Z"/><path class="cls-12" d="M223.83,132.43a.38.38,0,0,1-.18,0l-20-7a.6.6,0,0,1-.31-.28.58.58,0,0,1,0-.41,69.19,69.19,0,0,0,4-24,.54.54,0,0,1,.53-.55l21.24-.23h0a.54.54,0,0,1,.54.53,90.35,90.35,0,0,1-5.3,31.66A.53.53,0,0,1,223.83,132.43Zm-19.34-7.9,19,6.67A89.38,89.38,0,0,0,228.57,101l-20.16.22A70,70,0,0,1,204.49,124.53Z"/><path class="cls-11" d="M223.21,69,203.33,76.5a69.8,69.8,0,0,0-12.56-21.07l16.12-13.82A90.47,90.47,0,0,1,223.21,69Z"/><path class="cls-12" d="M203.33,77a.53.53,0,0,1-.5-.35,69.37,69.37,0,0,0-12.46-20.91.52.52,0,0,1-.14-.39.56.56,0,0,1,.19-.37L206.54,41.2a.54.54,0,0,1,.76.06,90.94,90.94,0,0,1,16.42,27.57.55.55,0,0,1-.32.7L203.52,77A.58.58,0,0,1,203.33,77ZM191.54,55.49a70.26,70.26,0,0,1,12.11,20.32l18.86-7.1a89.62,89.62,0,0,0-15.68-26.34Z"/><path class="cls-11" d="M120.29,11.62l3.92,20.87a70.11,70.11,0,0,0-22.71,8.76L90.67,23A91.45,91.45,0,0,1,120.29,11.62Z"/><path class="cls-12" d="M101.5,41.79l-.13,0a.49.49,0,0,1-.33-.25L90.2,23.25a.55.55,0,0,1,.19-.74,91.86,91.86,0,0,1,29.8-11.42.52.52,0,0,1,.4.09.5.5,0,0,1,.23.34l3.92,20.87a.55.55,0,0,1-.43.64,69.2,69.2,0,0,0-22.53,8.68A.54.54,0,0,1,101.5,41.79ZM91.41,23.16,101.69,40.5a70.56,70.56,0,0,1,21.89-8.43l-3.72-19.81A90.54,90.54,0,0,0,91.41,23.16Z"/><path class="cls-11" d="M208.06,159.64a91.33,91.33,0,0,1-24.26,20.62L173,162a69.83,69.83,0,0,0,18.66-15.79Z"/><path class="cls-12" d="M183.8,180.8a.55.55,0,0,1-.47-.27l-10.81-18.28a.49.49,0,0,1-.06-.41.56.56,0,0,1,.25-.33,69.58,69.58,0,0,0,18.52-15.68.54.54,0,0,1,.76-.07l16.42,13.46a.52.52,0,0,1,.19.37.51.51,0,0,1-.12.39,91.2,91.2,0,0,1-24.41,20.74A.53.53,0,0,1,183.8,180.8Zm-10.07-18.63L184,179.52a90.26,90.26,0,0,0,23.31-19.81l-15.59-12.78A70.56,70.56,0,0,1,173.73,162.17Z"/><path class="cls-11" d="M83.21,57.19A70.21,70.21,0,0,0,71.44,78.33l-20-7A91.82,91.82,0,0,1,66.79,43.73Z"/><path class="cls-12" d="M71.44,78.88a.58.58,0,0,1-.18,0l-20-7a.54.54,0,0,1-.33-.69A92.18,92.18,0,0,1,66.37,43.38a.52.52,0,0,1,.37-.19.51.51,0,0,1,.39.12L83.56,56.77a.55.55,0,0,1,.07.76A69.68,69.68,0,0,0,72,78.51a.54.54,0,0,1-.28.31A.46.46,0,0,1,71.44,78.88ZM52.09,71l19,6.69A70.61,70.61,0,0,1,82.45,57.26L66.87,44.49A90.83,90.83,0,0,0,52.09,71Z"/><path class="cls-11" d="M68.78,114.26A69.22,69.22,0,0,0,72,125.94l-19.9,7.49a93.36,93.36,0,0,1-5.82-31l21.26-.24A69.15,69.15,0,0,0,68.78,114.26Z"/><path class="cls-12" d="M52.14,134a.64.64,0,0,1-.23-.05.55.55,0,0,1-.28-.3,93.3,93.3,0,0,1-5.85-31.19.54.54,0,0,1,.15-.38.61.61,0,0,1,.39-.17l21.25-.23a.58.58,0,0,1,.38.15.52.52,0,0,1,.17.38,69.74,69.74,0,0,0,4.42,23.57.55.55,0,0,1,0,.42.54.54,0,0,1-.31.28l-19.89,7.48A.43.43,0,0,1,52.14,134Zm-5.27-31a93.41,93.41,0,0,0,1.57,15.12,92.39,92.39,0,0,0,4,14.65l18.88-7.1a71.63,71.63,0,0,1-3.1-11.27h0A71.69,71.69,0,0,1,67,102.73Z"/><path class="cls-11" d="M182.14,21.49,171.73,40A69.79,69.79,0,0,0,148.6,32l3.45-21A90.31,90.31,0,0,1,182.14,21.49Z"/><path class="cls-12" d="M171.73,40.52a.58.58,0,0,1-.26-.06,69,69,0,0,0-23-7.9.53.53,0,0,1-.35-.21.55.55,0,0,1-.1-.41l3.46-21a.54.54,0,0,1,.61-.44A90.34,90.34,0,0,1,182.4,21a.55.55,0,0,1,.26.32.56.56,0,0,1,0,.42l-10.4,18.49A.54.54,0,0,1,171.73,40.52Zm-22.51-8.94a70,70,0,0,1,22.31,7.67L181.4,21.7a89.27,89.27,0,0,0-28.9-10Z"/><path class="cls-11" d="M102.92,162.22l-10.4,18.51a91.47,91.47,0,0,1-24.35-20.12l16.11-13.84A70.36,70.36,0,0,0,102.92,162.22Z"/><path class="cls-12" d="M92.52,181.27a.6.6,0,0,1-.27-.07A91.85,91.85,0,0,1,67.76,161a.54.54,0,0,1,0-.76l16.12-13.84a.59.59,0,0,1,.39-.13.56.56,0,0,1,.37.19,69.64,69.64,0,0,0,18.5,15.33.53.53,0,0,1,.2.73L93,181a.54.54,0,0,1-.33.26Zm-23.59-20.6A90.81,90.81,0,0,0,92.31,180l9.88-17.57a70.74,70.74,0,0,1-18-14.88Z"/></g><g id="Layer_23" data-name="Layer 23"><path class="cls-3" d="M132.76,162a1.82,1.82,0,0,0-.68-1.31.74.74,0,0,1,0-.14,1.65,1.65,0,0,0-2-1.13,1.51,1.51,0,0,0-.8.53,1.71,1.71,0,0,0-.38-.13l-.07-.09a1.61,1.61,0,0,0-2.09-.15,2,2,0,0,0-.1-.26,1.8,1.8,0,0,0-.16-.38,1.67,1.67,0,0,0-2.22-.59,4,4,0,0,1-1.06.28,1.49,1.49,0,0,0-1.08,1l-1,.88a1.87,1.87,0,0,0-.57.35L119.3,162a1.48,1.48,0,0,0-.37.58l-.06.07a1.93,1.93,0,0,0-.43.84c0,.09-.08.18-.11.27l-.19.2a1.64,1.64,0,0,0,1.75,2.66,8,8,0,0,1,1.23-.65,2.59,2.59,0,0,0,.35.31,1.59,1.59,0,0,0,1.58,0,1.63,1.63,0,0,0,2.13.9s0,0,0,.05a1.61,1.61,0,0,0,1.48.77,2.59,2.59,0,0,0,.46.86,1.65,1.65,0,0,0,2.3,0l.21-.23a1.66,1.66,0,0,0,2.11-.13,4.52,4.52,0,0,0,1.1-3.13C132.89,164.3,132.84,163.15,132.76,162Z"/><path class="cls-3" d="M157.51,163.16l-.51-.52,0,0a8.16,8.16,0,0,0-.71-.73,0,0,0,0,1,0,0l-.25-.24c-.25-.26-.51-.51-.75-.78a.53.53,0,0,0-.1-.06,15.92,15.92,0,0,0-4.61-2.89l0,0h0l-.39-.17a1.59,1.59,0,0,0-1.91.94,1.48,1.48,0,0,0,.07,1.32.33.33,0,0,0-.06.1l-.06,0a2,2,0,0,0-.58.52l-.21.11a1.61,1.61,0,0,0-3.17-.43c-.06.21-.1.42-.15.63a1.35,1.35,0,0,0-.81,1,12.07,12.07,0,0,0,.13,5.38,1.64,1.64,0,0,0,2.92.46,1.7,1.7,0,0,0,1.07.23,1.85,1.85,0,0,0,1-.56,1.67,1.67,0,0,0,1.38-.1h0l.51.42a1.6,1.6,0,0,0,2.35-.95,1.79,1.79,0,0,0,.94-.52,2.57,2.57,0,0,0,2.27.61,1.52,1.52,0,0,0,1.08-1,1.62,1.62,0,0,0,.59-.37A1.65,1.65,0,0,0,157.51,163.16Z"/><path class="cls-6" d="M134,159.39a1.84,1.84,0,0,0-1.62-1.57,2,2,0,0,0-.49-1.54,1.92,1.92,0,0,0-1.87-.48,2,2,0,0,0-.66.34l-.11-.22a1.67,1.67,0,0,0-2.22-.58,2,2,0,0,0-.52.38,3.61,3.61,0,0,0-1.25,2.11,2.36,2.36,0,0,0,.57,2.26,2.1,2.1,0,0,0,1,.49,2.11,2.11,0,0,0,.56,1.16,2.13,2.13,0,0,0,2.54.34.54.54,0,0,0,.05.11,1.64,1.64,0,0,0,2.22.58A3.85,3.85,0,0,0,134,159.39Z"/><path class="cls-6" d="M150.34,157.55h0a4.2,4.2,0,0,0-1.17-1.78,1.72,1.72,0,0,0-1.33-.45,1.68,1.68,0,0,0-1.58.57,2.28,2.28,0,0,0-1.13,0,1.36,1.36,0,0,0-.28.11,1.62,1.62,0,0,0-1.18,1.61s0,.09,0,.13a1.68,1.68,0,0,0-1.38.84,2.93,2.93,0,0,0-.21,2.37,2.48,2.48,0,0,0,2.17,1.78,1.84,1.84,0,0,0,1.34-.49,2.22,2.22,0,0,0,.71.16,2.3,2.3,0,0,0,.69-.1,1.55,1.55,0,0,0,1-.19,1.68,1.68,0,0,0,.71-.86,1.73,1.73,0,0,0,.22-.6,1.55,1.55,0,0,0,.77-.2,2,2,0,0,0,.69-2.91Z"/><path class="cls-8" d="M131.34,163.74a2.11,2.11,0,0,1-1.05-.28,2,2,0,0,1-.54-.47,2.83,2.83,0,0,1-2.38-.16,2.74,2.74,0,0,1-1.28-2,2.13,2.13,0,0,1-.58-.23,2.22,2.22,0,0,1-1-1.38,4.29,4.29,0,0,1,2.85-4.79,2.15,2.15,0,0,1,1.68.2,1.78,1.78,0,0,1,.47.39,2.66,2.66,0,0,1,3.63,2.19,2.1,2.1,0,0,1,.67.25,2.2,2.2,0,0,1,1,1.39,3.85,3.85,0,0,1-.53,2.9,4,4,0,0,1-2.31,1.88A2.79,2.79,0,0,1,131.34,163.74Zm-1.38-2a.53.53,0,0,1,.48.3,1.07,1.07,0,0,0,.39.44,1.14,1.14,0,0,0,.87.09,2.89,2.89,0,0,0,1.65-1.38h0a2.9,2.9,0,0,0,.42-2.08,1.17,1.17,0,0,0-.49-.73,1,1,0,0,0-.58-.13.55.55,0,0,1-.58-.52,1.66,1.66,0,0,0-2.55-1.57.55.55,0,0,1-.7-.22.88.88,0,0,0-.37-.39,1.13,1.13,0,0,0-.85-.09,3.23,3.23,0,0,0-2.07,3.48,1.15,1.15,0,0,0,.49.72.91.91,0,0,0,.5.13.53.53,0,0,1,.54.51,1.66,1.66,0,0,0,2.61,1.49A.69.69,0,0,1,130,161.78Z"/><path class="cls-8" d="M126.87,176.92a.54.54,0,0,1-.3-1,13.16,13.16,0,0,0,4.18-4.42,12.05,12.05,0,0,0,1.63-8.78.55.55,0,0,1,.39-.66.54.54,0,0,1,.66.39,13.12,13.12,0,0,1-1.75,9.6,14.55,14.55,0,0,1-4.52,4.79A.6.6,0,0,1,126.87,176.92Z"/><path class="cls-8" d="M115.83,170.39a.52.52,0,0,1-.29-.09.54.54,0,0,1-.24-.55,14.3,14.3,0,0,1,2-6.21,13.06,13.06,0,0,1,7.58-6.14.54.54,0,1,1,.26,1,12,12,0,0,0-6.91,5.65,13.15,13.15,0,0,0-1.87,5.79.58.58,0,0,1-.09.26A.56.56,0,0,1,115.83,170.39Z"/><path class="cls-8" d="M144.51,163.74a3.63,3.63,0,0,1-2.93-2c-1-1.66-.79-3.55.45-4.29a2.06,2.06,0,0,1,.68-.25,2.65,2.65,0,0,1,3.63-2.19,2.11,2.11,0,0,1,.45-.39c1.26-.73,3,0,4,1.67a4.22,4.22,0,0,1,.61,2.4,2.28,2.28,0,0,1-1.07,1.9,1.84,1.84,0,0,1-.56.23,2.84,2.84,0,0,1-1.28,2,2.78,2.78,0,0,1-2.39.16,2,2,0,0,1-.53.47A2.14,2.14,0,0,1,144.51,163.74Zm-1.43-5.45a1,1,0,0,0-.5.13c-.69.42-.73,1.7-.07,2.81s1.82,1.71,2.52,1.29a1,1,0,0,0,.38-.43.54.54,0,0,1,.72-.26,1.67,1.67,0,0,0,2.63-1.49.53.53,0,0,1,.54-.51.92.92,0,0,0,.48-.12h0a1.3,1.3,0,0,0,.54-1,3.06,3.06,0,0,0-.46-1.77c-.66-1.11-1.82-1.7-2.52-1.29a1,1,0,0,0-.35.38.54.54,0,0,1-.7.23,1.86,1.86,0,0,0-1.76,0,1.91,1.91,0,0,0-.81,1.62.53.53,0,0,1-.18.38.56.56,0,0,1-.39.13Z"/><path class="cls-8" d="M149,176.92a.67.67,0,0,1-.3-.08,14.55,14.55,0,0,1-4.52-4.79,13.16,13.16,0,0,1-1.75-9.6.55.55,0,0,1,.66-.39.54.54,0,0,1,.39.66,12.05,12.05,0,0,0,1.63,8.78,13.26,13.26,0,0,0,4.18,4.42.55.55,0,0,1,.16.75A.54.54,0,0,1,149,176.92Z"/><path class="cls-8" d="M160,170.39a.52.52,0,0,1-.45-.24h0a.41.41,0,0,1-.09-.26,13.28,13.28,0,0,0-1.87-5.79,12,12,0,0,0-6.92-5.65.54.54,0,0,1-.39-.65.53.53,0,0,1,.66-.39,13.09,13.09,0,0,1,7.58,6.14,14.27,14.27,0,0,1,2,6.24.54.54,0,0,1-.23.52A.55.55,0,0,1,160,170.39Z"/></g></g></g></svg>