<svg xmlns="http://www.w3.org/2000/svg" viewBox="0 0 325.44 221.02"><defs><style>.cls-1{isolation:isolate;}.cls-2{fill:#f9b233;}.cls-3{fill:#f39200;}.cls-4{fill:#f7c0d8;}.cls-5{fill:#f9fafe;}.cls-6{fill:#1d1d1b;}.cls-7{fill:#fff;}.cls-8{fill:#fbd2bb;}.cls-9{fill:#4e70b5;}.cls-10{fill:#1d71b8;opacity:0.42;mix-blend-mode:color-burn;}.cls-11{fill:#2d2e83;}.cls-12{fill:#fcea10;}.cls-13{fill:#e94e1b;}</style></defs><g class="cls-1"><g id="Bijou"><g id="Layer_18" data-name="Layer 18"><path class="cls-2" d="M92.93,135.48a5.11,5.11,0,0,0-.4.93,11.59,11.59,0,0,0-.38,2.73c-.33,1.74-.63,3.49-1.07,5.22a4.6,4.6,0,0,0-.11.73c-.21.51-.43,1-.67,1.57a5.64,5.64,0,0,1-.46.84q-.21.42-.45.84a1.25,1.25,0,0,0-.09.12l0,.08c-.18.56-.38,1.11-.61,1.67a9,9,0,0,1-1.44,2.41l-.28.53H15.53a29.34,29.34,0,0,1-4-10,6.45,6.45,0,0,1-1-3.4v-.19c-.21-.61-.39-1.23-.58-1.84,0-.06,0-.12,0-.18a.92.92,0,0,0,0-.16,28.14,28.14,0,0,0-.34-4c0-.1,0-.2,0-.31s.06-.29.08-.44c.1-1,.13-2,.17-3.06.09-.57.18-1.14.26-1.72,0-.31.06-.61.07-.91h0a3.2,3.2,0,0,0,.07-.41l.21-.27s0,.1,0,.14.05.21.07.31a4.5,4.5,0,0,0,.93,1.79c0,.08.09.15.14.23l.15.27,0,.08a5.43,5.43,0,0,0,.48,2.19c.21.45.41.91.61,1.37a4.21,4.21,0,0,0,.65,1c.06.14.12.28.19.42a8.53,8.53,0,0,0,1.07,1.76,5.34,5.34,0,0,0,1,1,17.65,17.65,0,0,0,1.26,2A5.77,5.77,0,0,0,19,140.63l.08.08a6.2,6.2,0,0,0,.53.64l1.07,1.07a5.67,5.67,0,0,0,1.59,1.11c.39.41.79.83,1.17,1.26a4.87,4.87,0,0,0,2.14,1.41,9.06,9.06,0,0,0,1.85,1.13l.56.22a20,20,0,0,0,3,1.27,5.26,5.26,0,0,0,1.72.29,4.41,4.41,0,0,0,1,.4,21.93,21.93,0,0,0,6.09,1.1,5.77,5.77,0,0,0,1,.15,27.51,27.51,0,0,0,3.4,0h.12c.43,0,.87-.09,1.33-.17a3.39,3.39,0,0,0,.9-.29,10.62,10.62,0,0,0,1.62-.17c.2,0,.39-.1.59-.15h0l.06,0c.25-.06.49-.13.74-.21s.59-.19.88-.3a6.41,6.41,0,0,0,1.13-.6l.33-.09c.46-.14.92-.29,1.37-.46a6.78,6.78,0,0,0,1-.49,35.26,35.26,0,0,0,3.48-1.54,3.47,3.47,0,0,0,.87-.46l0,0a19.55,19.55,0,0,0,3.33-2.35,4.71,4.71,0,0,0,.77-.86l.07-.06c.41-.35.78-.71,1.16-1.07s.67-.66,1-1c.69-.63,1.38-1.26,2.06-1.9a5.07,5.07,0,0,0,1.37-2.11,23.71,23.71,0,0,0,1.87-3,5.33,5.33,0,0,0,1-1.84l.06-.23a15.44,15.44,0,0,0,1.16-3.89c0-.19,0-.36,0-.54a4.49,4.49,0,0,0,.22-1c.07-.24.13-.47.19-.71a5.84,5.84,0,0,0,.17-1.13c0-.09,0-.16.06-.25l.26-1.72a5.8,5.8,0,0,0,.22-1.13c0-.51.11-1,.16-1.53a4.13,4.13,0,0,0-.31-2c0-.68.06-1.36.07-2,0,0,0,0,0-.06v-.15a5,5,0,0,0-.41-2.06A4.68,4.68,0,0,0,73,110.8c-.15-.45-.33-.88-.5-1.32l0-.13c-.4-1.11-.83-2.2-1.31-3.28a6.19,6.19,0,0,0-.42-1c-.47-.86-.93-1.73-1.38-2.6a5.13,5.13,0,0,0-.83-1.16c-.06-.11-.12-.22-.19-.33l-.28-.5a5.06,5.06,0,0,0-1.1-1.42c-.19-.29-.39-.57-.58-.87a4.94,4.94,0,0,0-.45-.62.94.94,0,0,1,.1-.1,16.2,16.2,0,0,0-3.32-3.07c-.77-.72-1.57-1.4-2.41-2.06l-.05-.06h0l-1-.79c-.08-.06-.16-.1-.24-.15a.53.53,0,0,0-.09-.11l.07,0c.49,0,1-.08,1.48-.09h.12a6.32,6.32,0,0,0,.87,0h0A47.17,47.17,0,0,1,71.75,96l.36.06a9.22,9.22,0,0,1,4.42,2.43h0a15.37,15.37,0,0,0,2.32,2l0,0c.29.26.56.54.84.82a4.66,4.66,0,0,0,1.24.86,5.27,5.27,0,0,1,.63,1.07,27.43,27.43,0,0,1,5.72,8.08c.05.1.09.21.14.31.16.31.34.61.5.92a6,6,0,0,1,.34.61,17.73,17.73,0,0,1,1,2.49,7.18,7.18,0,0,1,.59,1.14,39.11,39.11,0,0,1,2.85,16.55C92.86,134.06,92.91,134.78,92.93,135.48Z"/><path class="cls-3" d="M81.1,102A41.8,41.8,0,0,0,58.71,90.44a.61.61,0,0,0-.42,1.12A31.63,31.63,0,0,1,73.43,120,31.6,31.6,0,0,1,11,125.29a.52.52,0,0,0-.53-.36c-.46,0-.51.53-.51.53a42.23,42.23,0,0,0,5.31,27.69h1.16A41.3,41.3,0,0,1,10.63,128a32.61,32.61,0,1,0,54.54-32.2,32.86,32.86,0,0,0-4.65-3.94,41.21,41.21,0,0,1,26,61.33h1.17A42.43,42.43,0,0,0,81.1,102Z"/><rect class="cls-3" x="15.25" y="152.65" width="72.49" height="1"/></g><g id="Layer_17" data-name="Layer 17"><path class="cls-4" d="M100.71,113.83a18.67,18.67,0,0,1,1.8-2.73,6.23,6.23,0,0,1,.62-.74A19,19,0,0,1,120.29,104c7.4,1.12,16.19,8,15.86,16.19a6.33,6.33,0,0,1-5.55,6.17,14.14,14.14,0,0,1,0,1.84,6.84,6.84,0,0,1-.37,1.75,6.88,6.88,0,0,1,1.68,9.77,1.9,1.9,0,0,0-.93.17c-.28.13-.56.24-.84.36a1,1,0,0,0-.52.07c-3.57,1.48-7.42,1.63-11.19,2.26a5.88,5.88,0,0,1-1.54-.24,46.75,46.75,0,0,1-5-1.89,5.74,5.74,0,0,1-1.87-.78,7.07,7.07,0,0,1-2.49-1.48c-.51-.46-1-.93-1.47-1.4a10.47,10.47,0,0,1-.9-.67,10.27,10.27,0,0,1-2.38-3,.52.52,0,0,1-.06-.13A5.38,5.38,0,0,1,102,132l-.84-1.64a11.22,11.22,0,0,1-.53-1.31c-.09-.23-.2-.45-.28-.69A15.17,15.17,0,0,1,100.71,113.83Z"/><path class="cls-4" d="M188.28,97.29a5.91,5.91,0,0,0,1.42.59,6.22,6.22,0,0,0,3.08,6.15,6.61,6.61,0,0,0,8.9-2.33A17.53,17.53,0,0,0,203,98.86l.48-1q.18-.24.33-.48l0,0c0-.06,0-.12.08-.19A6.37,6.37,0,0,0,205,94c1.14-5-.06-10.5-4.39-13.91a8.3,8.3,0,0,0-11.26.88,12,12,0,0,0-2.59,4.46c-.34,1-.41,2.13-.84,3C184.4,91.57,185.06,95.41,188.28,97.29Z"/><path class="cls-5" d="M223,169.78a16.26,16.26,0,0,0-4-4.79,1.34,1.34,0,0,0-.52-.23c-.31-.32-.62-.64-1-.94l-1.55-.95,0,0c-.55-.26-1.07-.57-1.61-.84a3.94,3.94,0,0,1-1-.76l-.24-.19-.48-.09c-.61-.28-1.23-.54-1.85-.79-.2-.2-.41-.39-.61-.6a7.35,7.35,0,0,1-1.88-3.13,10.45,10.45,0,0,0,2.48-3.13c.18-.36.35-.73.51-1.09a5.6,5.6,0,0,0,1.81-2,37.46,37.46,0,0,0,3.12-7,6.35,6.35,0,0,0,.13-2.83,19.6,19.6,0,0,0,.39-6.72,8.52,8.52,0,0,0-1.11-3.42,19.44,19.44,0,0,0-2.84-7.66,7.15,7.15,0,0,0-2.4-2.28c-.13-.19-.27-.37-.42-.55s-.15-.31-.23-.46c-.16-.31-.32-.64-.5-.94a2.75,2.75,0,0,0-.23-.33,2.51,2.51,0,0,0-.45-.68c-.15-.28-.32-.54-.47-.78-.27-.44-.52-.92-.78-1.4,0,0,0,0,0-.06a1,1,0,0,0-.06-.16c.15-.08.29-.15.38-.21a17.07,17.07,0,0,0,2.33-1.54,13.37,13.37,0,0,0,3.41-4c.12-.22.22-.45.33-.68a13.28,13.28,0,0,1,1,1.55,5.38,5.38,0,0,1,0,5.26c-.88,1.33-2.56,3.29-.62,4.61,1.57,1.07,3.91.06,5.31-.82a11.28,11.28,0,0,0,4.08-3.86,11.67,11.67,0,0,0,.83-5.85,18.25,18.25,0,0,0-1.37-7.16c-1.06-2.37-2.32-4.66-3.49-7a1.51,1.51,0,0,0-2.79.75c0,1.88-.08,3.75-.17,5.61a20.09,20.09,0,0,0-3.24-3.59,1.5,1.5,0,0,0-2.35,1.81,8.37,8.37,0,0,1-1.28,9.51,14.06,14.06,0,0,1-3.77,2.9l-.22.14-.06,0a1.22,1.22,0,0,0-.17-.63,10.79,10.79,0,0,0-1.69-2.28c-.38-.37-.79-.78-1.16-1.2a11.45,11.45,0,0,0-1-1.24,1.31,1.31,0,0,0-.84-.42c-1.22-1.37-2.45-2.74-3.71-4.08l-.22-.1-1.23-.86a2.18,2.18,0,0,1-.22-.21,2.93,2.93,0,0,1-.57-.13,1.53,1.53,0,0,1-.53-2.61v-.07a2.76,2.76,0,0,1,.06-.4c0-.14,0-.29,0-.44a12,12,0,0,0-.33-1.51,10.05,10.05,0,0,0-1-2.89,2.64,2.64,0,0,0-.92-.87l-.13-.07c.29,0,.21,0-.24,0a1.74,1.74,0,0,1-.71-.41c-.75-.68-1-2-2-2.38a1.55,1.55,0,0,1-1.05-1.85,5.2,5.2,0,0,1,.86-1.75,9.14,9.14,0,0,1,.9-1.83c.33-.53.67-1,1.05-1.55a11.39,11.39,0,0,1,3.13-3,1.36,1.36,0,0,1,.67-.17l0,0a5.93,5.93,0,0,1,7.12,2A16.68,16.68,0,0,1,205,89.55c.14.83.34,1.72.43,2.58a11.83,11.83,0,0,0,1.05-3.5,18.38,18.38,0,0,0-2.06-9.4,1.4,1.4,0,0,1-.21-.92q-.36-.5-.78-1c-.11-.13-.23-.24-.35-.36-1.27-3.59-4.87-6.06-9.06-7.29a12.18,12.18,0,0,0-6.38-2,1.6,1.6,0,0,1-.76.26,38.54,38.54,0,0,0-5.16.68c-.64.14-1.28.26-1.91.41a8,8,0,0,0-.83.26l-.3.15,0,0-.1.09a1.55,1.55,0,0,1-1.38.41h0a1.63,1.63,0,0,1-.27.25l-2.18,1.34a1.76,1.76,0,0,1-.43.43l-1,.77a1.33,1.33,0,0,1-.21.26c-1,.88-1.86,1.81-2.74,2.76-.56.91-1.24,1.73-1.76,2.67-.67,1.22-1.37,2.42-2,3.67l0,0a34,34,0,0,0-1.09,6.45,1.56,1.56,0,0,1,.16.65,1.23,1.23,0,0,1-.06.39,8.91,8.91,0,0,0,.06,1.86,1.61,1.61,0,0,1,0,.44l-.15.36a1.52,1.52,0,0,1-.26.32l-.07,0a4.25,4.25,0,0,0-.61-.08,4.19,4.19,0,0,0-.63.07,1,1,0,0,0-.23.06c-.15,0-.3.12-.45.18l-.11.06a4.21,4.21,0,0,0-.48.35,3.56,3.56,0,0,0-.39.48.76.76,0,0,0-.09.18h0l-.24.22A1.41,1.41,0,0,1,161,95a1.5,1.5,0,0,1-1.87-.61c-.1-.18-.2-.34-.31-.5a1.59,1.59,0,0,0-.12-.16l-.22-.23-.15-.14-.07,0-.42-.23,0,0-.27-.08-.27,0-.52,0a4.4,4.4,0,0,1-.51,0h0l-.29.06-.54.15-.54.19-.19.08.17-.07a1,1,0,0,0-.28.13,11.2,11.2,0,0,0-1.79,1.08,1.15,1.15,0,0,0,0,.19,6.82,6.82,0,0,0-1.84,2.39,1.44,1.44,0,0,1-.39.2,1.52,1.52,0,0,1-1.81-1v0l0,0a.35.35,0,0,1-.09-.12h0s-.06,0-.12-.11l-.18-.1h0L148.1,96a5.54,5.54,0,0,0-.55-.14h0l-.28,0a7.62,7.62,0,0,0-1.17,0h0l-.23,0-.19,0a4.25,4.25,0,0,0-2.45.81,4.83,4.83,0,0,0-1.65,2.21,4.24,4.24,0,0,0-.28,1.61A6.08,6.08,0,0,0,140,99.44l-.13-.43c-.06-.22-.13-.43-.19-.64v-.05l-.06-.1-.12-.08c-.57-.53-1-1.19-1.57-1.73a11.32,11.32,0,0,0-1.62-1.2,21.77,21.77,0,0,0-4.18-2.09A21.23,21.23,0,0,0,123,91.56a1.24,1.24,0,0,1-1.2-.56c-1,.15-1.9.36-2.84.57A34.86,34.86,0,0,0,112,94.21a54.11,54.11,0,0,0-5.89,4.33,1.71,1.71,0,0,1-.4.89c-.69.79-1.37,1.59-2,2.39l-1,1.16-.6.68a38.92,38.92,0,0,0-2.67,6.58,6.34,6.34,0,0,0-.33,2.44c-.37,1.18-.73,2.37-1,3.56,0,.08,0,.15,0,.23a2.28,2.28,0,0,1,0,.64,11.74,11.74,0,0,0,.11,2.56c.09.87.16,1.72.3,2.55a16.08,16.08,0,0,0,1.65,5s0,.08,0,.12a19.8,19.8,0,0,1-.13-4.49,15.15,15.15,0,0,1,2.47-7.83,25.78,25.78,0,0,1,5.83-6.44,17.17,17.17,0,0,1,7.51-3.08,1.18,1.18,0,0,1,.33-.12,12.51,12.51,0,0,1,5.54.28,19.83,19.83,0,0,1,4.93,1.75,15.43,15.43,0,0,1,3.89,3.36,18.9,18.9,0,0,1,3.12,4.18c.52,1.09-.35,2.66-1.69,2.21a4,4,0,0,0-1.56-.44,11.08,11.08,0,0,0-1.86.49,1.7,1.7,0,0,1-.31.06c-.22.26-.45.52-.67.76a2.61,2.61,0,0,1,0,1l0,.16a11.56,11.56,0,0,0-.06,1.44,1.27,1.27,0,0,1,0,.2,1.5,1.5,0,0,1-.16,3h0l-.16.22a2.51,2.51,0,0,1-.92.56,4.85,4.85,0,0,0-.49.29l-.14.12-.3.39a2.5,2.5,0,0,1-.22.24c0,.06-.12.1-.17.15-.09.65-.2,1.3-.3,2,0,.07,0,.14,0,.21s0,.26,0,.39,0,.08,0,.14c0,.23.07.44.13.66h0c.29.47.57.95.85,1.43a2.11,2.11,0,0,1,.26.63l.19.15a4.17,4.17,0,0,1,1,.47,2.82,2.82,0,0,1,.77.77c1.83-.11,2.77,2.2,2.07,3.65v.09a2.3,2.3,0,0,1-.15.78c0,.12,0,.24,0,.37a2.08,2.08,0,0,1-.18,1,7.33,7.33,0,0,0,.22,1.34c1.07,4,2,9,4.12,12.72a1.35,1.35,0,0,0,.09.74c.26.57.54,1.12.81,1.69l-.8.37a1.38,1.38,0,0,0-1.4-1.8,59.69,59.69,0,0,1-6.13,0,1.41,1.41,0,0,0-1.36,2c-.53,0-1.07,0-1.6,0a1.82,1.82,0,0,0-1.2-.61,7.3,7.3,0,0,0-.81,0,19.4,19.4,0,0,0,1.84-6.24,1.18,1.18,0,0,0-.09-.56,1.52,1.52,0,0,0-1-2,15.39,15.39,0,0,0-11.89,2.85c-1.27,1-.61,3.2,1.16,2.74a16.78,16.78,0,0,1,4.21-.7,6.63,6.63,0,0,1,1.18.09,2,2,0,0,1,.31.08c-.16.13-.31.28-.44.38a6.79,6.79,0,0,0-2.46,6.25,4,4,0,0,0,1.63,2.66,7.86,7.86,0,0,0,3.72.75l9.06.72a1.31,1.31,0,0,0,1.41-1.3,19.58,19.58,0,0,0,2.61-1.34c1.11-.61,2.25-1.15,3.4-1.66.31.56.6,1.13.92,1.69a.93.93,0,0,0,.13.15,31.48,31.48,0,0,0,1.51,3c2.2,3.75,5.58,5.45,9.26,7.28.06.38.13.76.2,1.15a20.22,20.22,0,0,0,0,4.26c.15,1,.35,2.12.6,3.17.11,1.26.24,2.51.46,3.75a11.25,11.25,0,0,0,1.19,3.8c.26.81.55,1.6.87,2.38a12.48,12.48,0,0,0,.75,2,16.71,16.71,0,0,0,4.25,7.36,1.05,1.05,0,0,0,.24.15,4.45,4.45,0,0,0,.55.6c3.85,3.55,8,7,13.31,8.09a8,8,0,0,0,1.8.13c.78.18,1.59.34,2.4.49,3.74-.13,7.48-.22,11.2-.66a26.88,26.88,0,0,1,3.77-.92c.14-.11.26-.23.39-.35a5.45,5.45,0,0,0,.8-.18c3.87-1.22,7.94-2.66,11.15-5.21a23.3,23.3,0,0,0,9-6,7.11,7.11,0,0,0,.71-.95,35,35,0,0,0,3.07-2.77,1,1,0,0,0,.24-.47,8.2,8.2,0,0,0,1.27-1.6l.5-.74.08-.08a27.48,27.48,0,0,0,5.85-10.51,3.9,3.9,0,0,0,.19-.35c0-.06,0-.12,0-.19s.05-.34.08-.55,0-.21,0-.32v0c0-.38.11-.76.18-1.13h0c0-.08,0-.16,0-.24.06-.52.09-1,.15-1.57a6.21,6.21,0,0,1,.16-.84,5.12,5.12,0,0,0-.38-1.06A1.06,1.06,0,0,0,223,169.78Z"/><ellipse class="cls-6" cx="200.59" cy="120.84" rx="7.34" ry="11.59" transform="translate(-22.98 51.16) rotate(-13.75)"/><ellipse class="cls-7" cx="197.99" cy="117.63" rx="6.01" ry="3.45" transform="translate(77.56 313.93) rotate(-89.19)"/><ellipse class="cls-7" cx="201.94" cy="127.74" rx="1.99" ry="2.37" transform="translate(-13.72 230.64) rotate(-57.82)"/><ellipse class="cls-7" cx="205.46" cy="123.34" rx="1.31" ry="1.99" transform="translate(-30.11 79.38) rotate(-20.41)"/><path class="cls-8" d="M187.57,179.36a2.77,2.77,0,0,0,.75.53,1.52,1.52,0,0,0,.57,2,2.89,2.89,0,0,0,1.25.31,5.25,5.25,0,0,0,1-.12l1.6-.26a1.47,1.47,0,0,0,.9-.68,1.62,1.62,0,0,0,.15-1.16,1.26,1.26,0,0,0-.26-.5l.15-.12a1.07,1.07,0,0,0,.37-.28,1.54,1.54,0,0,0,0-2.12,1.47,1.47,0,0,0-.68-.38,1.52,1.52,0,0,0-.55-2,4.45,4.45,0,0,0-3.77-.27,2.22,2.22,0,0,0-1,.83,1.81,1.81,0,0,0-.16,1.49,1.9,1.9,0,0,0-.55.58A1.82,1.82,0,0,0,187.57,179.36Z"/><path class="cls-8" d="M201.18,170.05a1.88,1.88,0,0,1,2.89-.46,1.23,1.23,0,0,1,.3.43,1.76,1.76,0,0,1,.2-.09,2,2,0,0,1,1.06,0,2.09,2.09,0,0,1,1.1.86,1.41,1.41,0,0,1,.2.75l0,0a3.72,3.72,0,0,1,.24.58.69.69,0,0,1,.15.07,1.62,1.62,0,0,1,.79,1.42,2.75,2.75,0,0,1-.87,1.69,1.44,1.44,0,0,1-1.26.41,1.52,1.52,0,0,1-.92-.45,3.66,3.66,0,0,1-.46-.18,1.22,1.22,0,0,1-.19-.12l-.37.05H204l-.4-.06h-.05a1.84,1.84,0,0,1-.25-.09l-.23-.11,0,0h0l-.31-.24-.05,0a2.56,2.56,0,0,1-.2-.26h0a2.14,2.14,0,0,1-.8-1.41c-.07-.06-.15-.11-.22-.18A2.18,2.18,0,0,1,201.18,170.05Z"/><path class="cls-8" d="M157.52,199.32h0C157.72,199.36,157.64,199.38,157.52,199.32Z"/><path class="cls-8" d="M156.61,198.61c.14.13.07.1,0,0Z"/><path class="cls-8" d="M151.09,201.77a1.73,1.73,0,0,1,.21-.17,1.68,1.68,0,0,1,.42-1.17l.32-.4.13-.16.12-.16,0,0a1.83,1.83,0,0,0,.13-.16l.3-.42q.58-.79,1.11-1.62a1.52,1.52,0,0,1,2.05-.54,1.55,1.55,0,0,1,.69.9,1.5,1.5,0,0,1,0,.73h0l0,0,0,0h0l.09.11a3.26,3.26,0,0,0,.33.31l.14.1a2.6,2.6,0,0,0,.36.21l-.06,0,.2.08.47.13a1.52,1.52,0,0,1,.66,2.51c-.81.85-2.07.89-3.14,1.17-.49.13-1,.28-1.46.45l-.77.29c-.09,0-.52.15-.11,0a2.54,2.54,0,0,0-.38.16,1.5,1.5,0,0,1-1.82-2.35Z"/><path class="cls-8" d="M190.57,138.74l2.24-2.86a.13.13,0,0,0-.15-.2l-6,2.35a.18.18,0,0,0,0,.33l2.33.83A1.39,1.39,0,0,0,190.57,138.74Z"/><path class="cls-6" d="M189.47,139.77a2,2,0,0,1-.63-.11l-2.33-.82a.69.69,0,0,1,0-1.28l6-2.34a.63.63,0,0,1,.72,1L191,139A1.89,1.89,0,0,1,189.47,139.77Zm-1.82-1.59,1.52.54a.88.88,0,0,0,1-.29h0l1.4-1.79Zm5.19-2Z"/><path class="cls-6" d="M129.85,136.7a.49.49,0,0,1-.5-.49c0-.88,0-1.83.09-2.91a.49.49,0,0,1,.53-.46.5.5,0,0,1,.46.54c-.07,1-.1,2-.08,2.81a.52.52,0,0,1-.49.51Z"/><path class="cls-6" d="M119.94,142.9a21.73,21.73,0,0,1-7.7-1.44,22.36,22.36,0,0,1-12.17-11.63,27.88,27.88,0,0,1-.43-21.59c5.25-13.61,19.45-20.85,31.65-16.15a22.78,22.78,0,0,1,13.51,15.27.5.5,0,0,1-1,.28A21.77,21.77,0,0,0,130.93,93c-11.69-4.5-25.31,2.49-30.36,15.58a26.87,26.87,0,0,0,.41,20.81,21.32,21.32,0,0,0,11.62,11.11,20.69,20.69,0,0,0,7.34,1.38,22.61,22.61,0,0,0,9.62-2.21,30.85,30.85,0,0,1-.21-3.49.49.49,0,0,1,.49-.5.52.52,0,0,1,.51.49,32.93,32.93,0,0,0,.24,3.74.5.5,0,0,1-.27.51A23.79,23.79,0,0,1,119.94,142.9Z"/><path class="cls-6" d="M199,105a.5.5,0,0,1-.34-.88,20.9,20.9,0,0,0,4.7-6,21.5,21.5,0,0,0,1.76-4.44s0,0,0-.06c2.51-9.26-1.4-18.72-9.51-23-9.11-4.83-20.27-1.09-27.13,9.11-1.68,2.5-3.07,8-2.48,12.8a.5.5,0,1,1-1,.12c-.56-4.53.6-10.45,2.64-13.48,7.16-10.64,18.85-14.52,28.43-9.43,8.51,4.5,12.62,14.41,10,24.11,0,0,0,0,0,.06a22.77,22.77,0,0,1-1.85,4.69,22.23,22.23,0,0,1-4.92,6.29A.5.5,0,0,1,199,105Z"/><path class="cls-6" d="M185,97.68H185a.49.49,0,0,1-.43-.56,36.74,36.74,0,0,1,2.21-8.61c2.69-6.8,6.89-10.71,11-10.2,4.62.58,8,6.77,8.38,15.41l-1,0c-.37-8.13-3.39-13.94-7.52-14.46-3.56-.44-7.46,3.32-9.93,9.58a35.76,35.76,0,0,0-2.15,8.38A.5.5,0,0,1,185,97.68Z"/><path class="cls-6" d="M100.52,130.12a.5.5,0,0,1-.48-.39,20.82,20.82,0,0,1,1-12,20.55,20.55,0,0,1,9.76-11,16.68,16.68,0,0,1,13.7-.87,17,17,0,0,1,10,11.31.5.5,0,0,1-.67.6,7,7,0,0,0-1.22-.33c-2.43-.43-4.7.47-5,2-.19,1.11.77,2.33,2.41,3a.5.5,0,0,1-.41.92c-2.09-.92-3.26-2.55-3-4.15.38-2.09,3.06-3.3,6.12-2.76.16,0,.32.06.47.09a15.42,15.42,0,0,0-22-8.93,19.59,19.59,0,0,0-9.28,10.5,19.87,19.87,0,0,0-.94,11.45.5.5,0,0,1-.38.6Z"/><path class="cls-6" d="M129.94,133.84h-.12c-3.61-.83-6-3.85-5.49-6.88.42-2.4,2.63-4.25,5.5-4.6a7.91,7.91,0,0,1,2.43.07,1.85,1.85,0,0,1,.35.08.49.49,0,0,1,.29.64.5.5,0,0,1-.64.3l-.09,0-.1,0a7.14,7.14,0,0,0-2.12-.06c-2.43.3-4.29,1.81-4.63,3.78-.44,2.51,1.63,5,4.73,5.73a.5.5,0,0,1-.11,1Z"/><path class="cls-6" d="M189.27,99a.47.47,0,0,1-.3-.1.51.51,0,0,1-.11-.7A7.14,7.14,0,0,0,190,95.65a7.58,7.58,0,0,0,.17-2.83,4,4,0,0,0-2.66-3.57,2.5,2.5,0,0,0-.38-.06.5.5,0,0,1,.07-1,3.63,3.63,0,0,1,.56.09c1.77.45,3.07,2.13,3.4,4.4a8.56,8.56,0,0,1-.19,3.21,8.16,8.16,0,0,1-1.34,2.89A.49.49,0,0,1,189.27,99Z"/><path class="cls-6" d="M153.59,172.66a.47.47,0,0,1-.17,0l-.74-.27c-1.74-.68-3.38-1.32-4.81-2a22.51,22.51,0,0,1-9.09-7.06c-2.7-3.31-6.32-12.33-7.65-16.42a36.56,36.56,0,0,1-1.53-6.84.5.5,0,1,1,1-.12,35.33,35.33,0,0,0,1.49,6.65c1.31,4,4.86,12.89,7.47,16.1a21.41,21.41,0,0,0,8.73,6.78c1.41.66,3,1.26,4.76,2l.71.27a.51.51,0,0,1,.31.64A.52.52,0,0,1,153.59,172.66Z"/><path class="cls-6" d="M205.27,159.69a.48.48,0,0,1-.36-.17.48.48,0,0,1,0-.7c.95-.87,1.8-1.71,2.61-2.57,5.43-5.72,8.41-11.93,8.39-17.46,0-.44,0-.93,0-1.47a33.21,33.21,0,0,0-.2-5.56,18.8,18.8,0,0,0-3.15-8.29,21.76,21.76,0,0,0-2.58-3.1.44.44,0,0,1-.08-.11s-.4-.72-1.08-1.86-2.16-3.52-3.94-6.08c-.82-1.17-1.51-2.11-2.16-2.95l-.38-.48-.08-.1a32.56,32.56,0,0,0-3.66-3.93,29.94,29.94,0,0,0-5.95-4.24.5.5,0,0,1-.25-.32.54.54,0,0,1,.06-.39,6.62,6.62,0,0,0,.83-2c.57-2.29-.07-4.51-1.4-4.85a1.69,1.69,0,0,0-1,.11.5.5,0,1,1-.39-.92,2.66,2.66,0,0,1,1.68-.16c1.93.49,2.86,3.15,2.13,6.07a7.56,7.56,0,0,1-.69,1.79,31,31,0,0,1,5.7,4.13,33.11,33.11,0,0,1,3.78,4l.08.1c.13.16.26.33.38.5.66.84,1.36,1.79,2.19,3,1.8,2.58,3.26,5,4,6.14.58,1,1,1.63,1.07,1.82a23.73,23.73,0,0,1,2.65,3.19,19.78,19.78,0,0,1,3.31,8.72,34.36,34.36,0,0,1,.21,5.73c0,.52,0,1,0,1.43,0,5.8-3.05,12.25-8.66,18.16-.83.87-1.7,1.73-2.67,2.62A.53.53,0,0,1,205.27,159.69Z"/><path class="cls-6" d="M170.27,97.67a.53.53,0,0,1-.24-.06.51.51,0,0,1-.2-.68,3.09,3.09,0,0,0,.38-2.34c-.09-.27-.2-.37-.23-.38-.6-.1-1.56,0-2.76,1.77a.5.5,0,0,1-.69.14.51.51,0,0,1-.14-.7c1.15-1.71,2.38-2.42,3.77-2.19A1.26,1.26,0,0,1,171,94a3.85,3.85,0,0,1-.33,3.42A.49.49,0,0,1,170.27,97.67Z"/><path class="cls-6" d="M150.13,99.36H150a.51.51,0,0,1-.39-.59c.73-3.43,4.34-6.46,7.28-6.14a4.06,4.06,0,0,1,3.47,2.4,5.09,5.09,0,0,1,3.52-2.79,3.25,3.25,0,0,1,.94,0,2.71,2.71,0,0,1,2.45,2.58,5,5,0,0,1-.25,2.14.5.5,0,0,1-1-.32,3.92,3.92,0,0,0,.21-1.7,1.75,1.75,0,0,0-1.57-1.71,2.42,2.42,0,0,0-.66,0c-1.16.17-2.63,1.22-3.39,3.64a4.42,4.42,0,0,1-.12.8A.5.5,0,0,1,160,98a.5.5,0,0,1-.4-.57l.11-.72a3.48,3.48,0,0,0-.13-1.08,3,3,0,0,0-2.76-2.06c-2.45-.27-5.57,2.44-6.19,5.36A.5.5,0,0,1,150.13,99.36Z"/><path class="cls-6" d="M141.64,102.18a.51.51,0,0,1-.47-.32,4.6,4.6,0,0,1-.24-2.31A5.5,5.5,0,0,1,146.46,95a4.33,4.33,0,0,1,3.62,2.08,4.28,4.28,0,0,1,.57,2.45.52.52,0,0,1-.53.47.5.5,0,0,1-.47-.53A3.21,3.21,0,0,0,146.42,96a4.48,4.48,0,0,0-4.5,3.67,3.59,3.59,0,0,0,.18,1.79.49.49,0,0,1-.28.64A.39.39,0,0,1,141.64,102.18Z"/><path class="cls-6" d="M178.17,207.87a30.38,30.38,0,0,1-12.72-2.68c-10-4.55-13-11.87-14.06-14.28l-.18-.42a46.18,46.18,0,0,1-3.63-20.6.5.5,0,1,1,1,.06,45.25,45.25,0,0,0,3.55,20.13c0,.12.12.27.19.45,1,2.31,3.94,9.36,13.55,13.75,16,7.31,33.87-2.86,39-6.15,11.77-7.63,18.76-20.54,17.66-27.36-.6-3.76-5.43-6.53-8.95-8.56a17.42,17.42,0,0,1-3.64-2.42,29,29,0,0,1-2.38-2.9.51.51,0,0,1,.11-.7.5.5,0,0,1,.7.12,28.14,28.14,0,0,0,2.3,2.8,17.79,17.79,0,0,0,3.41,2.23c3.7,2.13,8.76,5,9.44,9.27,1.29,8-7.17,21.28-18.1,28.36C201.5,201.47,190.39,207.87,178.17,207.87Z"/><path class="cls-6" d="M188,177.24a.51.51,0,0,1-.36-.15,1.79,1.79,0,0,1-.48-1,2,2,0,0,1,.93-1.8,4.46,4.46,0,0,1,2.27-.82c1.91-.19,3.5.68,3.62,2a1.76,1.76,0,0,1-.27,1.1.51.51,0,0,1-.69.16.49.49,0,0,1-.16-.69.79.79,0,0,0,.13-.48c-.06-.62-1.12-1.21-2.54-1.08a3.44,3.44,0,0,0-1.76.63,1.09,1.09,0,0,0-.53.91.68.68,0,0,0,.21.44.49.49,0,0,1-.37.84Z"/><path class="cls-6" d="M188.26,180.71a.54.54,0,0,1-.22-.05,2.36,2.36,0,0,1-.35-4.32.5.5,0,0,1,.59.81,1.37,1.37,0,0,0,.2,2.61.5.5,0,0,1-.22,1Z"/><path class="cls-6" d="M193.65,180.19a.51.51,0,0,1-.4-.2.5.5,0,0,1,.11-.7,1.37,1.37,0,0,0-.3-2.59.5.5,0,1,1,.41-.91,2.61,2.61,0,0,1,1.67,2,2.54,2.54,0,0,1-1.19,2.27A.47.47,0,0,1,193.65,180.19Z"/><path class="cls-6" d="M190.74,183c-1.69,0-3-.82-3.13-2a1.65,1.65,0,0,1,.21-1,.5.5,0,1,1,.88.48.71.71,0,0,0-.1.41c.06.62,1.11,1.22,2.55,1.08a3.52,3.52,0,0,0,1.75-.62,1.18,1.18,0,0,0,.53-.92.77.77,0,0,0-.17-.4.5.5,0,0,1,.79-.61,1.73,1.73,0,0,1,.38.92,2,2,0,0,1-.93,1.8,4.43,4.43,0,0,1-2.26.83A4.26,4.26,0,0,1,190.74,183Z"/><path class="cls-6" d="M189,174.76a.52.52,0,0,1-.29-.09,13,13,0,0,0-8.65-1.94,14.79,14.79,0,0,0-5.83,1.76.5.5,0,0,1-.68-.19.49.49,0,0,1,.19-.68,15.51,15.51,0,0,1,6.22-1.88,14,14,0,0,1,9.34,2.12.5.5,0,0,1-.3.9Z"/><path class="cls-6" d="M179.74,186.62a15,15,0,0,1-4.8-.75.48.48,0,0,1-.36-.42.49.49,0,0,1,.43-.55h0a.56.56,0,0,1,.22,0,14.66,14.66,0,0,0,6,.63,13.06,13.06,0,0,0,8.14-3.53.5.5,0,0,1,.73.68,14,14,0,0,1-8.77,3.85C180.84,186.6,180.29,186.62,179.74,186.62Z"/><path class="cls-6" d="M175.08,185.89a.5.5,0,0,1-.07-1h0a.52.52,0,0,1,.56.44.51.51,0,0,1-.44.56Z"/><path class="cls-6" d="M206.11,176.56a2.14,2.14,0,0,1-1.38-.49,2,2,0,0,1-.6-.86.5.5,0,1,1,.93-.35,1.14,1.14,0,0,0,.31.44,1.66,1.66,0,0,0,2.09-2.49,1,1,0,0,0-.49-.23.5.5,0,1,1,.19-1,2.06,2.06,0,0,1,.94.45,2.49,2.49,0,0,1,.09,3.5A2.72,2.72,0,0,1,206.11,176.56Z"/><path class="cls-6" d="M207.06,172.59h0a.52.52,0,0,1-.49-.52,1.66,1.66,0,0,0-2.05-1.75.5.5,0,0,1-.17-1,2.76,2.76,0,0,1,2.27.57,2.73,2.73,0,0,1,.95,2.2A.49.49,0,0,1,207.06,172.59Z"/><path class="cls-6" d="M204.09,175.59a2.69,2.69,0,0,1-1.73-.61,2.73,2.73,0,0,1-1-2.13.5.5,0,0,1,.5-.5h0a.5.5,0,0,1,.5.5,1.68,1.68,0,0,0,2.09,1.7.5.5,0,1,1,.2,1A3.05,3.05,0,0,1,204.09,175.59Z"/><path class="cls-6" d="M201.9,173.35l-.13,0a2.23,2.23,0,0,1-.81-.42,2.19,2.19,0,0,1-.77-1.68,2.77,2.77,0,0,1,.67-1.82,2.82,2.82,0,0,1,1.68-1,2.18,2.18,0,0,1,1.79.46,1.92,1.92,0,0,1,.55.74.5.5,0,1,1-.91.4,1,1,0,0,0-.29-.37,1.18,1.18,0,0,0-1-.24,1.85,1.85,0,0,0-1.07.64,1.81,1.81,0,0,0-.44,1.17,1.21,1.21,0,0,0,.41.92,1.07,1.07,0,0,0,.44.22.5.5,0,0,1-.14,1Z"/><path class="cls-6" d="M208.37,174.81h-.08a.5.5,0,0,1-.5-.5.51.51,0,0,1,.5-.5h.08a7.74,7.74,0,0,0,5.82-2.85,8,8,0,0,0,1.82-4,.5.5,0,0,1,.57-.43.51.51,0,0,1,.42.57,9.08,9.08,0,0,1-2,4.48A8.75,8.75,0,0,1,208.37,174.81Z"/><path class="cls-6" d="M202.05,169.59a.5.5,0,0,1-.49-.4,8.75,8.75,0,0,1,2-7.14,9,9,0,0,1,4-2.78.51.51,0,0,1,.49.07.5.5,0,0,1,.09.7h0a.48.48,0,0,1-.23.17,8,8,0,0,0-3.61,2.48,7.72,7.72,0,0,0-1.77,6.31.5.5,0,0,1-.4.58Z"/><path class="cls-6" d="M207.77,160.24a.51.51,0,0,1-.31-.11.5.5,0,0,1-.09-.7.51.51,0,0,1,.71-.09.5.5,0,0,1,.09.7h0A.49.49,0,0,1,207.77,160.24Z"/><ellipse class="cls-8" cx="189.01" cy="190.41" rx="12.25" ry="4.3" transform="translate(-41.24 328.13) rotate(-76.1)"/><path class="cls-6" d="M186.44,202.85a2.07,2.07,0,0,1-.5-.06c-1.33-.33-2.21-2-2.46-4.65a27.58,27.58,0,0,1,.87-8.88c1.48-6,4.69-12,7.72-11.22s3.08,7.53,1.59,13.53a27.25,27.25,0,0,1-3.37,8.25C189,201.79,187.65,202.85,186.44,202.85ZM191.57,179c-1.77,0-4.67,4.12-6.25,10.52h0a27,27,0,0,0-.85,8.54c.21,2.15.85,3.56,1.71,3.78s2.09-.74,3.28-2.54a26.77,26.77,0,0,0,3.23-7.95c1.67-6.73.88-11.89-.86-12.32A1.09,1.09,0,0,0,191.57,179Zm-6.74,10.4h0Z"/><path class="cls-6" d="M189.71,186.4l-.16,0a.5.5,0,0,1-.31-.64c.07-.22.14-.46.2-.7a8.86,8.86,0,0,0-.2-5.45.5.5,0,0,1,.26-.66.49.49,0,0,1,.65.26,9.69,9.69,0,0,1,.26,6.09c-.06.27-.14.53-.22.78A.5.5,0,0,1,189.71,186.4Z"/><path class="cls-6" d="M192,187l-.15,0a.5.5,0,0,1-.32-.64,7.15,7.15,0,0,0,.2-.7c.69-2.79.27-5.52-1-6.65a.49.49,0,0,1,0-.7.51.51,0,0,1,.71-.05c1.6,1.38,2.14,4.45,1.35,7.64-.06.27-.14.53-.22.78A.5.5,0,0,1,192,187Z"/><ellipse class="cls-8" cx="223.54" cy="172.09" rx="12.25" ry="4.3" transform="translate(2.78 347.72) rotate(-76.1)"/><path class="cls-6" d="M221,184.52a2.05,2.05,0,0,1-.49-.06c-1.33-.33-2.21-2-2.46-4.65a27.58,27.58,0,0,1,.87-8.88h0c1.48-6,4.69-12,7.72-11.22s3.08,7.53,1.59,13.53a27.57,27.57,0,0,1-3.37,8.26C223.53,183.47,222.18,184.52,221,184.52Zm-1.6-13.47.49.12a26.39,26.39,0,0,0-.85,8.54c.21,2.15.85,3.56,1.71,3.78s2.09-.74,3.28-2.54a26.77,26.77,0,0,0,3.23-7.95c1.67-6.72.88-11.89-.86-12.32s-4.85,3.77-6.51,10.49Z"/><path class="cls-6" d="M224.24,168.08l-.16,0a.5.5,0,0,1-.31-.63c.07-.23.14-.46.2-.7a8.89,8.89,0,0,0-.2-5.46.5.5,0,1,1,.91-.4,9.72,9.72,0,0,1,.26,6.1c-.07.26-.14.52-.22.77A.51.51,0,0,1,224.24,168.08Z"/><path class="cls-4" d="M194,150.18c.07.13.05.08,0,0Z"/><path class="cls-4" d="M199.44,151.27c-.43-1.71-.85-3.42-1.28-5.13a1.5,1.5,0,0,0-1.44-1.1,1.62,1.62,0,0,0-.85.28h-.09a1.56,1.56,0,0,0-1.16-.32,1.62,1.62,0,0,0-1.17.77,2.53,2.53,0,0,0-.26,1.2v0a.64.64,0,0,0,0,.1l-.05.09,0,0a1.49,1.49,0,0,0,0,2.06,5.67,5.67,0,0,1,.5.48l.23.27.1.14-.07-.1a12.22,12.22,0,0,0,1,1.34,4.7,4.7,0,0,0,2.68,1.7,1.59,1.59,0,0,0,1.46-.39A1.51,1.51,0,0,0,199.44,151.27Z"/><path class="cls-6" d="M226.5,168.64l-.16,0A.5.5,0,0,1,226,168c.07-.23.14-.47.2-.7.69-2.8.27-5.53-1-6.65a.5.5,0,0,1,.66-.76c1.6,1.38,2.14,4.45,1.35,7.65-.06.26-.14.52-.22.77A.51.51,0,0,1,226.5,168.64Z"/><path class="cls-6" d="M151.69,204.78a1.5,1.5,0,0,1-1.34-.55c-.61-.8-.58-2.39,4.36-8.11a.5.5,0,0,1,.75.65c-4.82,5.6-4.44,6.69-4.32,6.85s1.17.85,8.46-2.82a.5.5,0,0,1,.67.22.49.49,0,0,1-.22.67C155.35,204.06,153,204.78,151.69,204.78Z"/><path class="cls-9" d="M223,122.31a5.27,5.27,0,0,0-2.16-2,1.37,1.37,0,0,0-1-.17,9.28,9.28,0,0,0-5.42-.23,1.28,1.28,0,0,0-.24.11l-.78-1.26-.28-.42.09,0a7.83,7.83,0,0,0,2.39-2.47,1.24,1.24,0,0,0,.18-.47l.15-.27,0,0a11.34,11.34,0,0,0,.84-1.67,11.07,11.07,0,0,0,.39-1.1,1.56,1.56,0,0,0,.4-1,1.43,1.43,0,0,0-.37-1,3.28,3.28,0,0,0-.83-1.06,2,2,0,0,0-.41-.26,2.11,2.11,0,0,0-.37-.36,4.71,4.71,0,0,0-.76-.44,1.92,1.92,0,0,0-.51-.18,4.09,4.09,0,0,0-1.73-.18l-.16,0H212a5.25,5.25,0,0,0-2.43.34,1.66,1.66,0,0,0-.65.69,9.81,9.81,0,0,0-1.36.72,1.45,1.45,0,0,0-.55.63l-.16.06a1.71,1.71,0,0,0-.92,2.26,5.29,5.29,0,0,0,1,1.35c.41.59.81,1.18,1.18,1.8a1.06,1.06,0,0,0,.17.2l.13.23c.13.27.26.53.38.8s.17.39.29.68a1.86,1.86,0,0,0,.6.81.51.51,0,0,0,0,.13,1.06,1.06,0,0,0,.13.58,1.14,1.14,0,0,0,.31.48l.1.09a1.42,1.42,0,0,0,.38.26c.16.24.32.5.47.75l.72,1.14a1.52,1.52,0,0,0,.9.69l.13,0a1.31,1.31,0,0,0,.19.27,6.06,6.06,0,0,1,.55.58l.26.3.05.06,0,.06q.38.52.72,1.08a1.32,1.32,0,0,0,0,.59,5.6,5.6,0,0,0,.83,1.7,2,2,0,0,0,.18.21,1.5,1.5,0,0,0,.35,1.5,1.52,1.52,0,0,0,1.82.23,14,14,0,0,1,2.55-1.32,5.53,5.53,0,0,0,2.41-2A3.58,3.58,0,0,0,223,122.31Z"/><path class="cls-6" d="M130.11,162.25a.49.49,0,0,1-.37-.16.5.5,0,0,1,0-.71c.29-.26,7.3-6.44,19.42-5.06a.51.51,0,0,1,.44.56.5.5,0,0,1-.55.44c-11.66-1.33-18.58,4.74-18.65,4.8A.46.46,0,0,1,130.11,162.25Z"/><path class="cls-6" d="M142.52,173.73a.39.39,0,0,1-.15,0,.5.5,0,0,1-.33-.62c.11-.39,2.9-9.55,9.21-12.67a.49.49,0,0,1,.67.22.5.5,0,0,1-.22.67c-5.92,2.94-8.68,12-8.71,12.07A.49.49,0,0,1,142.52,173.73Z"/><path class="cls-6" d="M212.89,130.12a.51.51,0,0,1-.17,0,.49.49,0,0,1-.3-.64c3.39-9.69,10.69-10.26,11-10.28a.51.51,0,0,1,.53.46.49.49,0,0,1-.46.53c-.29,0-7,.58-10.13,9.62A.5.5,0,0,1,212.89,130.12Z"/><path class="cls-6" d="M211.57,135.27a.52.52,0,0,1-.38-.17.5.5,0,0,1,0-.7,10.62,10.62,0,0,1,10-2.6.5.5,0,0,1,.32.63.49.49,0,0,1-.63.32,9.63,9.63,0,0,0-9,2.39A.46.46,0,0,1,211.57,135.27Z"/><path class="cls-9" d="M139.47,156.68a1.38,1.38,0,0,0-.6-.55l-.1-.09a2.65,2.65,0,0,0-1.49-.86,1.85,1.85,0,0,0-.56-.08,3.23,3.23,0,0,0,.09-.39,3.18,3.18,0,0,0,0-1,1.87,1.87,0,0,0-.3-.76,2.49,2.49,0,0,0-.67-.95,1.14,1.14,0,0,0,.15-.65,7.29,7.29,0,0,0-3.26-5.52,8.33,8.33,0,0,0-6.41-1,1.07,1.07,0,0,1-.29.38,23.08,23.08,0,0,1-3.63,2.2,5.7,5.7,0,0,0-.87.63,1.3,1.3,0,0,1-.16.31,9.77,9.77,0,0,1-.63.81,17.6,17.6,0,0,0-1.1,1.57,1.27,1.27,0,0,1-.06.28l-.1.22c0,.09,0,.18,0,.28a12.44,12.44,0,0,1-.48,1.54c0,.28-.11.54-.18.8a3.39,3.39,0,0,0,.12.72,2.43,2.43,0,0,0,1.42,1.62,3.92,3.92,0,0,0,1.8.17,1.23,1.23,0,0,0,.73.46,17.36,17.36,0,0,0,7.85-.1,1.21,1.21,0,0,0,.31.47,4.13,4.13,0,0,0,.42.31,8.85,8.85,0,0,0-2.46,2.78,9,9,0,0,0-.85,2.11c-.1.36-.17.73-.28,1.09,0,0-.08.23-.09.28s-.26.42-.16.31a1.51,1.51,0,0,0,0,2.12,7.72,7.72,0,0,0,3.59,1.68,1.22,1.22,0,0,0,.9.28,13.07,13.07,0,0,0,2.45-.43,1.46,1.46,0,0,0,.87-.18l.27-.19c.34-.12.67-.26,1-.41a1.31,1.31,0,0,0,.65-.85l.39-.35a1.67,1.67,0,0,0,.6-.32,6.19,6.19,0,0,0,1.78-3.31c.07-.34.15-.69.21-1C140.88,159.64,140.26,158.06,139.47,156.68Z"/><path class="cls-6" d="M125.66,157.54h-.44c-1.86-.06-5.3-.16-6.29-2.24-.73-1.53-.07-4.11,1.67-6.57s4.92-5,8.47-4.68a9.15,9.15,0,0,1,6.06,3.61,6,6,0,0,1,1.38,4.53,1.72,1.72,0,0,1-.07.21.5.5,0,0,1-.66.23.5.5,0,0,1-.25-.64,5.2,5.2,0,0,0-1.2-3.73A8.17,8.17,0,0,0,129,145c-3.12-.33-5.94,2-7.55,4.27-1.48,2.1-2.13,4.39-1.57,5.56.72,1.53,3.88,1.62,5.4,1.67a18.31,18.31,0,0,0,5-.59.5.5,0,1,1,.25,1A19.92,19.92,0,0,1,125.66,157.54Z"/><path class="cls-6" d="M132.84,158.65a3.11,3.11,0,0,1-1.54-.37,3.68,3.68,0,0,1-1.63-3.46,4.6,4.6,0,0,1,2-3.28,3.82,3.82,0,0,1,3.21-.6,3.86,3.86,0,0,1,2.64,3.71h0A4.19,4.19,0,0,1,135.2,158,5,5,0,0,1,132.84,158.65Zm1.11-6.84a3,3,0,0,0-1.7.56,3.56,3.56,0,0,0-1.59,2.53,2.71,2.71,0,0,0,1.13,2.51,3.16,3.16,0,0,0,2.92-.29,3.3,3.3,0,0,0,1.84-2.51,2.87,2.87,0,0,0-1.94-2.71A2.44,2.44,0,0,0,134,151.81Zm3.09,2.82h0Z"/><path class="cls-6" d="M132.69,168.67h-.12s-4.71-.33-5.95-2.93c-.71-1.47,2.09-5.85,4.42-8.33a.5.5,0,0,1,.71,0,.5.5,0,0,1,0,.71c-2.72,2.9-4.57,6.55-4.25,7.22.88,1.84,4.45,2.34,5.07,2.36h.1c4,0,7.36-3.86,7.52-7.22,0-.56,0-3.41-1.82-4.59a3.2,3.2,0,0,0-1.42-.48.49.49,0,0,1-.45-.54.49.49,0,0,1,.54-.45,4.08,4.08,0,0,1,1.86.63c2.25,1.43,2.33,4.55,2.29,5.47C141,164.39,137.34,168.67,132.69,168.67Z"/><path class="cls-6" d="M187.38,151.81a6.35,6.35,0,0,1-5.78-4.18.5.5,0,0,1,.93-.37,5.37,5.37,0,0,0,4.85,3.55c3,0,5.38-2.76,5.38-6.15,0,0,0-.12,0-.15a6.26,6.26,0,0,0-.19-1.52.5.5,0,1,1,1-.24,6.88,6.88,0,0,1,.22,1.72,1.15,1.15,0,0,1,0,.19C193.76,148.6,190.9,151.81,187.38,151.81Z"/><path class="cls-6" d="M196.68,145.84a7.45,7.45,0,0,1-3.68-.9.49.49,0,0,1-.18-.68.51.51,0,0,1,.69-.19,6.3,6.3,0,0,0,3.17.77c2.41,0,4.43-1.12,4.43-2.44,0-.92-1-1.78-2.52-2.19a.5.5,0,0,1,.26-1c2,.54,3.26,1.78,3.26,3.16C202.11,144.33,199.73,145.84,196.68,145.84Z"/><path class="cls-6" d="M197.9,153.83c-1.82,0-4.48-3.17-6-5.21a.5.5,0,0,1,.11-.7.48.48,0,0,1,.69.1c3,4,4.84,5,5.36,4.79s.88-2.46-.36-7.49a.5.5,0,1,1,1-.24c.86,3.49,1.53,7.82-.18,8.63A1.4,1.4,0,0,1,197.9,153.83Z"/><path class="cls-6" d="M215.88,130.12a.49.49,0,0,1-.49-.45.5.5,0,0,1,.44-.55,9.31,9.31,0,0,0,6.7-3.63,3.24,3.24,0,0,0,.53-2.71c-.46-1.41-1.71-2.29-3.71-2.62a18.88,18.88,0,0,0-5-.08.5.5,0,0,1-.56-.43.49.49,0,0,1,.43-.56,20.21,20.21,0,0,1,5.33.08c2.37.39,3.93,1.53,4.5,3.3a4.17,4.17,0,0,1-.64,3.56,10.24,10.24,0,0,1-7.43,4.09Z"/><path class="cls-6" d="M213,123.69H213a.47.47,0,0,1-.35-.21,21.76,21.76,0,0,0-2.58-3.1.44.44,0,0,1-.08-.11s-.4-.72-1.08-1.86a.5.5,0,0,1-.06-.38.53.53,0,0,1,.24-.31,4.32,4.32,0,0,1,4.52-.06.7.7,0,0,1,.19.15,3.24,3.24,0,0,1,1,1.66,4.19,4.19,0,0,1,0,1.83h0a4.33,4.33,0,0,1-1.38,2.27A.53.53,0,0,1,213,123.69Zm-2.23-4a23.6,23.6,0,0,1,2.3,2.7,3.28,3.28,0,0,0,.68-1.34h0a3.17,3.17,0,0,0,0-1.37,2.3,2.3,0,0,0-.67-1.16l-.11-.09a3.15,3.15,0,0,0-3-.09Z"/><path class="cls-6" d="M213.41,118.66a.5.5,0,0,1-.31-.89c2.8-2.3,4.24-6.15,4-7-.69-2.15-3.4-2.58-3.52-2.6-3.3-.49-6.38,1.7-7.74,4.11a.5.5,0,0,1-.87-.49c1.52-2.71,5-5.16,8.76-4.61.14,0,3.44.55,4.32,3.27.48,1.42-1.25,5.61-4.27,8.09A.47.47,0,0,1,213.41,118.66Z"/><path class="cls-6" d="M170.52,141.1c-9.63-4.24-29.8,2.36-29.8,2.36l6.28.28L141.84,146l6.78-1.52-3.32,2.58A96.58,96.58,0,0,1,170.52,141.1Z"/><path class="cls-6" d="M145.3,147.59a.5.5,0,0,1-.43-.25.51.51,0,0,1,.12-.65l1.55-1.2-4.59,1a.49.49,0,0,1-.58-.33.48.48,0,0,1,.27-.61l3.22-1.44L140.7,144a.51.51,0,0,1-.48-.43.5.5,0,0,1,.34-.54c.83-.27,20.47-6.6,30.16-2.33a.5.5,0,0,1,.3.53.5.5,0,0,1-.45.42,96.57,96.57,0,0,0-25.08,6A.65.65,0,0,1,145.3,147.59Zm3.32-3.58a.52.52,0,0,1,.46.29.5.5,0,0,1-.15.61l-.75.58a102.2,102.2,0,0,1,20.06-4.64c-7.49-1.92-19.15.78-24.5,2.24l3.28.15a.5.5,0,0,1,.18,1l-.56.25,1.88-.42Z"/><path class="cls-6" d="M128,163l-.14,0a25.51,25.51,0,0,0-7.73-1l-.58,0c-1.5.06-3.06.13-4.34-.95-1.76-1.47-2.35-4.68-1.28-7a6.92,6.92,0,0,1,2.55-2.76l.1-.07a23.69,23.69,0,0,0-2.59.41c-2.86.54-4.63.82-5.09-.13a1.34,1.34,0,0,1,.12-1.21c.78-1.57,3.81-4.1,7.45-4.77a11.67,11.67,0,0,1,6.73.82.5.5,0,0,1-.39.92,10.72,10.72,0,0,0-6.15-.76c-4.13.76-7,3.93-6.86,4.58.35.25,2.73-.2,4-.44,2.6-.49,3.86-.69,4.15.13.2.57-.31.93-.9,1.34a5.92,5.92,0,0,0-2.21,2.36c-.88,1.91-.41,4.64,1,5.82,1,.83,2.23.78,3.66.72l.59,0a26.88,26.88,0,0,1,8,1,.5.5,0,0,1-.13,1Z"/><path class="cls-6" d="M219.19,120.14a.51.51,0,0,1-.5-.5.5.5,0,0,1,.29-.46c3.61-2.27,5.23-5.25,5-9.11a26.84,26.84,0,0,0-6.15-15.35,18.89,18.89,0,0,0-.79,4.53,9.21,9.21,0,0,0,.6,2.76c.28.84.45,1.34.11,1.7a.7.7,0,0,1-.74.16c-.56-.16-.91-.9-1.43-2a13.09,13.09,0,0,0-1-2c-1-1.44-2.77-2-3.06-1.85s0,1.28.15,2a20.61,20.61,0,0,1,.38,4.85,11.76,11.76,0,0,1-.59,3.06.5.5,0,0,1-.64.31.5.5,0,0,1-.31-.63,11,11,0,0,0,.55-2.8,20.26,20.26,0,0,0-.38-4.62c-.25-1.48-.41-2.45.19-3a1.34,1.34,0,0,1,1.06-.24,5.65,5.65,0,0,1,3.46,2.28,11.9,11.9,0,0,1,1,1.72,7.71,7.71,0,0,1-.26-1.77,21.74,21.74,0,0,1,1.11-5.73.49.49,0,0,1,.38-.33.51.51,0,0,1,.48.16,27.89,27.89,0,0,1,7,16.64c.3,4.28-1.49,7.57-5.47,10.06A.5.5,0,0,1,219.19,120.14Z"/></g><g id="Layer_16" data-name="Layer 16"><circle class="cls-10" cx="159.89" cy="114.3" r="64.68"/><path class="cls-11" d="M94.71,114.3a65.18,65.18,0,1,1,65.18,65.18A65.26,65.26,0,0,1,94.71,114.3Zm1,0a64.18,64.18,0,1,0,64.18-64.19A64.25,64.25,0,0,0,95.71,114.3Z"/></g><g id="Layer_19" data-name="Layer 19"><path class="cls-12" d="M296.36,60A31.09,31.09,0,0,0,289,39.79a31.23,31.23,0,0,0-18.26-10.57l-.31-.06a31.19,31.19,0,0,0-20.93,3.77,31.71,31.71,0,0,0-8.23,6.91,31.06,31.06,0,0,0-5.37,9.29,30.51,30.51,0,0,0-1.41,5.19,31.66,31.66,0,0,0-.51,5.36,31,31,0,0,0,1.77,10.59A31.43,31.43,0,0,0,241,79.63a31.07,31.07,0,0,0,18.26,10.9l.31,0a30.63,30.63,0,0,0,10.54.11,31.06,31.06,0,0,0,10.28-3.58,31.63,31.63,0,0,0,8.45-6.92A31.37,31.37,0,0,0,296.36,60Z"/><path class="cls-13" d="M265.19,91.59a32.27,32.27,0,0,1-5.69-.51l-.3-.06a31.43,31.43,0,0,1-10.29-3.91,31.71,31.71,0,0,1-15.43-27.43,32.86,32.86,0,0,1,.51-5.44A32.49,32.49,0,0,1,235.43,49a31.39,31.39,0,0,1,5.46-9.44,31.86,31.86,0,0,1,8.36-7,31.66,31.66,0,0,1,21.26-3.83l.32.06a31.59,31.59,0,0,1,18.55,10.74,31.52,31.52,0,0,1,7,26.09,30.69,30.69,0,0,1-1.47,5.38,31.6,31.6,0,0,1-14.22,16.6,31,31,0,0,1-10.44,3.64A30.18,30.18,0,0,1,265.19,91.59Zm-.07-62.38a29.85,29.85,0,0,0-5.42.49,30.39,30.39,0,0,0-9.95,3.67,30.75,30.75,0,0,0-8.1,6.8A30.84,30.84,0,0,0,235,54.41a31,31,0,0,0-.5,5.27A30.68,30.68,0,0,0,259.38,90l.3,0a30.57,30.57,0,0,0,20.48-3.42,30.81,30.81,0,0,0,8.32-6.81,30.41,30.41,0,0,0,5.45-9.27A30.88,30.88,0,0,0,295.86,60h0a30.62,30.62,0,0,0-7.24-19.88,30.67,30.67,0,0,0-18-10.41l-.31-.06A31.71,31.71,0,0,0,265.12,29.21Z"/><path class="cls-12" d="M311,76.9a48.4,48.4,0,0,1-8.63,14.7l-8.66-7.34A37.4,37.4,0,0,0,300.32,73Z"/><path class="cls-13" d="M302.33,92.1A.52.52,0,0,1,302,92l-8.66-7.34a.47.47,0,0,1-.17-.34.48.48,0,0,1,.12-.36,37,37,0,0,0,6.56-11.15.49.49,0,0,1,.64-.3l10.65,3.94a.5.5,0,0,1,.29.64,48.66,48.66,0,0,1-8.72,14.85A.49.49,0,0,1,302.33,92.1Zm-8-7.9,7.9,6.69a47.75,47.75,0,0,0,8.05-13.7l-9.71-3.59A37.56,37.56,0,0,1,294.37,84.2Z"/><path class="cls-12" d="M296.36,60A31.09,31.09,0,0,0,289,39.79a31.23,31.23,0,0,0-18.26-10.57l-.31-.06a31.19,31.19,0,0,0-20.93,3.77,31.71,31.71,0,0,0-8.23,6.91,31.06,31.06,0,0,0-5.37,9.29,30.51,30.51,0,0,0-1.41,5.19,31.66,31.66,0,0,0-.51,5.36,31,31,0,0,0,1.77,10.59A31.43,31.43,0,0,0,241,79.63a31.07,31.07,0,0,0,18.26,10.9l.31,0a30.63,30.63,0,0,0,10.54.11,31.06,31.06,0,0,0,10.28-3.58,31.63,31.63,0,0,0,8.45-6.92A31.37,31.37,0,0,0,296.36,60Z"/><path class="cls-13" d="M265.19,91.59a32.27,32.27,0,0,1-5.69-.51l-.3-.06a31.43,31.43,0,0,1-10.29-3.91,31.71,31.71,0,0,1-15.43-27.43,32.86,32.86,0,0,1,.51-5.44A32.49,32.49,0,0,1,235.43,49a31.39,31.39,0,0,1,5.46-9.44,31.86,31.86,0,0,1,8.36-7,31.66,31.66,0,0,1,21.26-3.83l.32.06a31.59,31.59,0,0,1,18.55,10.74,31.52,31.52,0,0,1,7,26.09,30.69,30.69,0,0,1-1.47,5.38,31.6,31.6,0,0,1-14.22,16.6,31,31,0,0,1-10.44,3.64A30.18,30.18,0,0,1,265.19,91.59Zm-.07-62.38a29.85,29.85,0,0,0-5.42.49,30.39,30.39,0,0,0-9.95,3.67,30.75,30.75,0,0,0-8.1,6.8A30.84,30.84,0,0,0,235,54.41a31,31,0,0,0-.5,5.27A30.68,30.68,0,0,0,259.38,90l.3,0a30.57,30.57,0,0,0,20.48-3.42,30.81,30.81,0,0,0,8.32-6.81,30.41,30.41,0,0,0,5.45-9.27A30.88,30.88,0,0,0,295.86,60h0a30.62,30.62,0,0,0-7.24-19.88,30.67,30.67,0,0,0-18-10.41l-.31-.06A31.71,31.71,0,0,0,265.12,29.21Z"/><path class="cls-12" d="M314,60.09,302.66,60a37.27,37.27,0,0,0-2.24-12.92l10.68-3.82A48.31,48.31,0,0,1,314,60.09Z"/><path class="cls-13" d="M314,60.59h0l-11.35-.06a.5.5,0,0,1-.5-.5A36.6,36.6,0,0,0,300,47.28a.49.49,0,0,1,.3-.64l10.68-3.82a.5.5,0,0,1,.64.3,48.74,48.74,0,0,1,2.95,17A.51.51,0,0,1,314,60.59Zm-10.86-1.06,10.36.06a47.81,47.81,0,0,0-2.72-15.66l-9.75,3.48A37.55,37.55,0,0,1,303.16,59.53Z"/><path class="cls-12" d="M273.59,11.79l-2,11.16a37.62,37.62,0,0,0-13,0L256.63,11.8A48.78,48.78,0,0,1,273.59,11.79Z"/><path class="cls-13" d="M258.55,23.49a.47.47,0,0,1-.28-.09.49.49,0,0,1-.21-.32l-1.92-11.2a.48.48,0,0,1,.4-.57,49.28,49.28,0,0,1,17.13,0,.5.5,0,0,1,.41.59l-2,11.16a.51.51,0,0,1-.58.41,36.86,36.86,0,0,0-12.83,0Zm-1.34-11.28L259,22.41a37.77,37.77,0,0,1,12.19,0L273,12.2A47.82,47.82,0,0,0,257.21,12.21Z"/><path class="cls-12" d="M289.16,102.44a48.63,48.63,0,0,1-16.05,5.66L271.2,96.91a37.45,37.45,0,0,0,12.33-4.33Z"/><path class="cls-13" d="M273.11,108.6a.51.51,0,0,1-.5-.41L270.7,97a.49.49,0,0,1,.09-.37.48.48,0,0,1,.33-.2,36.94,36.94,0,0,0,12.16-4.27.5.5,0,0,1,.68.19l5.63,9.85a.51.51,0,0,1,.05.38.48.48,0,0,1-.24.3,49.07,49.07,0,0,1-16.21,5.73Zm-1.34-11.28,1.75,10.21a48.16,48.16,0,0,0,15-5.28l-5.13-9A37.83,37.83,0,0,1,271.77,97.32Z"/><path class="cls-12" d="M246.38,27.46a37.48,37.48,0,0,0-9.92,8.31l-8.65-7.35A49.07,49.07,0,0,1,240.75,17.6Z"/><path class="cls-13" d="M236.46,36.27a.49.49,0,0,1-.32-.12l-8.66-7.34a.52.52,0,0,1-.06-.71A49.55,49.55,0,0,1,240.5,17.17a.5.5,0,0,1,.38-.05.47.47,0,0,1,.3.23l5.63,9.86a.49.49,0,0,1-.18.68,36.81,36.81,0,0,0-9.78,8.2.52.52,0,0,1-.35.18Zm-8-7.9,7.9,6.7a37.66,37.66,0,0,1,9.29-7.79l-5.14-9A48.35,48.35,0,0,0,228.51,28.37Z"/><path class="cls-12" d="M228.28,53.2a36.37,36.37,0,0,0-.61,6.45l-11.36-.06a50.39,50.39,0,0,1,.8-8.42A49.61,49.61,0,0,1,219.32,43L230,46.94A36.76,36.76,0,0,0,228.28,53.2Z"/><path class="cls-13" d="M227.67,60.15h0l-11.36-.06a.51.51,0,0,1-.5-.5,50.61,50.61,0,0,1,3-16.76.51.51,0,0,1,.26-.28.53.53,0,0,1,.39,0l10.66,3.94a.55.55,0,0,1,.28.26.5.5,0,0,1,0,.38,36.84,36.84,0,0,0-1.68,6.18h0a37,37,0,0,0-.6,6.37A.52.52,0,0,1,228,60,.52.52,0,0,1,227.67,60.15Zm-10.85-1.06,10.36.06a37.36,37.36,0,0,1,.61-6h0a37.25,37.25,0,0,1,1.55-5.87l-9.72-3.59a50.51,50.51,0,0,0-2,7.61A48.77,48.77,0,0,0,216.82,59.09Zm11.46-5.89h0Z"/><path class="cls-12" d="M302.58,28.52l-8.72,7.25a37.26,37.26,0,0,0-10-8.39l5.72-9.81A48.16,48.16,0,0,1,302.58,28.52Z"/><path class="cls-13" d="M293.86,36.27a.48.48,0,0,1-.38-.18,36.64,36.64,0,0,0-9.9-8.28.48.48,0,0,1-.24-.3.55.55,0,0,1,.05-.38l5.73-9.81a.49.49,0,0,1,.68-.18A48.51,48.51,0,0,1,303,28.2a.52.52,0,0,1,.11.36.45.45,0,0,1-.18.34l-8.72,7.25A.51.51,0,0,1,293.86,36.27Zm-9.35-9.07a37.6,37.6,0,0,1,9.41,7.87l8-6.61a47.51,47.51,0,0,0-12.15-10.2Z"/><path class="cls-12" d="M236.17,83.66l-8.73,7.25a49,49,0,0,1-8.32-14.69l10.69-3.83A37.57,37.57,0,0,0,236.17,83.66Z"/><path class="cls-13" d="M227.44,91.41h0a.45.45,0,0,1-.34-.18,49.27,49.27,0,0,1-8.41-14.84.51.51,0,0,1,.31-.64l10.68-3.83a.53.53,0,0,1,.39,0,.49.49,0,0,1,.25.28,37,37,0,0,0,6.28,11.12.5.5,0,0,1-.07.7l-8.73,7.26A.52.52,0,0,1,227.44,91.41Zm-7.67-14.89a48.28,48.28,0,0,0,7.74,13.69l8-6.62a37.81,37.81,0,0,1-6-10.56Z"/><path class="cls-12" d="M258.16,96.73l-2,11.17a48.85,48.85,0,0,1-15.87-6l5.74-9.8A37.53,37.53,0,0,0,258.16,96.73Z"/><path class="cls-13" d="M256.13,108.39H256a49.3,49.3,0,0,1-16-6,.49.49,0,0,1-.18-.68l5.73-9.8a.48.48,0,0,1,.31-.23.46.46,0,0,1,.38,0,37.15,37.15,0,0,0,12,4.55.5.5,0,0,1,.4.58l-2,11.16a.49.49,0,0,1-.21.33A.54.54,0,0,1,256.13,108.39ZM241,101.74a48,48,0,0,0,14.78,5.57l1.85-10.19a37.57,37.57,0,0,1-11.4-4.32Z"/></g></g></g></svg>