<svg xmlns="http://www.w3.org/2000/svg" viewBox="0 0 294.42 215.66"><defs><style>.cls-1{isolation:isolate;}.cls-2{fill:#4e7dbf;}.cls-3{fill:#f7c830;}.cls-4{fill:#2d2e83;}.cls-5{fill:#824d18;}.cls-6{fill:#fffcf1;}.cls-7{fill:#fbd2bb;}.cls-8{fill:#f7c0d8;}.cls-9{fill:#f6b9d5;}.cls-10{fill:#1d1d1b;}.cls-11{fill:#f6df4c;}.cls-12{fill:#f39200;}.cls-13{fill:#1d71b8;opacity:0.43;mix-blend-mode:color-burn;}.cls-14{fill:#312783;}</style></defs><g class="cls-1"><g id="Snoozer"><g id="Layer_8" data-name="Layer 8"><path class="cls-2" d="M186.56,150.76a6.15,6.15,0,0,0-1.6-3.16c-.28-.78-.58-1.55-.9-2.32a13.58,13.58,0,0,0-1.08-2c-.64-1.38-1.32-2.76-2.06-4.1a7.91,7.91,0,0,0-1.31-1.76c-.23-.4-.45-.82-.7-1.22a8.68,8.68,0,0,0-2.32-2.5c-.79-1-1.62-2-2.5-3a7.84,7.84,0,0,0-6.29-2.44,8,8,0,0,0-8.49,1.91,6.76,6.76,0,0,0-.64.76c-3.55-2.25-7.35-3.31-11-1.9-5,2-8.09,7.34-5.08,12.49,4.74,8.08,11.13,18,11.12,27.78,0,3.82-4.12,6.22-6.78,8.59-3.52,3.12-7.3,5.88-11.83,7.29-8.92,2.79-7.63,16.91,2.26,16.7,13.78-.29,25.45-4.31,36.11-13.2C185.08,179,188.66,166.43,186.56,150.76Z"/><path class="cls-2" d="M235.91,162.08a9.72,9.72,0,0,0,.18-1.51,31.41,31.41,0,0,0-.83-22.88,12.72,12.72,0,0,0-1.56-3.19l-.3-.39a40.41,40.41,0,0,0-4.05-6.69,11.26,11.26,0,0,0-1.83-1.94c-.87-1-1.77-2.06-2.74-3a9.46,9.46,0,0,0-2.65-1.88,50.78,50.78,0,0,0-11.4-8.86,7.77,7.77,0,0,0-2.38-.89l-1.42-.94a7.55,7.55,0,0,0-2.86-1.16,79.88,79.88,0,0,0-25.55-9.47,17.44,17.44,0,0,0-5.69-1.35,4.21,4.21,0,0,0-.87,0h-.08a7.35,7.35,0,0,0-1.6-.11c-1.11-.13-2.22-.2-3.34-.24a19.2,19.2,0,0,0-4.55-.22,8.68,8.68,0,0,0-1.19.2l-3.52-.34a5.34,5.34,0,0,0-2.53.34,114.91,114.91,0,0,0-49.46,12.28c-8.89,2.42-7.25,17.47,2.42,16.65.42,0,.81-.09,1.21-.15a9.61,9.61,0,0,0,5.09-1.58,8.76,8.76,0,0,0,1.81-1.2,96.72,96.72,0,0,1,33.3-8.86,12,12,0,0,0-.74,1.43c-1.65,3.77-1.38,7.16,1.33,10.3,2.41,2.82,5.69,4.06,8.76,6a35.56,35.56,0,0,1,7.61,6.5A50.38,50.38,0,0,1,177.54,158c2.09,7.21.62,12.64-4.91,17.65a42.38,42.38,0,0,1-19.91,9.7c-8,1.71-8.23,14.84,0,16.39a51.26,51.26,0,0,0,12.05.75c.24,0,.48,0,.71-.06,9.82.57,19.36-1.68,27.49-7.74a9.87,9.87,0,0,0,2.46-2.61c.73-.75,1.43-1.52,2.1-2.3,1.79-2.1,4-6,6.59-7a11.16,11.16,0,0,0,4.55-3.37c.43-.22.88-.43,1.33-.62a9,9,0,0,0,3-1.37,10.44,10.44,0,0,0,1.51-.23l3.18-.76a7.46,7.46,0,0,0,2.44-1.08l.51-.17a6.82,6.82,0,0,0,1.08.27,14.68,14.68,0,0,1,2.39-1l.53-.18a11,11,0,0,1,1.33-.45,9.86,9.86,0,0,1,1.08-.38,4.84,4.84,0,0,1,1.25-.14l.35-.36c1-1.18,2-2.39,2.86-3.63a13.29,13.29,0,0,0,2.18-2.85,6.23,6.23,0,0,0,1.74-2.89l.13-.49h0A6.44,6.44,0,0,0,235.91,162.08Z"/><path class="cls-3" d="M198.49,159.11c-1.73-18.61-14-38.57-33.19-43-7.06-1.63-10.6,7.58-6.1,11.28a4.6,4.6,0,0,1,1.33-2.4c1.76-1.72,5.41-2.15,7.07,0,.64.82,1.36,1.65,2.11,2.48a5.55,5.55,0,0,1,1.22.73c.17.13.31.27.47.41a5,5,0,0,1,1.59,1.14l2.87,3a5.6,5.6,0,0,1,.93,1.26c.44.56.88,1.14,1.28,1.76l.08.13,0,.07c.28.32.54.65.8,1,.54.64,1.09,1.27,1.62,1.92a5.44,5.44,0,0,1,1.11,2.35l.18.33a2.53,2.53,0,0,1,.12.23,4.54,4.54,0,0,1,1,1.31,22.52,22.52,0,0,1,1.54,3.66.83.83,0,0,0,0,.15,6.22,6.22,0,0,1,.65,1.23c.1.27.2.55.29.83l.12.21c.18.42.34.81.5,1.2h0v.05a10.47,10.47,0,0,1,.68,2.36,6.45,6.45,0,0,1,.06,1.37c.14.79.27,1.59.37,2.38a5.83,5.83,0,0,1,.15,1,14.44,14.44,0,0,1,.06,1.61,6.07,6.07,0,0,1-.13,1.25,30.92,30.92,0,0,1-.68,5.75,5.37,5.37,0,0,1-.34,1.07q-.07.43-.18.87a3.53,3.53,0,0,1,0,.46c0,.38-.07.74-.13,1.08a4.28,4.28,0,0,1-.67,2.42,3.73,3.73,0,0,0-.4.63c0,.09-.13.17-.18.26s0,.22-.06.32a4.86,4.86,0,0,1-.25.67c-.64,2.43-1.38,4.84-3.33,6.58a4.8,4.8,0,0,1-.53.39l-.59.91a5.68,5.68,0,0,1-.62,1.7,9.32,9.32,0,0,1-1,1.63,1.89,1.89,0,0,1-.27.38,5.35,5.35,0,0,1-2,1.68,4.73,4.73,0,0,1-1.6.59,38.65,38.65,0,0,1-11.78,8.65,6.24,6.24,0,0,0-2.16,1.56,53.68,53.68,0,0,1-8.38,3.31,5.23,5.23,0,0,1,.9.2c1.13.34,2.17.76,3.28,1.09h.15c1.27.06,2.52.25,3.77.42a56.37,56.37,0,0,1,6.5-.08c1.56-.11,3.12-.1,4.69-.11a4.13,4.13,0,0,1,1.07.12,5.57,5.57,0,0,1,2-.64,16.11,16.11,0,0,1,2.08-.21c.47-.07,1-.11,1.43-.14a74.33,74.33,0,0,0,12.47-14.14A43.09,43.09,0,0,0,198.49,159.11Z"/><path class="cls-3" d="M220,168.45a14.65,14.65,0,0,1-.23-3.87c-.07-.59-.13-1.17-.17-1.76a6.24,6.24,0,0,1-.75-2.6c0-.35,0-.71-.07-1.07a10.46,10.46,0,0,1-.19-2.16,3.9,3.9,0,0,1,.13-2.22c.17-.45.24-1,.15,0a0,0,0,0,1,0,0,.19.19,0,0,1,0-.08,6.59,6.59,0,0,1,.23-1c-.08-1-.15-2-.18-3a5.2,5.2,0,0,1-.08-2.27l.12-1.12H219c0-.45.06-.89.12-1.34a4.93,4.93,0,0,1,.22-.88,71.26,71.26,0,0,0-21.52-28.65c-24.81-19.66-61.28-21.48-87.31-2.9-4.37,3.12-3.19,9,0,11.35,5.43-5.28,16.22-9.32,19.72-10.58,14.73-5.32,29.95-5.3,44.5.68,13.37,5.5,25.08,14.47,32.37,27.08a64.38,64.38,0,0,1,8.14,21.5,67.49,67.49,0,0,1,1.1,13.4h0a1.84,1.84,0,0,0,.25-.09,5.86,5.86,0,0,1,1.37-.23l.13,0,.29-.12c1.16-.49,2.29-1,3.45-1.39A20.88,20.88,0,0,1,220,168.45Z"/></g><g id="Layer_5" data-name="Layer 5"><path class="cls-4" d="M139,201.51a66.39,66.39,0,0,1-22.28-3.91l.34-.94a66,66,0,0,0,7.53,2.2c13.84,3.17,27.85,1.74,39.45-4s19.36-15.09,21.93-26.34c3-13.27-1.59-27.19-12.68-38.2l.7-.71c11.35,11.26,16.07,25.52,13,39.13-2.65,11.55-10.62,21.15-22.47,27A57.28,57.28,0,0,1,139,201.51Z"/><path class="cls-4" d="M165.21,203.39a58.23,58.23,0,0,1-17.13-2.61l.3-1a56.57,56.57,0,0,0,21.13,2.4,45,45,0,0,0,18.31-4.68,27.32,27.32,0,0,0,9.81-8.37,35.81,35.81,0,0,1,9.1-8.58A36.6,36.6,0,0,1,220.66,175c3.84-.83,6.87-1.5,10.14-4.86,5.12-5.26,7.35-13.8,6.28-24.06-2.38-23.14-29.5-35.81-38.41-40l-.28-.14c-28.08-13.14-55-7.59-63.89-5.77a113.35,113.35,0,0,0-29.06,10.23l-.46-.89A114.61,114.61,0,0,1,134.3,99.2c8.94-1.84,36.14-7.43,64.51,5.85l.29.13c9,4.22,36.53,17.07,39,40.78,1.1,10.55-1.23,19.38-6.55,24.86-3.49,3.58-6.8,4.3-10.64,5.14a35.54,35.54,0,0,0-13.6,5.47,35.08,35.08,0,0,0-8.88,8.36,27.9,27.9,0,0,1-10.12,8.63,45.94,45.94,0,0,1-18.69,4.8C168.13,203.33,166.67,203.39,165.21,203.39Z"/><path class="cls-4" d="M221.49,175.37a67,67,0,0,1-3.41-21.7c0-11.84,2.74-22.95,7.53-30.47l.84.54c-4.69,7.36-7.37,18.27-7.37,29.93a66.25,66.25,0,0,0,3.35,21.38Z"/></g><g id="Layer_7" data-name="Layer 7"><path class="cls-5" d="M171.2,121.49a18.94,18.94,0,0,0-4.25-5,5.2,5.2,0,0,0-.72-.78l-.34-.3h0a25.46,25.46,0,0,0-3.06-2.33,1.77,1.77,0,0,0-.61-.75,8.88,8.88,0,0,0-1.67-1c-.16-.08-.34-.14-.51-.21l-.12-.1a4.78,4.78,0,0,0-.91-.44,9.24,9.24,0,0,0-1.72-.66,1.06,1.06,0,0,0-.35,0,5.78,5.78,0,0,0-3.3-.89,4.2,4.2,0,0,0-.51.05,19.11,19.11,0,0,0-15.87,2.63,4.81,4.81,0,0,0-2.16,1.46c-.41.46-.79.93-1.16,1.41l-.06.07-.47.64c-.1.13-.21.24-.31.37a3.37,3.37,0,0,0-.31.46l-.39.58c-.1.1-.2.21-.31.31a4.62,4.62,0,0,0-2.08-.19l-.25,0a1.35,1.35,0,0,0,.09-1,1.54,1.54,0,0,0-1.85-1l-1,.23-.1,0a2.89,2.89,0,0,0-1,.13l-.07,0-1.26.17a1.33,1.33,0,0,0,0-.71,1.53,1.53,0,0,0-1.85-1,31.17,31.17,0,0,1-3.55,1l-.28.07.2-.09,0,0a1.52,1.52,0,0,0,.58-1.86,1.5,1.5,0,0,0-1.77-.87l-1.73.58-.13,0,0,0-.11,0a2,2,0,0,0-.6,0,3,3,0,0,0-.49.07l-.06,0-.26.11a4.58,4.58,0,0,0-4-.7,24,24,0,0,0-3.57,1.34s-.78.06-.82.08c-.71-3.48-1.76-6.69-3.91-9-4.33-4.64-12.77-6-18.42-3.6S71,108.87,69.25,114.86c-2,6.78.4,11.9,4.72,17a12.9,12.9,0,0,0,4.45,2.32c.25,4.63,5.39,3.8,7.45.84,3-.46,5.56-2.05,8.6-4,.37-.24,1.49-.65,2-.95a31.53,31.53,0,0,0,2,2.66A27.6,27.6,0,0,1,103,142c1,4.11,5.62,4.43,8.15,2.19a4.78,4.78,0,0,0,3.63-3.35c.18-.52.33-1.05.47-1.58,2.59,1.31,5.78.94,7.51-1.82,6.66.72,13.21,1.68,18.22,6.65a4.56,4.56,0,0,0,4.95,1.17,41.94,41.94,0,0,1,2.58,11,5.07,5.07,0,0,0-.23,1.33l-.21,4.21a4.66,4.66,0,0,0,.4,2.17,1.15,1.15,0,0,0,0,.19c-.42,6.54,9.22,6.21,10,0,0-.22,0-.43.06-.65a5.17,5.17,0,0,0,.08-.89A46.1,46.1,0,0,0,157,146.89a5.46,5.46,0,0,0,1.71-.27l1-.3a1.39,1.39,0,0,0,.88,0l1.4-.41a1.33,1.33,0,0,0,.32-.15l1.22-.3a1.43,1.43,0,0,0,.53-.28l.09,0a2.08,2.08,0,0,0,.51-.27h0l.12-.05a1.08,1.08,0,0,0,.29-.13l.19-.1.21-.1v0l.07,0a3.31,3.31,0,0,0,.47-.29h0l.2-.15a4,4,0,0,0,1.07-.81l.49-.29a4.81,4.81,0,0,0,.9-.7,6,6,0,0,0,1.47-1.71,5.13,5.13,0,0,0,2.11-2.59c.14-.37.29-.73.43-1.1a4,4,0,0,0,.23-1.15A19.62,19.62,0,0,0,171.2,121.49Z"/><path class="cls-6" d="M148.76,184a46.54,46.54,0,0,1-10.63,7.91l-5.63,3L124.34,196l-9.4,1.13h-5.51l-7.56-1.71-8.47-2.9-12.89-6.61-4.36-4.84-3.92-5.28-1.38-3.91-1.2-2.16L68.55,164l1.64-6.48,2-6.11,2.67-5.45,1.34-4.46,1.55-3.73s2.15-3.4,4.58-4.81l2.81-2.18a9.78,9.78,0,0,1,6.65-2.64c4.13,0,10.66,2.7,13.59,16.11l.51,0s5.28-8.61,12.79-10.45,15-2.74,22.07,1.89,12.49,10.55,13.93,15.42,3.78,10.57,2.46,18.67S148.76,184,148.76,184Z"/><polygon class="cls-7" points="100.95 166.96 96.34 163.98 104.71 164.93 100.95 166.96"/><path class="cls-8" d="M170.34,132.32a2.17,2.17,0,0,0-.16-.38,10.78,10.78,0,0,0-1.33-3.15,15.12,15.12,0,0,0-.93-1.6,1.61,1.61,0,0,0-.39-1.38,7.79,7.79,0,0,0-4.69-2.78,10.3,10.3,0,0,0-4.55-.51,1.74,1.74,0,0,0-.95.46,4.89,4.89,0,0,0-1.68.69,7.37,7.37,0,0,0-1.58.75,1,1,0,0,0-.15.14,1.93,1.93,0,0,0-1.14.29,1.44,1.44,0,0,0-.6.6q-.51.31-1.05.6a1.32,1.32,0,0,0-.72,1.27l-.12.11a5.46,5.46,0,0,0-.45.39,1.27,1.27,0,0,0-.24.28.62.62,0,0,0-.09.32.57.57,0,0,0,.08.28.58.58,0,0,0,.19.19.47.47,0,0,0,.51,0c.21-.13.42-.26.62-.41a1.23,1.23,0,0,0,1.37.31l.69-.22a1.32,1.32,0,0,0,.8.53,1.56,1.56,0,0,1,1,2.54,1.54,1.54,0,0,0,.89,2.55c0,.12,0,.23,0,.35a2.59,2.59,0,0,1-1.94,2.14,1.5,1.5,0,0,0-.89,2.2,20.29,20.29,0,0,1,3.44,7,1.51,1.51,0,0,0,1.45,1.1A16.28,16.28,0,0,0,170.49,140a1.24,1.24,0,0,0,.19-1.18A12.69,12.69,0,0,0,170.34,132.32Z"/><path class="cls-8" d="M89.52,113.94a14.75,14.75,0,0,0-5.71-4.33,6.18,6.18,0,0,0-3.65-.65,4.81,4.81,0,0,0-1.75.76c-4.1,1.48-5,6.54-5,10.4a17.83,17.83,0,0,0,1.29,6.45,23.9,23.9,0,0,0,2.85,6.07,1.52,1.52,0,0,0,2.8-.75c.06-.62.72-1.25,1.09-1.73s.78-1,1.2-1.46a12.33,12.33,0,0,1,3-2.54,1.55,1.55,0,0,0,.69-1.7,8.67,8.67,0,0,1-.44-3.16A3,3,0,0,1,86,120c.22-.28.49-.2.9-.18a1.5,1.5,0,0,0,1.5-1.5c-.08-.67.37-1.18.35-1.82A1.58,1.58,0,0,0,89.52,113.94Z"/><ellipse class="cls-9" cx="140.14" cy="178.56" rx="3.53" ry="6.5" transform="translate(-63.2 279.43) rotate(-78.26)"/><path class="cls-9" d="M73.13,162.91a9.83,9.83,0,0,0-4.48,1.32,4.49,4.49,0,0,1,.16,1.15,19.68,19.68,0,0,0,.11,2.3,3,3,0,0,1,0,.52s0,.06,0,.1l.12.57c0,.15,0,.3.07.45a10,10,0,0,0,4.45.64c3.58-.25,6.38-2,6.24-4S76.71,162.66,73.13,162.91Z"/><path class="cls-10" d="M159.08,179.26l-.38-.32c-.06-.05-6-4.83-17-1.95l-.25-1c10.09-2.62,16,.79,17.55,1.86l2.28-2.64.75.65Z"/><path class="cls-10" d="M145.61,188.41c-1.44,0-2.84-.29-3.21-1.34l.94-.34c.31.9,3.16.76,5.16.36.49-2,.25-3.56-.71-4.69-2.4-2.83-8.55-2.19-8.61-2.19l-.11-1c.28,0,6.73-.7,9.48,2.53,1.24,1.45,1.52,3.44.83,5.9l-.08.29L149,188A17,17,0,0,1,145.61,188.41Z"/><path class="cls-10" d="M72.32,165.14a10.69,10.69,0,0,0-9.3-3.3l-.52.11-.08-.53c-.06-.44-.57-4.35.69-5.81a1.66,1.66,0,0,1,1.27-.59v1a.62.62,0,0,0-.51.25c-.66.75-.67,3-.52,4.52a11.52,11.52,0,0,1,9.71,3.68Z"/><path class="cls-10" d="M65.71,168.18c0-2,.25-3,.9-3.37s1.56,0,2.65.63a9.22,9.22,0,0,0,5,1.49l0,1a10.21,10.21,0,0,1-5.5-1.61c-.67-.37-1.44-.78-1.66-.65s-.41.47-.41,2.51Z"/></g><g id="Layer_3" data-name="Layer 3"><path class="cls-10" d="M156.49,147.49l0-1c6.77-.24,12.4-3.45,15.07-8.59,4.53-8.73-.62-20.42-11.47-26.08s-23.4-3.12-27.94,5.6a13.5,13.5,0,0,0-.84,2c-.23.7-1.1.62-.94-.32a7.48,7.48,0,0,1,.89-2.12c4.8-9.21,17.94-11.92,29.29-6s16.68,18.21,11.89,27.42C169.57,143.82,163.62,147.24,156.49,147.49Z"/><path class="cls-10" d="M78.6,134.59l-.11-.11a20.46,20.46,0,0,1-4.84-8.43c-2.43-8-.09-15.89,5.22-17.51,4.2-1.26,9.1,1.65,12.19,7.25a21.89,21.89,0,0,1,1.87,4.41c.22.73-.56,1.51-1,.28a23.48,23.48,0,0,0-1.79-4.2c-2.85-5.18-7.28-7.91-11-6.78-4.78,1.46-6.83,8.75-4.55,16.26a19.79,19.79,0,0,0,4.59,8l.1.09Z"/><path class="cls-10" d="M88.69,122.17l-.17-.5a10.37,10.37,0,0,1-.34-1.15v-.06c-.58-2.52-.09-4.51,1.24-5a1.85,1.85,0,0,1,1.41.09l-.4.92a.86.86,0,0,0-.67-.07c-.69.24-1.1,1.75-.6,3.87l0,.06a8.38,8.38,0,0,0,.29,1l.18.52C89.81,122.4,88.88,122.75,88.69,122.17Z"/><path class="cls-10" d="M79.1,135l-.39-.13-.2-.08a15.07,15.07,0,0,1-7.09-5,15.86,15.86,0,0,1-2.77-13.23,22,22,0,0,1,8.16-12.65c8.77-6.82,20.62-6.3,26.42,1.15a14.43,14.43,0,0,1,2.6,5.21c.07.25.14.51.19.77a14,14,0,0,1,.31,2l-1,.09a13.86,13.86,0,0,0-.29-1.88c-.05-.26-.11-.49-.17-.72a13.4,13.4,0,0,0-2.43-4.86c-5.46-7-16.68-7.46-25-1a21,21,0,0,0-7.79,12.07,14.86,14.86,0,0,0,2.58,12.4,14,14,0,0,0,6.43,4.61l1.09-1.95a29.75,29.75,0,0,1,4.2-5.13c.63-.56,1.28-1.11,1.95-1.63-.11-.26-.22-.51-.31-.77a6,6,0,0,1-.14-4.31,1.81,1.81,0,0,1,1-1,2.5,2.5,0,0,1,2.59,1l.13.33h-.51l-.36.33c-.56-.61-1.12-.9-1.51-.76a.85.85,0,0,0-.46.47,5.06,5.06,0,0,0,.18,3.54,7.65,7.65,0,0,0,.44,1l.19.37-.33.26c-.76.59-1.5,1.2-2.21,1.83a29.06,29.06,0,0,0-4,4.9Z"/><path class="cls-10" d="M148.67,135.17a6.26,6.26,0,0,1-1.48-.17s-.77-.13-.62-.71c.1-.43.86-.26.86-.26a5.51,5.51,0,0,0,1.56.13,8,8,0,0,0,2.18-.38A8.34,8.34,0,0,0,153,133c1.47-.85,2.29-2,2-2.8-.32-1-2.52-1.62-5.18-.81-.25.08-.51.17-.76.27l-1.32.56.69-1.26a13.36,13.36,0,0,1,11.69-6.91c6.34,0,13.14,7.54,10.95,17.13,0,0,1.53-1.26,1.08-1s-2.31,2.22-2.31,2.22c2.53-9.9-3.92-17.39-9.72-17.37a12.39,12.39,0,0,0-10.1,5.25c2.87-.73,5.43-.06,5.94,1.6.4,1.31-.58,2.86-2.49,4a9.86,9.86,0,0,1-2,.87,9.05,9.05,0,0,1-2.43.42Z"/><path class="cls-10" d="M116.77,197.63c-1.26,0-2.52,0-3.8-.13-.58,0-1.17-.09-1.74-.15l-.11,0a60.69,60.69,0,0,1-18.61-5,47,47,0,0,1-4.65-2.43l-.23-.14a79.89,79.89,0,0,1-10.73-7.66,24.79,24.79,0,0,1-8.64-17.88c-.1-4.67.9-7.53,3.16-12.17a77.5,77.5,0,0,0,4.87-11.85c.46-1.38,1-3,1.72-5a8.59,8.59,0,0,1,.41-1,1.45,1.45,0,0,1,.08-.18l.89.45,0,.12a7.87,7.87,0,0,0-.39.93c-.73,2-1.26,3.62-1.71,5a78.89,78.89,0,0,1-4.92,12c-2.46,5-3.15,7.67-3.06,11.72a23.78,23.78,0,0,0,8.3,17.14,78,78,0,0,0,10.58,7.56l.24.14a43,43,0,0,0,4.55,2.38,59.57,59.57,0,0,0,18.37,4.93l.1,0,1.64.13a51.88,51.88,0,0,0,6.59.05c1.35-.08,2.73-.22,4.1-.41a47.25,47.25,0,0,0,8-1.86l1.05-.36c3.7-1.32,14.59-6.81,20.37-16.19a31.94,31.94,0,0,0,3.21-7l0-.09a38.79,38.79,0,0,0-.39-23.52,46.35,46.35,0,0,0-4.19-9.47l-.32-.53.59-.19c2.18-.71,3.29-1.9,3.13-2.43-.1-.31-.76-.62-2-.58l0-1c1.59-.07,2.69.41,3,1.28.4,1.33-1.23,2.69-3.2,3.47a47.1,47.1,0,0,1,4,9.15,39.75,39.75,0,0,1,.42,24l0,.09a32.48,32.48,0,0,1-3.33,7.27c-7.15,11.61-20.76,16.56-20.89,16.61l-1.14.39a48.66,48.66,0,0,1-8.08,1.88c-1.42.2-2.82.34-4.19.42C118.73,197.61,117.76,197.63,116.77,197.63Z"/><path class="cls-10" d="M141,173.42c-.13-.08-12.57-6.92-21.62-10.66l.33-.94c9.43,2.64,24.55,8.65,24.68,8.72l-4,.36Z"/><path class="cls-10" d="M71.2,162.63l1.61-2.12-2.12-.92a132.6,132.6,0,0,1,20.75-3.44l.07,1A115.75,115.75,0,0,0,71.2,162.63Z"/><path class="cls-10" d="M110,180.53a14.74,14.74,0,0,1-2.76-.27c-4.43-.86-7.82-3.5-8.23-6.4a3.76,3.76,0,0,1,0-1.34,4,4,0,0,1,.44-1.2s.47,2,.52,2.4c.35,2.45,3.47,4.79,7.43,5.56,4.61.89,8.79-.61,9.32-3.33.4-2.1-1.5-4.41-4.73-5.77,0,0-.7-.23-.56-.69s.75-.27.75-.27l.2,0c3.68,1.54,5.81,4.3,5.32,6.88S114,180.53,110,180.53Z"/><path class="cls-10" d="M94.83,175.79a12.18,12.18,0,0,1-2.29-.23,9.2,9.2,0,0,1-5.86-3.34,3.41,3.41,0,0,1-.62-2.59c.29-1.48,1.65-2.61,3.74-3.1,0,0,.75-.19.84.3s-.61.68-.61.68c-1.69.39-2.78,1.23-3,2.31a2.47,2.47,0,0,0,.47,1.84,8.29,8.29,0,0,0,5.22,2.92c2.61.51,5.19,0,6.41-1.15l.7.72A7.24,7.24,0,0,1,94.83,175.79Z"/><polygon class="cls-10" points="112.2 170.22 112.19 170.22 112.19 169.22 112.2 170.22"/><path class="cls-10" d="M100.86,167.43a1,1,0,0,1-.56-.16h0l-4.74-2.93a.58.58,0,0,1-.25-.71.59.59,0,0,1,.64-.4l9.23,1.19s.42,0,.46.28a.47.47,0,0,1-.3.48l-.34.22-3.64,1.91A1.08,1.08,0,0,1,100.86,167.43Zm0-1a.08.08,0,0,0,.08,0l2.36-1.25-5.62-.72Z"/><polygon class="cls-10" points="123.82 197.13 123.8 196.13 123.81 196.13 123.82 197.13"/><path class="cls-10" d="M157.35,170.9l-1-.09a35,35,0,0,0,.56-6.19c0-17.51-13.2-31.75-29.42-31.75-9.24,0-15.89,3.78-21.56,12.27l-.55.8-.28-1.36c5.87-8.79,12.78-12.71,22.39-12.71,16.77,0,30.42,14.69,30.42,32.75A34.36,34.36,0,0,1,157.35,170.9Z"/><path class="cls-10" d="M105,145c-2.69-11.14-6.19-14.65-11.74-16.12-4.06-1.08-9.75,2.34-15.44,9.67l-.79-.61c6-7.68,12-11.22,16.49-10,7.07,1.88,10,6.78,12.45,16.85l-.62,1.2Z"/><polygon class="cls-10" points="107.21 116.32 106.49 115.63 107.22 116.31 107.21 116.32"/><path class="cls-10" d="M100.36,117.29s-.48.56-.85.26.11-.93.11-.93a17.61,17.61,0,0,1,6-4l.2-.08c4.15-1.71,6.29-2.22,7.35-1.77a1.32,1.32,0,0,1,.72.73c.3.76-.39,1.21-1.11,1.69-.25.16-.52.35-.83.57l-.27-.12,0,.23v-.5l-.34-.36.08,0,0,0c.32-.24.62-.43.88-.6a3.79,3.79,0,0,0,.74-.56s-.07-.06-.19-.11c-.73-.31-3,.29-6.61,1.78l-.2.08A16.47,16.47,0,0,0,100.36,117.29Z"/><path class="cls-10" d="M107.15,116.36s-.77.48-1,.18.31-.91.31-.91l.07-.07a23.39,23.39,0,0,1,4.82-2.58l.11.07.06-.15.17-.07c3.52-1.39,6.76-2,8.06-1.38a1.17,1.17,0,0,1,.68.66c.33.81-.38,1.82-2.1,3l-.57-.82c1.61-1.11,1.79-1.72,1.74-1.82s0-.07-.15-.11c-.87-.39-3.72,0-7.3,1.4l-.13,0-.2.09A22.48,22.48,0,0,0,107.15,116.36Z"/><path class="cls-10" d="M115.09,116.47s-.82.36-1-.12.57-.78.57-.78c.59-.29,1.24-.57,1.92-.84.46-.19.91-.35,1.35-.49,1.1-.38,6.64-2.19,7.41-.24a1.7,1.7,0,0,1-.54,1.7L124,115c.36-.41.39-.63.37-.68-.13-.32-2.15-.56-6.16.82-.43.14-.86.3-1.3.48C116.28,115.92,115.66,116.19,115.09,116.47Z"/><path class="cls-10" d="M129.15,117.18l-.17.1v-.36l-.32-.37c.75-.67.84-1,.81-1.12s-1.48-.57-4.91.42c-.84.25-1.69.54-2.55.88l-.78.32s-1,.33-1.14-.12.75-.8.75-.8l.8-.33c.89-.35,1.77-.66,2.64-.91,1.63-.47,5.49-1.4,6.12.17.24.64-.13,1.16-1.09,2Z"/><path class="cls-10" d="M126,118.9s-.63.51-1,0,.33-.79.33-.79a9.86,9.86,0,0,1,3-1.54l.35-.12.09,0a9.25,9.25,0,0,1,3.27-.43l-.1,1a7.87,7.87,0,0,0-2.89.39l-.08,0-.31.1A9.13,9.13,0,0,0,126,118.9Z"/></g><g id="Layer_6" data-name="Layer 6"><path class="cls-11" d="M189.39,62c.44-1.73.73-3.48,1.07-5.22a11.66,11.66,0,0,1,.38-2.73,5.11,5.11,0,0,1,.4-.93,19.87,19.87,0,0,0-.17-2.14,39,39,0,0,0-2.84-16.56,7.18,7.18,0,0,0-.59-1.14,19,19,0,0,0-1-2.49c-.1-.21-.22-.41-.34-.61s-.34-.61-.51-.91a3.05,3.05,0,0,0-.13-.32,27.56,27.56,0,0,0-5.72-8.08,6.12,6.12,0,0,0-.63-1.07,4.44,4.44,0,0,1-1.24-.86l-.84-.82a.12.12,0,0,1,0,0,15.4,15.4,0,0,1-2.32-1.94l0,0a9.2,9.2,0,0,0-4.42-2.42c-.12,0-.24,0-.36-.06a46.74,46.74,0,0,0-10.3-4.85h0a6.46,6.46,0,0,1-.88,0h-.11c-.5,0-1,0-1.48.09l-.08,0a.36.36,0,0,1,.1.11l.24.15,1,.79h0s0,0,.05.05c.84.66,1.64,1.34,2.41,2.06a16.46,16.46,0,0,1,3.32,3.07l-.1.1a6.19,6.19,0,0,1,.45.62c.18.3.38.58.58.87a5.21,5.21,0,0,1,1.1,1.42l.28.5c.07.11.13.22.19.33a5.73,5.73,0,0,1,.83,1.16c.45.87.91,1.74,1.38,2.6a5.11,5.11,0,0,1,.41,1c.49,1.07.92,2.16,1.31,3.27a.65.65,0,0,1,0,.13c.17.44.35.87.5,1.32a4.68,4.68,0,0,1,.23,2.33,5.08,5.08,0,0,1,.41,2.06v.15s0,0,0,.06c0,.7,0,1.37-.07,2a4.13,4.13,0,0,1,.31,2L172,38.6a6.46,6.46,0,0,1-.22,1.13l-.26,1.73a1.68,1.68,0,0,0-.06.24,5.84,5.84,0,0,1-.17,1.13c-.06.24-.13.47-.19.71a6.47,6.47,0,0,1-.22,1c0,.17,0,.34,0,.53a15.44,15.44,0,0,1-1.16,3.89l-.06.24a5.28,5.28,0,0,1-1,1.83,23.71,23.71,0,0,1-1.87,3,4.94,4.94,0,0,1-1.37,2.11c-.68.64-1.37,1.28-2.06,1.9-.33.34-.65.68-1,1s-.76.73-1.16,1.08l-.07,0a4.71,4.71,0,0,1-.77.86A19.55,19.55,0,0,1,157,63.36l0,0a3.87,3.87,0,0,1-.87.47,37.92,37.92,0,0,1-3.49,1.53,5.42,5.42,0,0,1-1,.49c-.45.18-.91.32-1.37.46l-.33.09a7.2,7.2,0,0,1-1.13.6l-.88.31-.74.21h-.08l-.59.15a6.42,6.42,0,0,1-.75.1,6.58,6.58,0,0,1-.87.06,3.51,3.51,0,0,1-.9.29c-.46.08-.9.13-1.34.17h-.11a27.51,27.51,0,0,1-3.4,0,5,5,0,0,1-1.05-.15,21.93,21.93,0,0,1-6.09-1.1,4.24,4.24,0,0,1-1-.4,5.23,5.23,0,0,1-1.72-.28,21.14,21.14,0,0,1-3-1.28l-.56-.22a9.06,9.06,0,0,1-1.85-1.13,4.89,4.89,0,0,1-2.15-1.41c-.37-.43-.77-.84-1.16-1.26A5.34,5.34,0,0,1,119,60L117.91,59a5.29,5.29,0,0,1-.53-.64l-.08-.08a5.67,5.67,0,0,1-1.85-1.67,16.36,16.36,0,0,1-1.26-2,5,5,0,0,1-1-1,8.46,8.46,0,0,1-1.07-1.75l-.2-.42a4.82,4.82,0,0,1-.64-1c-.2-.46-.41-.91-.61-1.37a5.43,5.43,0,0,1-.48-2.19l0-.08-.15-.27-.15-.23a4.48,4.48,0,0,1-.92-1.79l-.07-.31,0-.14-.2.27a3.2,3.2,0,0,1-.07.41h0c0,.3,0,.6-.07.91-.08.58-.18,1.15-.26,1.72,0,1-.07,2-.18,3.06a3.54,3.54,0,0,1-.08.45c0,.1,0,.2,0,.31a27.88,27.88,0,0,1,.34,4s0,.11,0,.16,0,.12,0,.18c.19.61.37,1.23.58,1.84v.19a6.45,6.45,0,0,0,1,3.4,28.77,28.77,0,0,0,8.55,15.49c.17.17.32.34.49.5A6.45,6.45,0,0,0,120.58,78l.19.15a31,31,0,0,0,11.58,8.65c5.43,3.4,12.61,4.14,18.8,4a7.57,7.57,0,0,0,1.09-.12l1.32,0c.14,0,.26,0,.39,0a6.62,6.62,0,0,0,3.25,0,23.28,23.28,0,0,0,2.87-.89l.56-.25a8.82,8.82,0,0,0,2.76-.73l.62-.3a6.61,6.61,0,0,0,1.24-.53l1.64-.9a6.65,6.65,0,0,0,1.34-.57c.52-.23.74-.35.7-.37.45-.2.91-.4,1.36-.63a6.45,6.45,0,0,0,.85-.53l.5-.32.15-.11,1.17-.76.17-.13c.71-.38,1.41-.77,2.1-1.19a6.81,6.81,0,0,0,2.36-2.28c.53-.33,1-.69,1.55-1.06l.24-.26a6.18,6.18,0,0,1,.67-.94c.9-1,1.74-2.08,2.68-3.06l.3-.28c.34-.46.68-.91,1-1.38.14-.21.27-.42.42-.61l.11-.14a5.78,5.78,0,0,0,.14-.7s0,0,0,0a9.91,9.91,0,0,0,.79-1.37A8.81,8.81,0,0,0,187,67.81c.23-.56.43-1.11.61-1.67l0-.08.09-.12c.16-.28.31-.56.45-.83a6.86,6.86,0,0,0,.46-.85c.24-.55.46-1.06.67-1.56A4.55,4.55,0,0,1,189.39,62Z"/><path class="cls-12" d="M149.81,91.49a42,42,0,0,1-41.56-48.43s0-.53.51-.53a.52.52,0,0,1,.53.36,31.6,31.6,0,0,0,62.45-5.29,31.76,31.76,0,0,0-9-23.54,32.13,32.13,0,0,0-6.16-4.9.59.59,0,0,1-.25-.73A.61.61,0,0,1,157,8a41.85,41.85,0,0,1,34.71,41.59,41.8,41.8,0,0,1-41.92,41.86ZM108.94,45.56A41,41,0,0,0,178.5,78.81a40.68,40.68,0,0,0,12.23-29.19,40.83,40.83,0,0,0-31.9-40.2,32.6,32.6,0,0,1,13.91,28.23,32.61,32.61,0,0,1-63.8,7.91Z"/></g><g id="Layer_2" data-name="Layer 2"><circle class="cls-13" cx="120.01" cy="135.03" r="63.19"/><path class="cls-14" d="M119.88,198.71a63.8,63.8,0,1,1,63.79-63.79A63.86,63.86,0,0,1,119.88,198.71Zm0-126.59a62.8,62.8,0,1,0,62.79,62.8A62.87,62.87,0,0,0,119.88,72.12Z"/></g><g id="Layer_4" data-name="Layer 4"><path class="cls-7" d="M88.4,197.13a7.63,7.63,0,0,1-3.61,0,5.06,5.06,0,0,1-2.47-1.59L82,192.67l-1.84,1.61H77.28l-2.43-1.61-.9-2.83-2.06.77-2.29-1.17-1.35-3.3V184l2.09-2a14.25,14.25,0,0,1,3.84-.48A26.58,26.58,0,0,1,81.92,183,67.42,67.42,0,0,1,89,186.9l3,3.36.91,2.7v2.12l-1.77,1.18Z"/><path class="cls-7" d="M135.3,204.77a7.75,7.75,0,0,1-3.4,1.2,5.08,5.08,0,0,1-2.86-.69l-1.22-2.61-1.2,2.13-2.76,1-2.82-.7-1.79-2.38-1.69,1.41-2.55-.34-2.37-2.67-.72-2,1.31-2.58a14.09,14.09,0,0,1,3.47-1.73,26.37,26.37,0,0,1,7.79-1.16,65.92,65.92,0,0,1,8,1.33l3.93,2.18,1.75,2.24.7,2-1.27,1.7Z"/><path class="cls-10" d="M131.49,206.58a4.51,4.51,0,0,1-1.86-.37,3.46,3.46,0,0,1-1.8-2.33,4.94,4.94,0,0,1-4.12,2.38,5.13,5.13,0,0,1-4.39-2.81l0,.05a3.25,3.25,0,0,1-4.21.56c-2.32-1.48-3.52-3.3-3.38-5.13.19-2.32,2.58-4.3,6.38-5.28a25.38,25.38,0,0,1,16.32,1.58,9.39,9.39,0,0,1,4.23,3.64,4.09,4.09,0,0,1,.5,2.24h0a4.51,4.51,0,0,1-1.54,2.9l-.33.28A10.08,10.08,0,0,1,131.49,206.58Zm-3-7.23.06,2.84c0,.74.19,2.54,1.44,3.11,2.17,1,5.39-.8,6.63-1.82l.08-.08a3.51,3.51,0,0,0,1.37-2.37,3.12,3.12,0,0,0-.38-1.69,8.58,8.58,0,0,0-3.79-3.21,22.42,22.42,0,0,0-8.07-2.08,23.17,23.17,0,0,0-7.56.56c-3.37.88-5.48,2.52-5.63,4.4-.11,1.44.92,2.93,2.92,4.21a2.28,2.28,0,0,0,2.92-.39,4,4,0,0,0,.46-.62l.52-.87.37.95a4,4,0,0,0,7.74-.25Z"/><path class="cls-10" d="M86.55,197.91a5.81,5.81,0,0,1-4-1.3,3.44,3.44,0,0,1-1-2.77,4.94,4.94,0,0,1-4.66.93,5.11,5.11,0,0,1-3.26-4.07l-.06,0a3.26,3.26,0,0,1-4.17-.81c-1.72-2.14-2.28-4.25-1.56-5.94.92-2.14,3.81-3.25,7.73-3a25.34,25.34,0,0,1,15,6.71,9.38,9.38,0,0,1,2.85,4.79,4.11,4.11,0,0,1-.25,2.29h0a4.48,4.48,0,0,1-2.53,2.32l-.23.11h0A11.29,11.29,0,0,1,86.55,197.91Zm-2.86-8.15-.85,2.72c-.22.71-.63,2.46.38,3.4,1.73,1.61,5.33,1,6.84.4l.12-.06a3.47,3.47,0,0,0,2-1.8,3,3,0,0,0,.18-1.73,8.4,8.4,0,0,0-2.57-4.25A24.34,24.34,0,0,0,75.52,182c-3.47-.26-6,.63-6.74,2.36-.57,1.33-.06,3.08,1.42,4.92a2.29,2.29,0,0,0,2.9.57,4.46,4.46,0,0,0,.63-.44l.77-.66,0,1A4,4,0,0,0,82,192Z"/><path class="cls-10" d="M73.55,189.84a7.34,7.34,0,0,1,.38-2.65A7,7,0,0,1,76.15,184a13.63,13.63,0,0,0-1.6,5.83Z"/><path class="cls-10" d="M119,202.65a7.18,7.18,0,0,1-.48-2.63,6.93,6.93,0,0,1,1.07-3.76,11.82,11.82,0,0,0,.34,6Z"/></g></g></g></svg>