<svg xmlns="http://www.w3.org/2000/svg" viewBox="0 0 326.66 214.07"><defs><style>.cls-1{isolation:isolate;}.cls-2{fill:#f39200;}.cls-3{fill:#e94e1b;}.cls-4{fill:#f6df4c;}.cls-5{fill:#f7c0d8;}.cls-6{fill:#fdf8e7;}.cls-7{fill:#e37c2f;}.cls-8{fill:#1d1d1b;}.cls-9{fill:#fff;}.cls-10{fill:#fbd2bb;}.cls-11{fill:#1d71b8;opacity:0.42;mix-blend-mode:color-burn;}.cls-12{fill:#2d2e83;}</style></defs><g class="cls-1"><g id="Hamtaro"><path class="cls-2" d="M113.89,126a42.25,42.25,0,0,0-7.35-12.64A41.54,41.54,0,0,0,82.08,99.21l-.4-.08a41.32,41.32,0,0,0-14.51.07,41.7,41.7,0,0,0-33.64,33.63,40.81,40.81,0,0,0-.67,7.17,40.26,40.26,0,0,0,.78,8.32h82a5.59,5.59,0,0,0,.12-.56,40.71,40.71,0,0,0,.67-7.33A41.46,41.46,0,0,0,113.89,126Z"/><path class="cls-3" d="M115.6,148.82h-82a.49.49,0,0,1-.49-.4A42.18,42.18,0,0,1,33,132.74a42.27,42.27,0,0,1,34-34,42.08,42.08,0,0,1,14.68-.06l.42.08A42.11,42.11,0,0,1,106.92,113a42.79,42.79,0,0,1,7.44,12.8h0a42.68,42.68,0,0,1,1.86,22l0,.19c0,.14-.06.28-.1.42A.5.5,0,0,1,115.6,148.82Zm-81.55-1H115.2l0-.17a41.47,41.47,0,0,0-1.81-21.47,41.65,41.65,0,0,0-7.27-12.49A41,41,0,0,0,82,99.7l-.41-.08a40.75,40.75,0,0,0-14.32.07,41.19,41.19,0,0,0-31.37,26.36A42.33,42.33,0,0,0,34,132.92a41.4,41.4,0,0,0,0,14.9Z"/><path class="cls-2" d="M113.89,126a42.25,42.25,0,0,0-7.35-12.64A41.54,41.54,0,0,0,82.08,99.21l-.4-.08a41.32,41.32,0,0,0-14.51.07,41.7,41.7,0,0,0-33.64,33.63,40.81,40.81,0,0,0-.67,7.17,40.26,40.26,0,0,0,.78,8.32h82a5.59,5.59,0,0,0,.12-.56,40.71,40.71,0,0,0,.67-7.33A41.46,41.46,0,0,0,113.89,126Z"/><path class="cls-3" d="M115.6,148.82h-82a.49.49,0,0,1-.49-.4A42.18,42.18,0,0,1,33,132.74a42.27,42.27,0,0,1,34-34,42.08,42.08,0,0,1,14.68-.06l.42.08A42.11,42.11,0,0,1,106.92,113a42.79,42.79,0,0,1,7.44,12.8h0a42.68,42.68,0,0,1,1.86,22l0,.19c0,.14-.06.28-.1.42A.5.5,0,0,1,115.6,148.82Zm-81.55-1H115.2l0-.17a41.47,41.47,0,0,0-1.81-21.47,41.65,41.65,0,0,0-7.27-12.49A41,41,0,0,0,82,99.7l-.41-.08a40.75,40.75,0,0,0-14.32.07,41.19,41.19,0,0,0-31.37,26.36A42.33,42.33,0,0,0,34,132.92a41.4,41.4,0,0,0,0,14.9Z"/><path class="cls-2" d="M140.05,140.55l-15.21-.08a49.89,49.89,0,0,0-3-17.3l14.31-5.12A64.86,64.86,0,0,1,140.05,140.55Z"/><path class="cls-3" d="M140.05,141.05h0l-15.2-.08a.5.5,0,0,1-.5-.5,49.24,49.24,0,0,0-3-17.13.53.53,0,0,1,0-.39.49.49,0,0,1,.28-.25L136,117.58a.5.5,0,0,1,.64.3,65.26,65.26,0,0,1,3.94,22.67A.51.51,0,0,1,140.05,141.05ZM125.34,140l14.21.08a64.34,64.34,0,0,0-3.71-21.36l-13.37,4.78A50.38,50.38,0,0,1,125.34,140Z"/><path class="cls-2" d="M85.9,75.86l-2.72,15a50.18,50.18,0,0,0-17.42,0l-2.57-15A65.35,65.35,0,0,1,85.9,75.86Z"/><path class="cls-3" d="M65.76,91.36a.51.51,0,0,1-.49-.41L62.7,76a.5.5,0,0,1,.4-.58,65.67,65.67,0,0,1,22.89,0,.48.48,0,0,1,.32.2.47.47,0,0,1,.08.38l-2.72,15a.48.48,0,0,1-.57.41,49.48,49.48,0,0,0-17.25,0Zm-2-15.08,2.4,14a50.87,50.87,0,0,1,16.61,0l2.54-14A64.68,64.68,0,0,0,63.77,76.28Z"/><path class="cls-2" d="M49.46,96.85A50.29,50.29,0,0,0,36.18,108L24.59,98.14A65.52,65.52,0,0,1,41.92,83.65Z"/><path class="cls-3" d="M36.18,108.48a.47.47,0,0,1-.32-.12l-11.6-9.84a.5.5,0,0,1-.06-.7A66.07,66.07,0,0,1,41.67,83.21a.55.55,0,0,1,.38,0,.48.48,0,0,1,.3.24l7.54,13.2a.49.49,0,0,1-.18.68,49.82,49.82,0,0,0-13.15,11,.5.5,0,0,1-.34.18ZM25.29,98.08l10.83,9.19A50.9,50.9,0,0,1,48.78,96.66l-7-12.33A65,65,0,0,0,25.29,98.08Z"/><path class="cls-2" d="M25.22,131.32a49,49,0,0,0-.81,8.65l-15.22-.09a66.43,66.43,0,0,1,4-22.21l14.27,5.27A49.27,49.27,0,0,0,25.22,131.32Z"/><path class="cls-3" d="M24.41,140.47h0l-15.21-.09a.49.49,0,0,1-.36-.15.5.5,0,0,1-.14-.35,67.16,67.16,0,0,1,4.07-22.39.51.51,0,0,1,.26-.28.5.5,0,0,1,.38,0l14.27,5.27a.48.48,0,0,1,.28.26.46.46,0,0,1,0,.38,48.67,48.67,0,0,0-2.26,8.3h0a48.61,48.61,0,0,0-.8,8.56.51.51,0,0,1-.5.5ZM9.7,139.39l14.21.07a52.14,52.14,0,0,1,.81-8.23h0a51.09,51.09,0,0,1,2.14-8l-13.33-4.93A65.67,65.67,0,0,0,9.7,139.39Z"/><path class="cls-2" d="M124.73,98.27,113.05,108A50,50,0,0,0,99.61,96.74l7.67-13.13A64.31,64.31,0,0,1,124.73,98.27Z"/><path class="cls-3" d="M113.05,108.47a.5.5,0,0,1-.38-.17A49.43,49.43,0,0,0,99.36,97.17a.47.47,0,0,1-.23-.3.46.46,0,0,1,.05-.38l7.67-13.13a.5.5,0,0,1,.68-.19A64.94,64.94,0,0,1,125.12,98a.52.52,0,0,1,.11.36.45.45,0,0,1-.18.34l-11.68,9.71A.5.5,0,0,1,113.05,108.47ZM100.3,96.56a50.47,50.47,0,0,1,12.81,10.71L124,98.2a64.06,64.06,0,0,0-16.57-13.91Z"/><path class="cls-3" d="M115.6,148.82h-82a.5.5,0,1,1,0-1h82a.5.5,0,0,1,0,1Z"/><path class="cls-4" d="M317.42,63.51c.45-1.72.74-3.47,1.07-5.21a11.11,11.11,0,0,1,.39-2.73,4.25,4.25,0,0,1,.39-.93c0-.71-.07-1.42-.16-2.15a39.18,39.18,0,0,0-2.85-16.56,7.52,7.52,0,0,0-.59-1.13,17.73,17.73,0,0,0-1-2.49,4.53,4.53,0,0,0-.34-.61c-.16-.31-.34-.61-.5-.92-.05-.1-.09-.21-.14-.31A27.43,27.43,0,0,0,308,22.39a5.27,5.27,0,0,0-.63-1.07,4.83,4.83,0,0,1-1.24-.86c-.28-.28-.55-.56-.84-.82,0,0,0,0-.05-.05a15.37,15.37,0,0,1-2.32-1.95h0a9.22,9.22,0,0,0-4.42-2.43l-.36-.06a47.17,47.17,0,0,0-10.3-4.84h0a6.32,6.32,0,0,1-.87,0h-.12c-.5,0-1,0-1.48.09l-.07,0a.55.55,0,0,1,.1.11l.23.15,1,.79h0l.05.06c.84.66,1.64,1.34,2.41,2.06a15.66,15.66,0,0,1,3.32,3.07.94.94,0,0,1-.1.1,4.94,4.94,0,0,1,.45.62c.19.3.39.58.58.87a4.88,4.88,0,0,1,1.1,1.42l.28.5a2.79,2.79,0,0,1,.19.33,4.92,4.92,0,0,1,.83,1.16c.45.87.91,1.73,1.38,2.6a5.81,5.81,0,0,1,.42,1c.48,1.08.91,2.17,1.31,3.28l0,.13c.17.44.35.87.5,1.32a4.54,4.54,0,0,1,.23,2.32,5.13,5.13,0,0,1,.41,2.07v.15s0,0,0,.06c0,.69,0,1.37-.07,2a4.19,4.19,0,0,1,.31,2L300,40.16a6.65,6.65,0,0,1-.23,1.13L299.55,43a1.68,1.68,0,0,1-.06.24,5.83,5.83,0,0,1-.17,1.14c-.06.24-.12.47-.19.71a4.49,4.49,0,0,1-.22,1,5.16,5.16,0,0,1-.05.54,15.44,15.44,0,0,1-1.16,3.89l-.06.23a5.33,5.33,0,0,1-.95,1.84,23.71,23.71,0,0,1-1.87,3,5,5,0,0,1-1.37,2.11l-2.05,1.9c-.33.34-.66.68-1,1s-.75.72-1.15,1.07l-.08.06a5,5,0,0,1-.76.86,19.62,19.62,0,0,1-3.34,2.35L285,65a3.3,3.3,0,0,1-.87.46A35.21,35.21,0,0,1,280.67,67a5.55,5.55,0,0,1-1,.5c-.45.17-.91.32-1.37.46L278,68a6.83,6.83,0,0,1-1.14.59,9.18,9.18,0,0,1-.88.31c-.24.08-.49.15-.74.21l-.06,0h0c-.19.05-.39.11-.59.15a6.46,6.46,0,0,1-.75.11,6.36,6.36,0,0,1-.87.06,3.39,3.39,0,0,1-.9.29c-.46.08-.9.13-1.33.17h-.12a27.5,27.5,0,0,1-3.4,0,5.77,5.77,0,0,1-1-.15,21.93,21.93,0,0,1-6.08-1.1,4.32,4.32,0,0,1-1-.4,5.3,5.3,0,0,1-1.72-.29,19.06,19.06,0,0,1-3-1.28c-.19-.06-.37-.13-.56-.21a9.38,9.38,0,0,1-1.85-1.14,4.76,4.76,0,0,1-2.14-1.4c-.38-.43-.78-.85-1.17-1.26A5.49,5.49,0,0,1,247,61.58L246,60.51a5.24,5.24,0,0,1-.54-.64.3.3,0,0,0-.08-.08,5.88,5.88,0,0,1-1.85-1.67,16.26,16.26,0,0,1-1.25-2,4.79,4.79,0,0,1-1-1,8.12,8.12,0,0,1-1.07-1.76,4,4,0,0,1-.2-.42,4.21,4.21,0,0,1-.65-1c-.2-.46-.4-.92-.61-1.37a5.44,5.44,0,0,1-.48-2.2.14.14,0,0,1,0-.07c-.06-.09-.11-.18-.16-.27s-.1-.15-.14-.23a4.36,4.36,0,0,1-.92-1.79l-.08-.31s0-.09,0-.14l-.2.26c0,.14,0,.28-.07.42h0c0,.3,0,.6-.07.9-.08.59-.17,1.16-.26,1.73,0,1-.06,2-.17,3.06,0,.15-.06.3-.08.44a2.91,2.91,0,0,1,0,.31,29.71,29.71,0,0,1,.35,4s0,.1,0,.16a1.09,1.09,0,0,1,0,.18c.19.61.37,1.23.58,1.84V59a6.3,6.3,0,0,0,1,3.39,28.7,28.7,0,0,0,8.55,15.5l.48.5a6.62,6.62,0,0,0,1.67,1.16l.19.15a31.18,31.18,0,0,0,11.58,8.65c5.43,3.39,12.61,4.14,18.8,4a7.57,7.57,0,0,0,1.09-.12c.44,0,.88,0,1.32,0l.4,0a6.74,6.74,0,0,0,3.25,0,22.7,22.7,0,0,0,2.87-.9,5.45,5.45,0,0,0,.55-.25,8.93,8.93,0,0,0,2.77-.72l.62-.3a7.25,7.25,0,0,0,1.23-.53l1.65-.9a7.2,7.2,0,0,0,1.33-.57c.52-.23.75-.35.7-.37.46-.2.91-.4,1.36-.63a6.45,6.45,0,0,0,.85-.53l.5-.32.15-.11,1.17-.76.18-.13c.7-.38,1.4-.78,2.09-1.19a6.9,6.9,0,0,0,2.36-2.28c.54-.33,1-.69,1.55-1.06l.25-.26a5,5,0,0,1,.67-.94c.9-1,1.74-2.08,2.67-3.06l.3-.29q.51-.68,1-1.38c.14-.2.27-.41.42-.61l.12-.14c.05-.23.1-.46.13-.69a.05.05,0,0,0,0,0,9.25,9.25,0,0,0,.79-1.36A9,9,0,0,0,315,69.37c.23-.56.43-1.11.61-1.67l0-.08a1,1,0,0,0,.09-.13c.16-.27.31-.55.46-.83a6.18,6.18,0,0,0,.45-.85c.24-.54.46-1,.67-1.56A6.62,6.62,0,0,1,317.42,63.51Z"/><path class="cls-2" d="M277.84,93.05a42,42,0,0,1-41.56-48.43s.05-.53.52-.53a.51.51,0,0,1,.52.35,31.6,31.6,0,1,0,47.31-33.72.61.61,0,0,1,.42-1.12,41.87,41.87,0,0,1,34.72,41.58,41.84,41.84,0,0,1-41.93,41.87ZM237,47.12a41,41,0,0,0,69.55,33.25A41.06,41.06,0,0,0,286.87,11a33.35,33.35,0,0,1,4.64,3.94,32.75,32.75,0,0,1,9.26,24.29A32.6,32.6,0,0,1,237,47.12Z"/><path class="cls-5" d="M240.48,107.25a18.67,18.67,0,0,0-1.8-2.73,5.59,5.59,0,0,0-.61-.74,19.06,19.06,0,0,0-17.17-6.33c-7.4,1.12-16.19,8-15.85,16.19a6.32,6.32,0,0,0,5.54,6.17,14.18,14.18,0,0,0,0,1.84,6.84,6.84,0,0,0,.37,1.75,6.87,6.87,0,0,0-1.68,9.76,1.91,1.91,0,0,1,.93.18c.28.13.56.24.84.35a1,1,0,0,1,.52.07c3.58,1.49,7.42,1.63,11.19,2.27a5.51,5.51,0,0,0,1.54-.25,44.69,44.69,0,0,0,5-1.89,5.71,5.71,0,0,0,1.87-.77,6.88,6.88,0,0,0,2.49-1.49c.51-.46,1-.93,1.47-1.39.3-.21.6-.42.9-.67a10.27,10.27,0,0,0,2.38-3,.75.75,0,0,0,.06-.13,6.26,6.26,0,0,0,.74-1.06c.27-.55.55-1.1.83-1.64a9.83,9.83,0,0,0,.53-1.32c.09-.23.2-.44.28-.68A15.17,15.17,0,0,0,240.48,107.25Z"/><path class="cls-5" d="M155.25,81.82a29.37,29.37,0,0,1-.85-3,12,12,0,0,0-2.59-4.46,8.3,8.3,0,0,0-11.26-.87c-4.32,3.41-5.53,8.87-4.39,13.91a6.4,6.4,0,0,0,1.09,3.24c0,.06.05.13.08.19l0,0a5,5,0,0,0,.33.47l.48,1a16.87,16.87,0,0,0,1.35,2.85,6.6,6.6,0,0,0,8.89,2.33,6.22,6.22,0,0,0,3.08-6.15,5.91,5.91,0,0,0,1.42-.59C156.13,88.83,156.79,85,155.25,81.82Z"/><path class="cls-6" d="M243.17,110.53a2.35,2.35,0,0,1,0-.65c0-.07,0-.15-.05-.22-.31-1.19-.67-2.38-1-3.56a6.32,6.32,0,0,0-.33-2.44,38.53,38.53,0,0,0-2.67-6.59l-.6-.67-1-1.17c-.68-.79-1.36-1.59-2.05-2.38a1.7,1.7,0,0,1-.4-.9,54,54,0,0,0-5.89-4.32A34.63,34.63,0,0,0,222.26,85c-.94-.22-1.88-.43-2.84-.57a1.22,1.22,0,0,1-1.2.55,21.38,21.38,0,0,0-9.14,1.56,23,23,0,0,0-4.18,2.09,10.67,10.67,0,0,0-1.62,1.21c-.58.53-1,1.2-1.57,1.73l-.12.07-.06.1v0a.08.08,0,0,1,0,0c-.06.21-.13.42-.19.63s-.08.29-.13.43a6.6,6.6,0,0,0-1.94,1.89,1.52,1.52,0,0,1-.56-.17.9.9,0,0,1-.18-.15,7.26,7.26,0,0,0-.44-1.66,1.69,1.69,0,0,1,.08-.24l0-.1,0,0c0-.11.06-.21.09-.32s.07-.23.1-.34a1.33,1.33,0,0,1-.18-.7.85.85,0,0,0,0-.16s0,0,0-.08v0c-.06-.1-.1-.2-.16-.29a5.11,5.11,0,0,0-.41-.62l-.06-.08-.19-.23a15,15,0,0,0-1.73-1.84,6.57,6.57,0,0,0-3.24-.25.21.21,0,0,0,0,.06,1.42,1.42,0,0,1-.38.35l.09-.08a3.7,3.7,0,0,0-.49.48l-.09.15,0,.1h0a3.11,3.11,0,0,0-.29.33c-.13.18-.26.36-.38.55s-.41.64-.61,1h0a1.08,1.08,0,0,1-.59,0l-.36-.15a1.13,1.13,0,0,1-.42-.39,1,1,0,0,1-.27-.51,3.94,3.94,0,0,1-.08-.77v-.07c0-.14,0-.28,0-.41a1.41,1.41,0,0,1-.42-.7,4.43,4.43,0,0,0-.18-.59c-.08-.15-.15-.3-.24-.44l-.13-.21a1,1,0,0,1-.11-.14,9.08,9.08,0,0,0-1-1c-.6-.57-1.24-1.09-1.86-1.63a5.44,5.44,0,0,0-.78-.17h-.09a1.09,1.09,0,0,1-.39.33,3.79,3.79,0,0,0-.62.35,1,1,0,0,0-1.1.2,7.23,7.23,0,0,0-1.91,3.24,1.27,1.27,0,0,1-.47-.09l-.3-.72c-.16-.38-.33-.76-.5-1.12-.09-.16-.21-.28-.3-.42s0-.1,0-.15a5,5,0,0,0-.89-1.13,4.82,4.82,0,0,0-1.39-1,34.39,34.39,0,0,0-1.13-7l0,0c-.6-1.25-1.3-2.45-2-3.66-.52-.94-1.2-1.77-1.76-2.67-.88-1-1.78-1.88-2.74-2.76a1.71,1.71,0,0,1-.21-.26l-1-.77a2,2,0,0,1-.43-.43c-.72-.46-1.46-.91-2.18-1.35a1.29,1.29,0,0,1-.27-.25h0a1.58,1.58,0,0,1-1.38-.4l-.1-.1,0,0-.3-.15a6.13,6.13,0,0,0-.83-.26c-.63-.16-1.27-.28-1.91-.41a38.55,38.55,0,0,0-5.16-.69,1.71,1.71,0,0,1-.76-.25,12.18,12.18,0,0,0-6.38,2c-4.19,1.22-7.79,3.7-9.06,7.29a4,4,0,0,0-.35.36,12.1,12.1,0,0,0-.78,1,1.41,1.41,0,0,1-.21.92A18.34,18.34,0,0,0,134.73,82a12.11,12.11,0,0,0,1.05,3.51c.09-.86.29-1.75.43-2.58a16.71,16.71,0,0,1,3.33-8.24,5.93,5.93,0,0,1,7.12-2l0,0a1.44,1.44,0,0,1,.68.18,11.35,11.35,0,0,1,3.12,3c.38.5.72,1,1.05,1.55a8.89,8.89,0,0,1,.9,1.83,5.11,5.11,0,0,1,.86,1.75,1.54,1.54,0,0,1-1.05,1.84c-1,.39-1.21,1.71-2,2.39a1.87,1.87,0,0,1-.71.41c-.45.05-.53.06-.24,0l-.13.06a2.76,2.76,0,0,0-.92.88,10,10,0,0,0-1,2.88,14.83,14.83,0,0,0-.33,1.52c0,.14,0,.29,0,.44a2.63,2.63,0,0,1,.06.39V92a1.53,1.53,0,0,1-.53,2.61,3.9,3.9,0,0,1-.57.13,1.42,1.42,0,0,1-.22.2l-1.23.86a1.13,1.13,0,0,1-.22.11c-1.64,1.74-3.24,3.5-4.82,5.3-2.24,2.55-2.7,6.71,0,9.19a7.12,7.12,0,0,0,2,1.26l-1.91,3.36a6.12,6.12,0,0,0-1.81-1.63,6.29,6.29,0,0,0-6.77.23,7,7,0,0,0-2.47,2.33,19.44,19.44,0,0,0-2.84,7.66,8.52,8.52,0,0,0-1.11,3.42,19.63,19.63,0,0,0,.39,6.72,6.3,6.3,0,0,0,.13,2.82,37.18,37.18,0,0,0,3.12,7,5.6,5.6,0,0,0,1.81,2c.17.37.33.74.51,1.09a10.2,10.2,0,0,0,2.48,3.13,7.39,7.39,0,0,1-1.88,3.14l-.61.6c-.62.25-1.24.51-1.85.78l-.48.1a2.15,2.15,0,0,1-.24.18,3.94,3.94,0,0,1-1,.76c-.54.27-1.06.59-1.61.84l0,0-1.55,1c-.34.29-.65.62-1,.93a1.19,1.19,0,0,0-.51.24,16,16,0,0,0-4,4.79,1.05,1.05,0,0,0-.1.72,4.83,4.83,0,0,0-.38,1.05,6.07,6.07,0,0,1,.16.85c.06.52.09,1.05.15,1.57,0,.08,0,.15,0,.23h0c.07.38.14.75.18,1.13v0c0,.11,0,.22,0,.33s.07.47.08.55,0,.12,0,.19.12.24.19.35a27.69,27.69,0,0,0,5.85,10.51.27.27,0,0,0,.08.07l.5.74a8.2,8.2,0,0,0,1.27,1.6,1,1,0,0,0,.24.47,36.83,36.83,0,0,0,3.07,2.78,7.82,7.82,0,0,0,.71.95,23.35,23.35,0,0,0,9,6c3.21,2.55,7.28,4,11.15,5.21a4.6,4.6,0,0,0,.8.18c.13.12.25.25.39.36a26.51,26.51,0,0,1,3.77.91c3.72.44,7.46.53,11.2.66.82-.14,1.62-.31,2.4-.48a8.58,8.58,0,0,0,1.8-.13c5.28-1,9.46-4.55,13.32-8.09a6.09,6.09,0,0,0,.54-.6,1.11,1.11,0,0,0,.24-.16,16.68,16.68,0,0,0,4.25-7.35,11.43,11.43,0,0,0,.75-2.05q.48-1.17.87-2.37a11.32,11.32,0,0,0,1.19-3.8c.22-1.24.35-2.5.46-3.76.25-1,.45-2.12.6-3.17a20.13,20.13,0,0,0,0-4.25c.07-.39.14-.77.2-1.16,3.69-1.82,7.07-3.52,9.26-7.27a31.66,31.66,0,0,0,1.51-3,.93.93,0,0,0,.13-.15,67.65,67.65,0,0,0,3.09-6.06,1.31,1.31,0,0,0,.09-.73c2.17-3.73,3-8.71,4.12-12.72a7.44,7.44,0,0,0,.22-1.35,2,2,0,0,1-.18-1c0-.13,0-.25,0-.37a2.3,2.3,0,0,1-.15-.78v-.09c-.7-1.46.24-3.76,2.07-3.65a2.69,2.69,0,0,1,.77-.77,3.74,3.74,0,0,1,1-.48l.19-.14a2.11,2.11,0,0,1,.26-.63c.28-.48.56-1,.85-1.43h0c0-.22.08-.44.12-.66,0-.06,0-.1,0-.14s0-.26,0-.39,0-.14,0-.21c-.1-.69-.21-1.33-.3-2,0,0-.12-.09-.17-.15a2.62,2.62,0,0,1-.22-.25l-.3-.38a.86.86,0,0,0-.14-.13,4.76,4.76,0,0,0-.49-.28,2.42,2.42,0,0,1-.91-.57l-.17-.21h0a1.5,1.5,0,0,1-.16-3,.75.75,0,0,1,0-.21,11.32,11.32,0,0,0-.06-1.43l0-.17a2.56,2.56,0,0,1,0-1l-.67-.76a1.7,1.7,0,0,1-.31-.06,9.45,9.45,0,0,0-1.86-.49,4,4,0,0,0-1.56.43c-1.34.46-2.2-1.12-1.69-2.2a18.45,18.45,0,0,1,3.12-4.18,15.43,15.43,0,0,1,3.89-3.36,19.57,19.57,0,0,1,4.93-1.75,12.66,12.66,0,0,1,5.54-.29,1.2,1.2,0,0,1,.33.13A17.27,17.27,0,0,1,232.9,102a26,26,0,0,1,5.83,6.45,15.11,15.11,0,0,1,2.47,7.82,19.89,19.89,0,0,1-.13,4.5s0-.09,0-.12a16.16,16.16,0,0,0,1.65-5c.15-.84.21-1.68.3-2.56A11.63,11.63,0,0,0,243.17,110.53Z"/><path class="cls-7" d="M243.17,110.53a2.35,2.35,0,0,1,0-.65c0-.07,0-.15-.05-.22-.31-1.19-.67-2.38-1-3.56a6.32,6.32,0,0,0-.33-2.44,38.53,38.53,0,0,0-2.67-6.59l-.6-.67-1-1.17c-.68-.79-1.36-1.59-2.05-2.38a1.7,1.7,0,0,1-.4-.9,54,54,0,0,0-5.89-4.32A34.63,34.63,0,0,0,222.26,85c-.94-.22-1.88-.43-2.84-.57a1.22,1.22,0,0,1-1.2.55,21.38,21.38,0,0,0-9.14,1.56,23,23,0,0,0-4.18,2.09,10.67,10.67,0,0,0-1.62,1.21c-.58.53-1,1.2-1.57,1.73l-.12.07-.06.1v0a.08.08,0,0,1,0,0c-.06.21-.13.42-.19.63s-.08.29-.13.43a6.6,6.6,0,0,0-1.94,1.89,1.52,1.52,0,0,1-.56-.17.9.9,0,0,1-.18-.15,7.26,7.26,0,0,0-.44-1.66,1.69,1.69,0,0,1,.08-.24l0-.1,0,0c0-.11.06-.21.09-.32s.07-.23.1-.34a1.33,1.33,0,0,1-.18-.7.85.85,0,0,0,0-.16s0,0,0-.08v0c-.06-.1-.1-.2-.16-.29a5.11,5.11,0,0,0-.41-.62l-.06-.08-.19-.23a15,15,0,0,0-1.73-1.84,6.57,6.57,0,0,0-3.24-.25.21.21,0,0,0,0,.06,1.42,1.42,0,0,1-.38.35l.09-.08a3.7,3.7,0,0,0-.49.48l-.09.15,0,.1h0a3.11,3.11,0,0,0-.29.33c-.13.18-.26.36-.38.55s-.41.64-.61,1h0a1.08,1.08,0,0,1-.59,0l-.36-.15a1.13,1.13,0,0,1-.42-.39,1,1,0,0,1-.27-.51,3.94,3.94,0,0,1-.08-.77v-.07c0-.14,0-.28,0-.41a1.41,1.41,0,0,1-.42-.7,4.43,4.43,0,0,0-.18-.59c-.08-.15-.15-.3-.24-.44l-.13-.21a1,1,0,0,1-.11-.14,9.08,9.08,0,0,0-1-1c-.6-.57-1.24-1.09-1.86-1.63a5.44,5.44,0,0,0-.78-.17h-.09a1.09,1.09,0,0,1-.39.33,3.79,3.79,0,0,0-.62.35,1,1,0,0,0-1.1.2,7.23,7.23,0,0,0-1.91,3.24,1.27,1.27,0,0,1-.47-.09l-.3-.72c-.16-.38-.33-.76-.5-1.12-.09-.16-.21-.28-.3-.42s0-.1,0-.15a5,5,0,0,0-.89-1.13,4.82,4.82,0,0,0-1.39-1,34.39,34.39,0,0,0-1.13-7l0,0c-.6-1.25-1.3-2.45-2-3.66-.52-.94-1.2-1.77-1.76-2.67-.88-1-1.78-1.88-2.74-2.76a1.71,1.71,0,0,1-.21-.26l-1-.77a2,2,0,0,1-.43-.43c-.72-.46-1.46-.91-2.18-1.35a1.29,1.29,0,0,1-.27-.25h0a1.58,1.58,0,0,1-1.38-.4l-.1-.1,0,0-.3-.15a6.13,6.13,0,0,0-.83-.26c-.63-.16-1.27-.28-1.91-.41a38.55,38.55,0,0,0-5.16-.69,1.71,1.71,0,0,1-.76-.25,12.18,12.18,0,0,0-6.38,2c-4.19,1.22-7.79,3.7-9.06,7.29a4,4,0,0,0-.35.36,12.1,12.1,0,0,0-.78,1,1.41,1.41,0,0,1-.21.92A18.34,18.34,0,0,0,134.73,82a12.11,12.11,0,0,0,1.05,3.51c.09-.86.29-1.75.43-2.58a16.71,16.71,0,0,1,3.33-8.24,5.93,5.93,0,0,1,7.12-2l0,0a1.44,1.44,0,0,1,.68.18,11.35,11.35,0,0,1,3.12,3c.38.5.72,1,1.05,1.55a8.89,8.89,0,0,1,.9,1.83,5.11,5.11,0,0,1,.86,1.75,1.54,1.54,0,0,1-1.05,1.84c-1,.39-1.21,1.71-2,2.39a1.87,1.87,0,0,1-.71.41c-.45.05-.53.06-.24,0l-.13.06a2.76,2.76,0,0,0-.92.88,10,10,0,0,0-1,2.88,14.83,14.83,0,0,0-.33,1.52c0,.14,0,.29,0,.44a.06.06,0,0,1,0,0,1.08,1.08,0,0,1,.21.28,1.28,1.28,0,0,1,.11.2,1.15,1.15,0,0,1,.28.3,8,8,0,0,1,.45,1,.84.84,0,0,1,0,.27,1.18,1.18,0,0,0,.77-.14A23.68,23.68,0,0,1,153,92.3a72.74,72.74,0,0,1,8.72-.74c.16.88.33,1.76.48,2.62a45.46,45.46,0,0,0,2.09,8.06c.11.29.22.59.34.88.05.13.08.25.14.38s0,0,0,0c1.8,4.33,4.59,8.36,7.12,12.16a151.35,151.35,0,0,0,12.61,16.76,116.88,116.88,0,0,0,20.78,18.38c.7-1.31,1.36-2.64,2-4a1.31,1.31,0,0,0,.09-.73c2.17-3.73,3-8.71,4.12-12.72a7.44,7.44,0,0,0,.22-1.35,2,2,0,0,1-.18-1c0-.13,0-.25,0-.37a2.3,2.3,0,0,1-.15-.78v-.09c-.7-1.46.24-3.76,2.07-3.65a2.69,2.69,0,0,1,.77-.77,3.74,3.74,0,0,1,1-.48l.19-.14a2.11,2.11,0,0,1,.26-.63c.28-.48.56-1,.85-1.43h0c0-.22.08-.44.12-.66,0-.06,0-.1,0-.14s0-.26,0-.39,0-.14,0-.21c-.1-.69-.21-1.33-.3-2,0,0-.12-.09-.17-.15a2.62,2.62,0,0,1-.22-.25l-.3-.38a.86.86,0,0,0-.14-.13,4.76,4.76,0,0,0-.49-.28,2.42,2.42,0,0,1-.91-.57l-.17-.21h0a1.5,1.5,0,0,1-.16-3,.75.75,0,0,1,0-.21,11.32,11.32,0,0,0-.06-1.43l0-.17a2.56,2.56,0,0,1,0-1l-.67-.76a1.7,1.7,0,0,1-.31-.06,9.45,9.45,0,0,0-1.86-.49,4,4,0,0,0-1.56.43c-1.34.46-2.2-1.12-1.69-2.2a18.45,18.45,0,0,1,3.12-4.18,15.43,15.43,0,0,1,3.89-3.36,19.57,19.57,0,0,1,4.93-1.75,12.66,12.66,0,0,1,5.54-.29,1.2,1.2,0,0,1,.33.13A17.27,17.27,0,0,1,232.9,102a26,26,0,0,1,5.83,6.45,15.11,15.11,0,0,1,2.47,7.82,19.89,19.89,0,0,1-.13,4.5s0-.09,0-.12a16.16,16.16,0,0,0,1.65-5c.15-.84.21-1.68.3-2.56A11.63,11.63,0,0,0,243.17,110.53Z"/><path class="cls-8" d="M184,121.5a8.53,8.53,0,0,0-5.72-4.15,4.94,4.94,0,0,0-2.35-.49c-5,.15-8.9,3.2-11,7.59-2.33,4.75-.23,10.55,3.74,13.83a5.6,5.6,0,0,0,4.61,1.31,6.79,6.79,0,0,0,2.53.74c2.27.27,3.8-1.31,5.58-2.34a10,10,0,0,0,2.22-1.56,6.68,6.68,0,0,0,1.26-1.82,5.15,5.15,0,0,0,1.27-2.12C187.15,128.93,186.64,124.26,184,121.5Z"/><path class="cls-8" d="M145.84,107.13a6.83,6.83,0,0,0-.39-2.47.31.31,0,0,1,0-.1,4.07,4.07,0,0,0-1.93-2.47,5.48,5.48,0,0,0-.43-.37c-1.77-1.26-4.43-.28-5.47,1.44a6.27,6.27,0,0,0-.41.82,4.11,4.11,0,0,0-.43.75,3.67,3.67,0,0,0-1.86,1.63c-.34.66-.67,1.32-1,2a44,44,0,0,0-3,4.14,4.07,4.07,0,0,0,0,4,7,7,0,0,0,1.52,4.1,5.7,5.7,0,0,0,5.65,1.31,8.25,8.25,0,0,0,4.17-3.56,3.33,3.33,0,0,0,.51-1.42,14.4,14.4,0,0,0,3.18-8.85A3.47,3.47,0,0,0,145.84,107.13Z"/><ellipse class="cls-9" cx="172.56" cy="124.74" rx="6.38" ry="5.69" transform="translate(-15.17 225.21) rotate(-64.02)"/><ellipse class="cls-9" cx="141.74" cy="108.7" rx="6.01" ry="3.45" transform="translate(12.68 232.19) rotate(-81.22)"/><ellipse class="cls-9" cx="136.16" cy="118.01" rx="2.37" ry="1.99" transform="translate(-34.88 61.34) rotate(-22.58)"/><ellipse class="cls-9" cx="133.42" cy="113.08" rx="1.99" ry="1.31" transform="translate(-31.22 172.09) rotate(-60)"/><ellipse class="cls-9" cx="172.56" cy="135.52" rx="2.98" ry="3.36" transform="translate(-36.1 67.67) rotate(-20.13)"/><ellipse class="cls-9" cx="181.81" cy="130.66" rx="1.91" ry="2.75" transform="translate(-8.26 12.33) rotate(-3.8)"/><path class="cls-10" d="M153.92,170.6a2.16,2.16,0,0,0-.55-.58,1.79,1.79,0,0,0-.16-1.48,2.24,2.24,0,0,0-1-.84,4.45,4.45,0,0,0-3.77.27,1.53,1.53,0,0,0-.55,2,1.39,1.39,0,0,0-.68.38,1.54,1.54,0,0,0,0,2.12,1.21,1.21,0,0,0,.37.28l.15.11a1.37,1.37,0,0,0-.26.51,1.54,1.54,0,0,0,.16,1.15,1.41,1.41,0,0,0,.89.69l1.6.26a5.24,5.24,0,0,0,1,.11,2.85,2.85,0,0,0,1.25-.31,1.51,1.51,0,0,0,.57-2,2.77,2.77,0,0,0,.75-.53A1.83,1.83,0,0,0,153.92,170.6Z"/><path class="cls-10" d="M140,163.47a1.88,1.88,0,0,0-2.89-.47,1.45,1.45,0,0,0-.3.43l-.19-.08a1.94,1.94,0,0,0-1.07,0,2,2,0,0,0-1.1.86,1.38,1.38,0,0,0-.2.75h0a4.74,4.74,0,0,0-.24.58l-.15.07a1.62,1.62,0,0,0-.79,1.42,2.75,2.75,0,0,0,.87,1.7,1.44,1.44,0,0,0,1.26.41,1.57,1.57,0,0,0,.92-.45l.47-.18.18-.12.37.05h.08l.4-.05h0a1.86,1.86,0,0,0,.25-.1l.24-.1,0,0h0l.31-.24.05-.05a2.19,2.19,0,0,0,.2-.25h0a2.16,2.16,0,0,0,.8-1.41l.22-.19A2.17,2.17,0,0,0,140,163.47Z"/><path class="cls-10" d="M183.67,192.73h0C183.47,192.77,183.55,192.79,183.67,192.73Z"/><path class="cls-10" d="M184.58,192c-.14.14-.07.11,0,0Z"/><path class="cls-10" d="M190.1,195.18c-.06-.06-.14-.11-.21-.17a1.65,1.65,0,0,0-.42-1.16c-.1-.14-.21-.27-.32-.41s-.09-.1-.13-.16a1.1,1.1,0,0,1-.12-.16l0,0-.13-.17-.3-.41q-.58-.79-1.11-1.62a1.5,1.5,0,0,0-2.74.36,1.5,1.5,0,0,0,0,.73h0l0,0,0,0h0l-.09.1a3.22,3.22,0,0,1-.32.32.78.78,0,0,0-.15.1,3.07,3.07,0,0,1-.36.2h.06a.7.7,0,0,0-.2.08l-.47.13a1.51,1.51,0,0,0-.66,2.5c.81.86,2.07.9,3.14,1.18.49.13,1,.28,1.46.45l.77.28c.09,0,.53.16.12,0a3,3,0,0,1,.37.16,1.5,1.5,0,0,0,1.82-2.36Z"/><path class="cls-10" d="M146.32,131.67l-2.25-2.85a.13.13,0,0,1,.15-.2l6,2.34a.18.18,0,0,1,0,.34l-2.33.82A1.39,1.39,0,0,1,146.32,131.67Z"/><path class="cls-8" d="M147.41,132.7a1.88,1.88,0,0,1-1.49-.72h0l-2.24-2.85a.63.63,0,0,1,0-.77.62.62,0,0,1,.74-.21l6,2.35a.65.65,0,0,1,.43.64.67.67,0,0,1-.45.63l-2.33.83A1.93,1.93,0,0,1,147.41,132.7Zm-.7-1.34a.89.89,0,0,0,1,.29l1.52-.54-3.92-1.53Z"/><path class="cls-8" d="M147.59,144.93c-3,0-5.41-3.1-5.41-6.92a1.56,1.56,0,0,1,0-.2,7.37,7.37,0,0,1,.3-2.08.49.49,0,0,1,.61-.34.51.51,0,0,1,.35.62,6.39,6.39,0,0,0-.26,1.84s0,.07,0,.1c0,3.33,2,6,4.41,6,1.81,0,3.46-1.53,4.1-3.8a.5.5,0,1,1,1,.27C151.89,143.11,149.85,144.93,147.59,144.93Z"/><path class="cls-8" d="M139.49,139.37a5.33,5.33,0,1,1,0-10.63.52.52,0,0,1,.51.5.49.49,0,0,1-.49.5h0a4.33,4.33,0,1,0,0,8.63,4.93,4.93,0,0,0,2.9-.92.5.5,0,0,1,.59.81A5.87,5.87,0,0,1,139.49,139.37Z"/><path class="cls-8" d="M175.31,140.65a12,12,0,1,1,12-12A12.06,12.06,0,0,1,175.31,140.65Zm0-23.09a11,11,0,1,0,11,11.05A11.07,11.07,0,0,0,175.31,117.56Z"/><path class="cls-8" d="M135.42,122.6a4.85,4.85,0,0,1-2.16-.49c-2.51-1.24-3.65-4.6-3-8.75a.5.5,0,0,1,1,.17c-.61,3.7.32,6.64,2.43,7.69,3.11,1.54,7.78-1.52,10.42-6.83,1.68-3.39,2.17-7.11,1.29-9.7a4.46,4.46,0,0,0-2.18-2.71,5,5,0,0,0-4.51.34.52.52,0,0,1-.59-.06.49.49,0,0,1,0-.7h0a.36.36,0,0,1,.14-.11,6,6,0,0,1,5.43-.35,5.43,5.43,0,0,1,2.68,3.28c1,2.88.47,6.79-1.35,10.47C142.68,119.56,138.74,122.6,135.42,122.6Z"/><path class="cls-8" d="M211.35,130.11h0a.49.49,0,0,1-.48-.51c0-.85,0-1.74-.09-2.81a.51.51,0,0,1,.46-.54.5.5,0,0,1,.53.47c.08,1.09.11,2,.1,2.9A.5.5,0,0,1,211.35,130.11Z"/><path class="cls-8" d="M221.26,136.31a23.8,23.8,0,0,1-10.39-2.46.49.49,0,0,1-.27-.51,32.75,32.75,0,0,0,.25-3.73.49.49,0,0,1,.5-.5.51.51,0,0,1,.5.51,31,31,0,0,1-.22,3.49,22.76,22.76,0,0,0,9.63,2.2,20.76,20.76,0,0,0,7.34-1.37,21.36,21.36,0,0,0,11.61-11.12,26.87,26.87,0,0,0,.41-20.81C235.57,88.92,222,81.94,210.27,86.44a21.75,21.75,0,0,0-12.91,14.61.49.49,0,0,1-.62.34.5.5,0,0,1-.35-.61,22.75,22.75,0,0,1,13.52-15.27c12.19-4.71,26.39,2.54,31.64,16.14a27.88,27.88,0,0,1-.43,21.59A22.31,22.31,0,0,1,229,134.87,21.67,21.67,0,0,1,221.26,136.31Z"/><path class="cls-8" d="M142.2,98.4a.54.54,0,0,1-.34-.12A22.37,22.37,0,0,1,136.94,92a22.63,22.63,0,0,1-1.85-4.7s0,0,0-.07c-2.6-9.69,1.52-19.59,10-24.1A20.1,20.1,0,0,1,161,61.89,22.06,22.06,0,0,1,173.56,72.6a22.72,22.72,0,0,1,2.62,10.15.5.5,0,0,1-1,0,21.55,21.55,0,0,0-2.51-9.69,21.15,21.15,0,0,0-12-10.24A19.07,19.07,0,0,0,145.57,64c-8.1,4.29-12,13.75-9.51,23,0,0,0,0,0,.07a21.5,21.5,0,0,0,1.76,4.44,21.18,21.18,0,0,0,4.7,6,.51.51,0,0,1,0,.71A.5.5,0,0,1,142.2,98.4Z"/><path class="cls-8" d="M156.17,91.09a.5.5,0,0,1-.5-.43,35.68,35.68,0,0,0-2.15-8.37c-2.47-6.26-6.38-10-9.93-9.58-4.13.51-7.15,6.32-7.52,14.46a.52.52,0,0,1-.51.48.48.48,0,0,1-.48-.49c.39-8.67,3.76-14.87,8.38-15.44,4.1-.5,8.31,3.4,11,10.2a36.61,36.61,0,0,1,2.21,8.61.5.5,0,0,1-.43.56Z"/><path class="cls-8" d="M240.67,123.53h-.11a.49.49,0,0,1-.38-.59,19.9,19.9,0,0,0-.94-11.46A19.53,19.53,0,0,0,230,101a15.42,15.42,0,0,0-22.05,8.93l.47-.1c3.06-.53,5.74.68,6.12,2.76.27,1.61-.9,3.23-3,4.15a.5.5,0,1,1-.41-.91c1.64-.72,2.6-2,2.41-3.06-.26-1.48-2.54-2.38-5-2a6.21,6.21,0,0,0-1.22.33.5.5,0,0,1-.52-.1.47.47,0,0,1-.14-.5,16.88,16.88,0,0,1,10.05-11.31,16.62,16.62,0,0,1,13.69.87,20.53,20.53,0,0,1,9.76,11,20.75,20.75,0,0,1,1,12A.48.48,0,0,1,240.67,123.53Z"/><path class="cls-8" d="M211.25,127.25a.5.5,0,0,1-.11-1c3.1-.71,5.17-3.22,4.73-5.73-.34-2-2.2-3.49-4.62-3.78a7,7,0,0,0-2.15.06l-.17,0a.5.5,0,0,1-.64-.29.5.5,0,0,1,.29-.65,1.1,1.1,0,0,1,.26-.06,8.33,8.33,0,0,1,2.53-.08c2.87.34,5.07,2.19,5.49,4.6.53,3-1.88,6-5.49,6.87Z"/><path class="cls-8" d="M151.93,92.4a.51.51,0,0,1-.41-.2,8.24,8.24,0,0,1-1.34-2.89A8.56,8.56,0,0,1,150,86.1c.33-2.28,1.64-4,3.4-4.4a2.71,2.71,0,0,1,.57-.09.48.48,0,0,1,.52.46.49.49,0,0,1-.46.53,2.53,2.53,0,0,0-.38.07A4,4,0,0,0,151,86.24a7.76,7.76,0,0,0,.17,2.82,7.19,7.19,0,0,0,1.18,2.55.51.51,0,0,1-.11.7A.52.52,0,0,1,151.93,92.4Z"/><path class="cls-8" d="M187.61,166.07a.5.5,0,0,1-.48-.33.51.51,0,0,1,.31-.64l.69-.25c1.83-.72,3.39-1.33,4.77-2a21.37,21.37,0,0,0,8.74-6.78c2.61-3.21,6.16-12.07,7.47-16.1a35.26,35.26,0,0,0,1.49-6.66.5.5,0,0,1,1,.12,36.48,36.48,0,0,1-1.53,6.85c-1.33,4.09-4.95,13.11-7.65,16.42a22.51,22.51,0,0,1-9.09,7.06c-1.41.65-3,1.27-4.8,2l-.75.27A.45.45,0,0,1,187.61,166.07Z"/><path class="cls-8" d="M135.92,153.1a.47.47,0,0,1-.34-.13c-1-.89-1.85-1.74-2.67-2.61-5.61-5.92-8.68-12.37-8.66-18.16,0-.43,0-.91,0-1.43-.11-4.16-.3-11.12,6.17-17.64a102.6,102.6,0,0,1,7.23-10.95l.43-.56a34.64,34.64,0,0,1,3.81-4.09,31.55,31.55,0,0,1,5.7-4.13,7.65,7.65,0,0,1-.69-1.78c-.73-2.92.2-5.59,2.12-6.07a2.68,2.68,0,0,1,1.69.15.52.52,0,0,1,.27.66.5.5,0,0,1-.66.26,1.71,1.71,0,0,0-1.06-.1c-1.32.34-2,2.56-1.39,4.85a6.62,6.62,0,0,0,.83,2,.53.53,0,0,1,.06.39.52.52,0,0,1-.25.31,30.35,30.35,0,0,0-5.95,4.24,32.56,32.56,0,0,0-3.66,3.93c-.17.22-.32.4-.45.58a100.9,100.9,0,0,0-7.19,10.9.76.76,0,0,1-.08.11c-6.22,6.23-6,12.94-5.93,17,0,.54,0,1,0,1.47,0,5.53,3,11.73,8.39,17.46.8.85,1.66,1.69,2.61,2.57a.48.48,0,0,1,0,.7A.46.46,0,0,1,135.92,153.1Z"/><path class="cls-8" d="M169.69,90.35a.49.49,0,0,1-.47-.34,8.07,8.07,0,0,1-.12-5.59,1.1,1.1,0,0,1,.65-.6c2.18-.58,3.45,2.47,3.87,3.47a.5.5,0,1,1-.93.39c-1.35-3.25-2.35-3-2.68-2.89s-.71,2.39.15,4.89a.5.5,0,0,1-.3.64A.51.51,0,0,1,169.69,90.35Z"/><path class="cls-8" d="M189.83,93.06a.49.49,0,0,1-.49-.43c-.44-3.3-2.19-6.73-4.16-8.18a2.71,2.71,0,0,0-2-.62c-1.4.25-2.41,1.51-2.78,3.46a8.52,8.52,0,0,0-.14,2l.11,1.13a.5.5,0,0,1-1,.12c-.06-.41-.09-.82-.11-1.22v-.07c-.76-4-2.31-5.77-3.4-6a1.31,1.31,0,0,0-.62,0c-.86.16-1.46,1.28-1.59,3a11,11,0,0,0,.23,2.94.5.5,0,0,1-.39.59.49.49,0,0,1-.59-.38,11.9,11.9,0,0,1-.24-3.22c.16-2.2,1.06-3.66,2.41-3.91a2.44,2.44,0,0,1,1.05.07c1.39.34,2.62,1.88,3.45,4.26A4.61,4.61,0,0,1,183,82.84a3.62,3.62,0,0,1,2.76.81c2.21,1.61,4.08,5.25,4.56,8.85a.51.51,0,0,1-.43.56Z"/><path class="cls-8" d="M198.33,97.58h-.12a.5.5,0,0,1-.37-.6,9.77,9.77,0,0,0,.2-3.13c-.34-3.45-2.39-6.24-4.48-6.12-1.17.08-2.18,1-2.78,2.63a8.78,8.78,0,0,0-.47,3.28.49.49,0,0,1-.48.52.5.5,0,0,1-.51-.48,9.44,9.44,0,0,1,.53-3.67c.74-2,2.07-3.18,3.64-3.27,2.66-.16,5.15,3,5.54,7a10.37,10.37,0,0,1-.22,3.46A.49.49,0,0,1,198.33,97.58Z"/><path class="cls-8" d="M163,201.28c-12.22,0-23.32-6.39-27.2-8.9-10.93-7.08-19.39-20.33-18.1-28.35.68-4.23,5.75-7.14,9.45-9.27a17.58,17.58,0,0,0,3.4-2.24,27,27,0,0,0,2.3-2.8.5.5,0,0,1,.81.59,28.75,28.75,0,0,1-2.38,2.9,17.83,17.83,0,0,1-3.64,2.42c-3.52,2-8.35,4.8-9,8.55-1.1,6.83,5.89,19.74,17.66,27.36,5.09,3.3,22.95,13.47,39,6.16,9.61-4.39,12.58-11.44,13.55-13.76l.19-.44a45.27,45.27,0,0,0,3.55-20.14.5.5,0,0,1,.47-.53.49.49,0,0,1,.52.48,46,46,0,0,1-3.63,20.6l-.18.42c-1,2.4-4.08,9.72-14.06,14.28A30.37,30.37,0,0,1,163,201.28Z"/><path class="cls-8" d="M153.21,170.66a.49.49,0,0,1-.37-.84.8.8,0,0,0,.22-.44c.05-.62-.87-1.41-2.3-1.54s-2.48.46-2.54,1.08a.77.77,0,0,0,.13.47.49.49,0,0,1-.16.69.5.5,0,0,1-.69-.15,1.79,1.79,0,0,1-.27-1.11c.12-1.29,1.71-2.15,3.62-2s3.32,1.34,3.2,2.63a1.7,1.7,0,0,1-.48,1A.48.48,0,0,1,153.21,170.66Z"/><path class="cls-8" d="M152.93,174.13a.51.51,0,0,1-.45-.29.5.5,0,0,1,.23-.66,1.38,1.38,0,0,0,.21-2.61.5.5,0,0,1-.12-.7.51.51,0,0,1,.7-.12,2.63,2.63,0,0,1,1.25,2.32,2.59,2.59,0,0,1-1.6,2A.54.54,0,0,1,152.93,174.13Z"/><path class="cls-8" d="M147.54,173.61a.54.54,0,0,1-.3-.1,2.55,2.55,0,0,1-1.19-2.27,2.63,2.63,0,0,1,1.67-2,.5.5,0,0,1,.66.25.49.49,0,0,1-.24.66,1.69,1.69,0,0,0-1.1,1.23,1.67,1.67,0,0,0,.8,1.37.5.5,0,0,1-.3.9Z"/><path class="cls-8" d="M150.45,176.38a4.19,4.19,0,0,1-.5,0,4.42,4.42,0,0,1-2.26-.82,2,2,0,0,1-.93-1.8,1.8,1.8,0,0,1,.38-.93.5.5,0,0,1,.79.61.8.8,0,0,0-.17.41,1.09,1.09,0,0,0,.53.91,3.77,3.77,0,0,0,3.6.34,1.09,1.09,0,0,0,.7-.79.75.75,0,0,0-.09-.41.5.5,0,0,1,.87-.49,1.68,1.68,0,0,1,.21,1,2,2,0,0,1-1.25,1.6A4.19,4.19,0,0,1,150.45,176.38Z"/><path class="cls-8" d="M152.17,168.18a.51.51,0,0,1-.41-.2.51.51,0,0,1,.11-.7,14,14,0,0,1,9.34-2.13,15.83,15.83,0,0,1,6.22,1.88.5.5,0,0,1-.49.87,14.73,14.73,0,0,0-5.83-1.75,13,13,0,0,0-8.65,1.93A.46.46,0,0,1,152.17,168.18Z"/><path class="cls-8" d="M161.45,180c-.55,0-1.1,0-1.65-.08a14,14,0,0,1-8.77-3.84.5.5,0,0,1,0-.71.49.49,0,0,1,.7,0A13.06,13.06,0,0,0,159.9,179a14.66,14.66,0,0,0,6-.64.55.55,0,0,1,.22,0,.51.51,0,0,1,.44.56.5.5,0,0,1-.39.43A15.09,15.09,0,0,1,161.45,180Z"/><path class="cls-8" d="M166.12,179.31h-.06a.5.5,0,0,1-.44-.55.5.5,0,0,1,.55-.44h0a.5.5,0,0,1-.06,1Z"/><path class="cls-8" d="M135.08,170l-.41,0a2.83,2.83,0,0,1-1.67-1,2.49,2.49,0,0,1,.09-3.5A2,2,0,0,1,134,165a.5.5,0,1,1,.19,1,1.11,1.11,0,0,0-.49.23,1.5,1.5,0,0,0,0,2.1,1.73,1.73,0,0,0,1.07.63,1.19,1.19,0,0,0,1-.23,1.14,1.14,0,0,0,.31-.44.5.5,0,0,1,.65-.29.49.49,0,0,1,.28.64,2,2,0,0,1-.6.85A2.14,2.14,0,0,1,135.08,170Z"/><path class="cls-8" d="M134.13,166a.49.49,0,0,1-.5-.49,2.75,2.75,0,0,1,1-2.2,2.72,2.72,0,0,1,2.27-.56.5.5,0,1,1-.17,1,1.77,1.77,0,0,0-1.46.35,1.74,1.74,0,0,0-.59,1.41.5.5,0,0,1-.49.51Z"/><path class="cls-8" d="M137.1,169a3.05,3.05,0,0,1-.6-.06.48.48,0,0,1-.39-.58.5.5,0,0,1,.59-.4,1.68,1.68,0,0,0,2.09-1.7.5.5,0,0,1,.5-.5h0a.51.51,0,0,1,.5.5A2.65,2.65,0,0,1,137.1,169Z"/><path class="cls-8" d="M139.29,166.76a.51.51,0,0,1-.49-.37.5.5,0,0,1,.35-.61,1.09,1.09,0,0,0,.44-.23,1.19,1.19,0,0,0,.41-.92,1.79,1.79,0,0,0-.44-1.16,1.75,1.75,0,0,0-1.07-.64,1.17,1.17,0,0,0-1,.23,1,1,0,0,0-.29.38.5.5,0,1,1-.91-.4,2,2,0,0,1,.56-.75,2.18,2.18,0,0,1,1.78-.45,2.86,2.86,0,0,1,1.68,1,2.79,2.79,0,0,1,.67,1.82,2.19,2.19,0,0,1-.76,1.68,2.07,2.07,0,0,1-.82.42A.32.32,0,0,1,139.29,166.76Z"/><path class="cls-8" d="M132.82,168.23a8.78,8.78,0,0,1-6.59-3.21,9.12,9.12,0,0,1-2-4.48.5.5,0,0,1,.42-.57.51.51,0,0,1,.57.42,8,8,0,0,0,1.82,4,7.76,7.76,0,0,0,5.89,2.86h0a.5.5,0,1,1,0,1Z"/><path class="cls-8" d="M139.14,163H139a.5.5,0,0,1-.4-.59,7.7,7.7,0,0,0-1.77-6.3,7.92,7.92,0,0,0-3.6-2.48.5.5,0,0,1-.14-.89.5.5,0,0,1,.5-.05,9,9,0,0,1,4,2.78,8.74,8.74,0,0,1,2,7.13A.51.51,0,0,1,139.14,163Z"/><path class="cls-8" d="M133.42,153.65a.49.49,0,0,1-.41-.21h0a.5.5,0,0,1,.82-.57.51.51,0,0,1-.12.7A.52.52,0,0,1,133.42,153.65Z"/><ellipse class="cls-10" cx="152.18" cy="183.83" rx="4.3" ry="12.25" transform="translate(-39.71 41.95) rotate(-13.9)"/><path class="cls-8" d="M154.73,196.27c-2.87,0-5.8-5.63-7.2-11.29a27.9,27.9,0,0,1-.88-8.88c.26-2.66,1.13-4.32,2.47-4.65s2.88.72,4.35,3a27.5,27.5,0,0,1,3.37,8.25h0c1.49,6,1.43,12.78-1.59,13.53A1.91,1.91,0,0,1,154.73,196.27Zm-5.12-23.88a1.07,1.07,0,0,0-.25,0c-.87.22-1.51,1.63-1.71,3.78a26.39,26.39,0,0,0,.85,8.54c1.66,6.72,4.76,10.93,6.51,10.49s2.53-5.6.86-12.32a26.77,26.77,0,0,0-3.23-7.95C151.56,173.33,150.46,172.39,149.61,172.39Z"/><path class="cls-8" d="M151.48,179.82a.5.5,0,0,1-.48-.34c-.08-.25-.16-.52-.22-.78a9.73,9.73,0,0,1,.26-6.1.5.5,0,0,1,.91.41,8.86,8.86,0,0,0-.2,5.45c.06.24.13.47.2.7a.5.5,0,0,1-.31.63Z"/><path class="cls-8" d="M149.22,180.38a.5.5,0,0,1-.48-.34c-.08-.25-.16-.52-.22-.78-.79-3.19-.25-6.27,1.35-7.65a.5.5,0,1,1,.66.76c-1.31,1.12-1.73,3.86-1,6.65.06.24.13.47.2.7a.49.49,0,0,1-.32.63A.4.4,0,0,1,149.22,180.38Z"/><ellipse class="cls-10" cx="117.66" cy="165.5" rx="4.3" ry="12.25" transform="translate(-36.32 33.12) rotate(-13.9)"/><path class="cls-8" d="M120.2,177.94c-2.87,0-5.8-5.63-7.2-11.29a27.52,27.52,0,0,1-.87-8.87c.25-2.67,1.13-4.32,2.46-4.65,3-.75,6.24,5.22,7.72,11.22a27.9,27.9,0,0,1,.88,8.88c-.26,2.66-1.14,4.31-2.47,4.65A2.37,2.37,0,0,1,120.2,177.94Zm-5.11-23.87a1.09,1.09,0,0,0-.26,0c-.86.21-1.5,1.62-1.71,3.77a26.36,26.36,0,0,0,.85,8.54c1.66,6.72,4.76,10.93,6.51,10.49.87-.21,1.5-1.62,1.71-3.77a26.36,26.36,0,0,0-.85-8.54C119.76,158.19,116.87,154.07,115.09,154.07Z"/><path class="cls-8" d="M117,161.49a.48.48,0,0,1-.47-.34c-.09-.25-.16-.51-.23-.78a9.77,9.77,0,0,1,.26-6.09.49.49,0,0,1,.66-.26.5.5,0,0,1,.25.66,8.93,8.93,0,0,0-.2,5.45c.06.24.13.48.2.7a.5.5,0,0,1-.31.64Z"/><path class="cls-8" d="M114.69,162.05a.5.5,0,0,1-.48-.34c-.08-.25-.16-.51-.22-.78-.79-3.19-.25-6.26,1.36-7.65a.5.5,0,0,1,.7.06.49.49,0,0,1,0,.7c-1.31,1.13-1.73,3.86-1,6.65.06.24.13.48.2.7a.51.51,0,0,1-.31.64Z"/><path class="cls-8" d="M189.5,198.19c-1.28,0-3.66-.72-8.36-3.08a.5.5,0,1,1,.45-.89c7.29,3.66,8.33,3,8.46,2.82s.5-1.26-4.32-6.85a.49.49,0,0,1,.05-.7.48.48,0,0,1,.7,0c4.94,5.72,5,7.31,4.36,8.11A1.53,1.53,0,0,1,189.5,198.19Z"/><path class="cls-8" d="M201.56,152a.5.5,0,0,1-.33-.13c-.07-.06-7-6.14-18.64-4.8a.5.5,0,0,1-.55-.44.49.49,0,0,1,.44-.56c12.12-1.37,19.13,4.79,19.42,5.06a.5.5,0,0,1,0,.7A.52.52,0,0,1,201.56,152Z"/><path class="cls-8" d="M189,163.7a.5.5,0,0,1-.48-.36c0-.09-2.78-9.13-8.7-12.06a.5.5,0,1,1,.44-.9c6.32,3.13,9.1,12.29,9.22,12.68a.5.5,0,0,1-.34.62Z"/><path class="cls-8" d="M128.3,123.53a.51.51,0,0,1-.47-.33c-3.17-9-9.84-9.6-10.13-9.62a.5.5,0,0,1,.07-1c.31,0,7.61.59,11,10.29a.48.48,0,0,1-.47.66Z"/><path class="cls-8" d="M128.3,128.68a.47.47,0,0,1-.35-.15,17,17,0,0,0-8.44-4.61.51.51,0,0,1-.42-.46,4,4,0,0,1,1.31-3.07.51.51,0,0,1,.71,0,.49.49,0,0,1,0,.7,3.1,3.1,0,0,0-1,1.89,18,18,0,0,1,8.56,4.81.5.5,0,0,1,0,.71A.46.46,0,0,1,128.3,128.68Z"/><circle class="cls-11" cx="181.3" cy="107.71" r="64.68"/><path class="cls-12" d="M181.3,172.89a65.18,65.18,0,1,1,65.18-65.18A65.25,65.25,0,0,1,181.3,172.89Zm0-129.36a64.18,64.18,0,1,0,64.18,64.18A64.25,64.25,0,0,0,181.3,43.53Z"/></g></g></svg>